G04 ================== begin FILE IDENTIFICATION RECORD ==================*
G04 Layout Name:  P:/Midtronics/184-000309-RevA/pcb/allegro/184-000309RevA.brd*
G04 Film Name:    LAYER_1_TOP*
G04 File Format:  Gerber RS274X*
G04 File Origin:  Cadence Allegro 16.6-S033*
G04 Origin Date:  Mon Aug 25 10:18:23 2014*
G04 *
G04 Layer:  VIA CLASS/TOP*
G04 Layer:  PIN/TOP*
G04 Layer:  ETCH/TOP*
G04 *
G04 Offset:    (0.00 0.00)*
G04 Mirror:    No*
G04 Mode:      Positive*
G04 Rotation:  0*
G04 FullContactRelief:  No*
G04 UndefLineWidth:     5.00*
G04 ================== end FILE IDENTIFICATION RECORD ====================*
%FSLAX25Y25*MOIN*%
%IR0*IPPOS*OFA0.00000B0.00000*MIA0B0*SFA1.00000B1.00000*%
%ADD80O,.06X.1*%
%AMMACRO77*
4,1,22,0.0,-.01333,
.00094,-.01333,
.001873,-.013167,
.002764,-.012844,
.003586,-.012371,
.004312,-.011763,
.004923,-.011038,
.005398,-.010218,
.005723,-.009328,
.005889,-.008395,
.00591,-.00791,
.00591,.01333,
-.00591,.01333,
-.00591,-.00791,
-.005731,-.008928,
-.005378,-.0099,
-.004862,-.010796,
-.004198,-.011589,
-.003407,-.012254,
-.002511,-.012772,
-.00154,-.013127,
-.000522,-.013307,
0.0,-.01333,
0.0*
%
%ADD77MACRO77*%
%ADD51O,.1X.06*%
%ADD32O,.025X.1*%
%ADD33R,.025X.1*%
%AMMACRO75*
4,1,22,-.00791,-.00591,
.01333,-.00591,
.01333,.00591,
-.00791,.00591,
-.008928,.005731,
-.0099,.005378,
-.010796,.004862,
-.011589,.004198,
-.012254,.003407,
-.012772,.002511,
-.013127,.00154,
-.013307,.000522,
-.01333,0.0,
-.01333,-.00094,
-.013167,-.001873,
-.012844,-.002764,
-.012371,-.003586,
-.011763,-.004312,
-.011038,-.004923,
-.010218,-.005398,
-.009328,-.005723,
-.008395,-.005889,
-.00791,-.00591,
0.0*
%
%ADD75MACRO75*%
%ADD105R,.063X.1023*%
%ADD46R,.035X.115*%
%ADD90R,.115X.035*%
%ADD116R,.063X.106*%
%ADD13C,.03*%
%ADD64R,.063X.126*%
%ADD37C,.04*%
%ADD20C,.05*%
%ADD19R,.126X.063*%
%ADD86R,.063X.1181*%
%ADD24C,.06*%
%ADD103R,.1181X.063*%
%ADD45C,.025*%
%ADD30C,.07*%
%ADD110R,.06102X.11811*%
%ADD100R,.087X.142*%
%ADD48C,.08*%
%ADD18C,.035*%
%ADD52R,.145X.076*%
%ADD40C,.09*%
%ADD56R,.0669X.1102*%
%ADD23R,.031X.031*%
%ADD82C,.048*%
%ADD43C,.075*%
%ADD28R,.1023X.0984*%
%ADD94R,.0826X.1181*%
%ADD58R,.07X.07*%
%ADD79R,.086X.086*%
%AMMACRO76*
4,1,22,-.00591,-.01358,
.00591,-.01358,
.00591,.00807,
.005748,.00909,
.005412,.010066,
.004911,.010969,
.004261,.011772,
.003481,.012449,
.002596,.012981,
.001632,.013351,
.000618,.013548,
0.0,.01358,
-.00079,.01358,
-.001736,.013431,
-.002643,.013121,
-.003481,.012657,
-.004227,.012055,
-.004856,.011333,
-.005351,.010512,
-.005695,.009618,
-.005879,.008678,
-.00591,.00807,
-.00591,-.01358,
0.0*
%
%ADD76MACRO76*%
%AMMACRO74*
4,1,22,-.01333,-.00591,
.00791,-.00591,
.008928,-.005731,
.0099,-.005378,
.010796,-.004862,
.011589,-.004198,
.012254,-.003407,
.012772,-.002511,
.013127,-.00154,
.013307,-.000522,
.01333,0.0,
.01333,.00094,
.013167,.001873,
.012844,.002764,
.012371,.003586,
.011763,.004312,
.011038,.004923,
.010218,.005398,
.009328,.005723,
.008395,.005889,
.00791,.00591,
-.01333,.00591,
-.01333,-.00591,
0.0*
%
%ADD74MACRO74*%
%ADD60C,.03937*%
%ADD54R,.0669X.1299*%
%ADD115R,.00984X.03937*%
%AMMACRO73*
4,1,5,-.0332,-.0443,
.0443,-.0443,
.0443,.0443,
-.0443,.0443,
-.0443,-.0332,
-.0332,-.0443,
0.0*
%
%ADD73MACRO73*%
%ADD113R,.23X.22*%
%ADD44R,.244X.203*%
%ADD31C,.1*%
%ADD98R,.04X.034*%
%ADD68C,.11*%
%ADD53R,.203X.244*%
%ADD112C,.12*%
%ADD108R,.034X.04*%
%ADD99R,.05X.034*%
%ADD87R,.012X.063*%
%ADD83R,.063X.012*%
%ADD114R,.031X.035*%
%ADD109R,.034X.05*%
%ADD63R,.021X.037*%
%ADD14C,.13*%
%ADD34R,.07X.062*%
%ADD26C,.15*%
%ADD47R,.342X.435*%
%ADD42C,.25*%
%ADD10R,.062X.07*%
%ADD102R,.0118X.061*%
%ADD97R,.061X.0118*%
%ADD84R,.0512X.0413*%
%ADD78R,.038X.032*%
%ADD49O,.025X.094*%
%ADD22C,.125*%
%AMMACRO117*
4,1,7,-.04921,.03346,
-.04921,-.03346,
.04921,-.03346,
.04921,.01673,
.04921,.02116,
.03691,.03346,
.02461,.03346,
-.04921,.03346,
0.0*
%
%ADD117MACRO117*%
%ADD92R,.0315X.0512*%
%ADD57O,.094X.025*%
%ADD36R,.035X.028*%
%ADD16R,.039X.043*%
%ADD111R,.086X.024*%
%ADD107R,.072X.056*%
%ADD101R,.094X.016*%
%ADD62R,.037X.037*%
%ADD59R,.025X.094*%
%ADD41R,.059X.051*%
%ADD15R,.043X.039*%
%ADD65R,.094X.025*%
%ADD35R,.063X.039*%
%ADD29R,.051X.059*%
%ADD25R,.0236X.0315*%
%ADD70R,.0153X.048*%
%ADD55R,.039X.063*%
%ADD50R,.0433X.0236*%
%ADD27R,.027X.039*%
%ADD11R,.055X.039*%
%ADD91R,.059X.0512*%
%ADD69R,.059X.063*%
%ADD17R,.039X.055*%
%ADD85R,.063X.059*%
%ADD106R,.087X.047*%
%ADD104R,.0256X.0807*%
%ADD88R,.02953X.0126*%
%ADD21R,.079X.047*%
%ADD95R,.0126X.02953*%
%ADD71R,.0315X.0748*%
%ADD93R,.063X.0984*%
%ADD81R,.0177X.0591*%
%ADD72R,.0236X.0748*%
%ADD66R,.0984X.063*%
%ADD38R,.0984X.0433*%
%ADD67R,.0118X.0669*%
%ADD61R,.0669X.0118*%
%ADD12R,.0827X.0708*%
%ADD39R,.0905X.0767*%
%ADD89R,.02953X.0189*%
%ADD96R,.0189X.02953*%
%ADD118C,.01*%
%ADD119C,.02*%
%ADD120C,.015*%
%ADD121C,.018*%
%ADD122C,.005*%
%ADD123C,.008*%
%ADD124C,.07604*%
G75*
%LPD*%
G75*
G36*
G01X42500Y522500D02*
X43000Y522000D01*
Y513500D01*
X42500Y513000D01*
X7000D01*
X5500Y514500D01*
Y525500D01*
X6500Y526500D01*
X23500D01*
X25500Y524500D01*
X34000D01*
X36000Y522500D01*
X42500D01*
G37*
G36*
G01X45500Y219500D02*
Y268500D01*
X23000D01*
Y305500D01*
X44560D01*
G03X60440I7940J9000D01*
G01X95500D01*
Y219500D01*
X45500D01*
G37*
G36*
G01X40500Y547500D02*
X42500Y545500D01*
Y532500D01*
X42000Y532000D01*
X37500D01*
X33000Y527500D01*
X25500D01*
Y536500D01*
X32000D01*
X34500Y539000D01*
Y547500D01*
X40500D01*
G37*
G36*
G01X64501Y603407D02*
G03X56726Y598490I-5501J93D01*
G02X56843Y597843I-165J-364D01*
G01X49000Y590000D01*
Y574500D01*
X62500Y561000D01*
Y547500D01*
X67500Y542500D01*
X76000D01*
X79500Y539000D01*
Y517500D01*
X78500Y516500D01*
X46500D01*
X45500Y517500D01*
Y561500D01*
X41500Y565500D01*
X27000D01*
X24500Y568000D01*
Y623500D01*
X295000D01*
Y590000D01*
X281000D01*
X279000Y592000D01*
Y596000D01*
X281000Y598000D01*
Y603000D01*
X274000Y610000D01*
X202500D01*
X201500Y609000D01*
Y598000D01*
X204500Y595000D01*
Y590000D01*
X203500Y589000D01*
X189000D01*
X186010Y586010D01*
X185999Y586001D01*
G03X185499Y585501I1501J-2001D01*
G01X185490Y585490D01*
X182500Y582500D01*
Y576500D01*
X181500Y575500D01*
X171000D01*
Y578500D01*
X171500Y579000D01*
X173500D01*
X174500Y580000D01*
Y581904D01*
G03Y582096I-2500J96D01*
G01Y589000D01*
X182500D01*
X183500Y590000D01*
Y610000D01*
X135000D01*
X128000Y603000D01*
X64901D01*
G02X64501Y603407I0J400D01*
G37*
G36*
G01X45500Y230500D02*
X95500D01*
Y305500D01*
X45500D01*
Y230500D01*
G37*
G36*
G01X88500Y21000D02*
Y5500D01*
X75000D01*
Y21000D01*
X88500D01*
G37*
G36*
G01X68500Y29000D02*
Y66500D01*
X119500D01*
Y32500D01*
X116000Y29000D01*
X93918D01*
G03X89582I-2168J-2750D01*
G01X87418D01*
G03X83082I-2168J-2750D01*
G01X80418D01*
G03X76082I-2168J-2750D01*
G01X73918D01*
G03X69634Y29041I-2169J-2750D01*
G01X69581Y29000D01*
X68500D01*
G37*
G36*
G01X141500Y33500D02*
X139500Y31500D01*
Y21000D01*
X129500D01*
X120000Y11500D01*
Y5500D01*
X103500D01*
Y18000D01*
X109500Y24000D01*
X118500D01*
X127000Y32500D01*
Y39000D01*
X141500D01*
Y33500D01*
G37*
G36*
G01X160000Y122500D02*
X148500D01*
Y127500D01*
X160000D01*
Y122500D01*
G37*
G36*
G01X132000Y432500D02*
Y444500D01*
X150336D01*
G03X156664I3164J1500D01*
G01X164000D01*
Y432500D01*
X156859D01*
X156813Y432635D01*
G03X150187I-3313J-1135D01*
G01X150141Y432500D01*
X132000D01*
G37*
G36*
G01X154500Y117000D02*
X167500D01*
Y112500D01*
X154500D01*
Y117000D01*
G37*
G36*
G01X162000Y127500D02*
X174000D01*
Y122500D01*
X162000D01*
Y127500D01*
G37*
G36*
G01X188000Y36000D02*
X180500Y43500D01*
Y45500D01*
X201817D01*
X201833Y45497D01*
G03X204167I1167J6803D01*
G01X204183Y45500D01*
X228500D01*
Y36000D01*
X188000D01*
G37*
G36*
G01X247000Y45500D02*
Y35500D01*
X234500D01*
Y45500D01*
X247000D01*
G37*
G36*
G01X267500Y59500D02*
X245500D01*
Y69500D01*
X267500D01*
Y59500D01*
G37*
G36*
G01X256500Y57500D02*
X280500D01*
Y47500D01*
X256500D01*
Y57500D01*
G37*
G36*
G01X307500Y88500D02*
X281000D01*
Y114000D01*
X307500D01*
Y105000D01*
X318500D01*
Y98000D01*
X307500D01*
Y88500D01*
G37*
G36*
G01X311228Y328683D02*
X313952Y331406D01*
Y342658D01*
X302000Y354609D01*
Y365000D01*
X299000Y368000D01*
X296500D01*
X295894Y368606D01*
X295879Y368651D01*
G03X294273Y370257I-2379J-773D01*
G01X294228Y370272D01*
X292000Y372500D01*
Y383000D01*
X293500Y384500D01*
X299000D01*
X300500Y383000D01*
Y378000D01*
X301438Y377062D01*
Y376990D01*
X301510D01*
X302000Y376500D01*
X334332D01*
Y372000D01*
X308000D01*
Y358500D01*
X309500Y357000D01*
X316500D01*
Y351000D01*
X319000Y348500D01*
X323000D01*
Y328000D01*
X311511D01*
G02X311228Y328683I0J400D01*
G37*
G36*
G01X314482Y158000D02*
X314402Y158081D01*
Y160581D01*
X312500Y162482D01*
Y167000D01*
X330500D01*
Y158000D01*
X314482D01*
G37*
G36*
G01X319500Y182000D02*
X330500D01*
Y170000D01*
X312500D01*
Y180500D01*
X318000D01*
X319500Y182000D01*
G37*
G36*
G01X326500Y328000D02*
Y350000D01*
X331500D01*
X333400Y351900D01*
Y351984D01*
X333402Y351985D01*
Y357000D01*
X334300D01*
Y352000D01*
X339000Y347300D01*
Y328000D01*
X326500D01*
G37*
G36*
G01X332400Y352400D02*
X331500Y351500D01*
X319500D01*
X319000Y352000D01*
Y357000D01*
X332400D01*
Y352400D01*
G37*
G36*
G01X309500Y370500D02*
X326500D01*
Y365000D01*
X354000D01*
Y354000D01*
X352500Y352500D01*
X346500D01*
Y357500D01*
X345500Y358500D01*
X327500D01*
X326000Y360000D01*
X309500D01*
Y370500D01*
G37*
G36*
G01X327502Y366500D02*
Y370300D01*
X332500D01*
Y366500D01*
X327502D01*
G37*
G36*
G01X359000Y302500D02*
Y280500D01*
X356500D01*
Y284000D01*
X353500Y287000D01*
X348500D01*
X348000Y287500D01*
Y298500D01*
X342000Y304500D01*
Y308000D01*
X353500D01*
X359000Y302500D01*
G37*
G36*
G01X345000Y353100D02*
X340500D01*
Y356900D01*
X345000D01*
Y353100D01*
G37*
G36*
G01X340602Y366500D02*
Y370300D01*
X342000D01*
X343200Y371500D01*
X348500D01*
Y366500D01*
X340602D01*
G37*
G36*
G01X356500Y358500D02*
Y366500D01*
X352500D01*
Y373500D01*
X354500Y375500D01*
Y390500D01*
X355500Y391500D01*
Y398500D01*
X356000Y399000D01*
X356954D01*
G03X357146I96J2500D01*
G01X359000D01*
X360061Y397939D01*
X360075Y397886D01*
G03X364003Y396500I2425J614D01*
G01X368000D01*
Y358500D01*
X356500D01*
G37*
G36*
G01X351000Y390500D02*
Y374000D01*
X350000Y373000D01*
X343000D01*
X342000Y372000D01*
X339600D01*
Y366500D01*
X338700D01*
Y376200D01*
X340000Y377500D01*
X342500D01*
X343000Y378000D01*
Y390000D01*
X344000Y391000D01*
X350500D01*
X351000Y390500D01*
G37*
G36*
G01X359000Y356000D02*
X364000D01*
Y350500D01*
X366000Y348500D01*
Y341500D01*
X357000D01*
Y348500D01*
X359000Y350500D01*
Y356000D01*
G37*
%LPC*%
G75*
G54D124*
X87500Y607500D03*
%LPD*%
G75*
G54D100*
X289800Y101500D03*
G54D101*
X283500Y285200D03*
Y289900D03*
Y280500D03*
G54D110*
X318890Y338500D03*
X330110D03*
G54D120*
G01X154160Y270660D02*
X148810D01*
X148500Y270350D01*
G01X165500Y258000D02*
X163000D01*
X161840Y259160D01*
Y260340D01*
G01X194524Y580614D02*
X194540Y580598D01*
Y575690D01*
X191500Y572650D01*
G01X192004Y580614D02*
X191980D01*
Y584520D01*
X191000Y585500D01*
X189000D01*
X187500Y584000D01*
G01X214996Y580614D02*
X215020Y580590D01*
Y574500D01*
G01X209878Y580614D02*
X209900Y580592D01*
Y574500D01*
G01X225950D02*
X227450Y576000D01*
X229403D01*
X229512Y576109D01*
X229532D01*
X230439Y577016D01*
Y577036D01*
X230524Y577121D01*
Y580614D01*
G01X228004D02*
X227980D01*
Y585115D01*
X226192Y586903D01*
X224149D01*
X221850Y584604D01*
G01X256540Y359940D02*
Y356540D01*
X257580Y355500D01*
X266000D01*
X266500Y355000D01*
G01X250996Y557386D02*
X251020Y557390D01*
X251150Y557520D01*
Y562650D01*
X252000Y563500D01*
G01X266500Y355000D02*
X278700D01*
X279000Y355300D01*
G54D111*
X329750Y400000D03*
Y395000D03*
Y410000D03*
Y405000D03*
X350250Y395000D03*
Y400000D03*
Y405000D03*
Y410000D03*
G54D102*
X286236Y441677D03*
X284268D03*
X282299D03*
X280331D03*
X278362D03*
X276394D03*
X274425D03*
X272457D03*
X270488D03*
X268520D03*
X266551D03*
Y526323D03*
X268520D03*
X270488D03*
X272457D03*
X274425D03*
X276394D03*
X278362D03*
X280331D03*
X282299D03*
X284268D03*
X286236D03*
X307890Y441677D03*
X305921D03*
X303953D03*
X301984D03*
X300016D03*
X298047D03*
X296079D03*
X294110D03*
X292142D03*
X290173D03*
X288205D03*
Y526323D03*
X290173D03*
X292142D03*
X294110D03*
X296079D03*
X298047D03*
X300016D03*
X301984D03*
X303953D03*
X305921D03*
X307890D03*
X331512Y441677D03*
X329543D03*
X327575D03*
X325606D03*
X323638D03*
X321669D03*
X319701D03*
X317732D03*
X315764D03*
X313795D03*
X311827D03*
X309858D03*
Y526323D03*
X311827D03*
X313795D03*
X315764D03*
X317732D03*
X319701D03*
X321669D03*
X323638D03*
X325606D03*
X327575D03*
X329543D03*
X331512D03*
X335449Y441677D03*
X333480D03*
Y526323D03*
X335449D03*
G54D121*
G01X240945Y463354D02*
X245500D01*
G01X280646Y571945D02*
X278070D01*
X277430Y571305D01*
X276772D01*
G01X291354Y565055D02*
X294995D01*
G01X353354Y537055D02*
X358495D01*
X358500Y537060D01*
G54D10*
X21000Y14500D03*
X10000D03*
X63500Y53000D03*
X52500D03*
X63500Y62000D03*
X52500D03*
X100500Y222500D03*
Y250000D03*
X111500Y222500D03*
X131000Y211500D03*
X111500Y250000D03*
X128500Y380500D03*
Y389500D03*
Y398500D03*
Y407500D03*
Y416500D03*
X126500Y560500D03*
Y570500D03*
X142000Y211500D03*
X139500Y380500D03*
Y389500D03*
Y398500D03*
Y407500D03*
Y416500D03*
X137500Y560500D03*
Y570500D03*
G54D112*
G01X353000Y153500D02*
Y184250D01*
X357000Y188250D01*
X353000Y48500D03*
Y153500D03*
G54D103*
X302000Y289000D03*
X319320D03*
G54D122*
G01X-77517Y119830D02*
Y114830D01*
X-74983D01*
G01X-73533D02*
X-71950Y119830D01*
X-70367Y114830D01*
G01X-70937Y116580D02*
X-72963D01*
G01X-67650Y114830D02*
Y117080D01*
X-68917Y119830D01*
G01X-66383D02*
X-67650Y117080D01*
G01X-62083Y114830D02*
X-64617D01*
Y119830D01*
X-62083D01*
G01X-63097Y117413D02*
X-64617D01*
G01X-60317Y114830D02*
Y119830D01*
X-58733D01*
X-58227Y119580D01*
X-57910Y119247D01*
X-57783Y118580D01*
X-57910Y117913D01*
X-58290Y117497D01*
X-58733Y117247D01*
X-60317D01*
G01X-58733D02*
X-57783Y114830D01*
G01X-50450D02*
Y119830D01*
X-51210Y118830D01*
G01Y114830D02*
X-49690D01*
G01X-41850Y119830D02*
Y114830D01*
G01X-43307Y119830D02*
X-40393D01*
G01X-37550Y114830D02*
X-38057Y114913D01*
X-38500Y115247D01*
X-38880Y115747D01*
X-39133Y116330D01*
X-39260Y116997D01*
Y117663D01*
X-39133Y118330D01*
X-38880Y118913D01*
X-38500Y119413D01*
X-38057Y119747D01*
X-37550Y119830D01*
X-37043Y119747D01*
X-36600Y119413D01*
X-36220Y118913D01*
X-35967Y118330D01*
X-35840Y117663D01*
Y116997D01*
X-35967Y116330D01*
X-36220Y115747D01*
X-36600Y115247D01*
X-37043Y114913D01*
X-37550Y114830D01*
G01X-34517D02*
Y119830D01*
X-32997D01*
X-32490Y119580D01*
X-32110Y118997D01*
X-31983Y118330D01*
X-32110Y117663D01*
X-32427Y117163D01*
X-32997Y116913D01*
X-34517D01*
G01X-25980Y115497D02*
X-25473Y115080D01*
X-24903Y114830D01*
X-24397D01*
X-23890Y115080D01*
X-23510Y115497D01*
X-23320Y116080D01*
X-23447Y116663D01*
X-23763Y117163D01*
X-24333Y117497D01*
X-25093Y117663D01*
X-25537Y117997D01*
X-25727Y118580D01*
X-25600Y119163D01*
X-25283Y119580D01*
X-24840Y119830D01*
X-24397D01*
X-23953Y119663D01*
X-23573Y119247D01*
G01X-21110Y119830D02*
X-19590D01*
G01X-20350D02*
Y114830D01*
G01X-21110D02*
X-19590D01*
G01X-17443D02*
Y119830D01*
X-16177D01*
X-15670Y119580D01*
X-15290Y119247D01*
X-14973Y118747D01*
X-14720Y118163D01*
X-14657Y117330D01*
X-14720Y116497D01*
X-14973Y115913D01*
X-15290Y115413D01*
X-15670Y115080D01*
X-16177Y114830D01*
X-17443D01*
G01X-10483D02*
X-13017D01*
Y119830D01*
X-10483D01*
G01X-11497Y117413D02*
X-13017D01*
G54D104*
X308480Y381827D03*
X303520D03*
Y410173D03*
X308480D03*
X318480Y381827D03*
X313520D03*
Y410173D03*
X318480D03*
G54D11*
X11200Y35750D03*
X19800Y32000D03*
X11200Y28250D03*
X130200Y296000D03*
X153200Y134500D03*
X148800Y192250D03*
X140200Y196000D03*
X148800Y199750D03*
X138800Y292250D03*
Y299750D03*
X161800Y130750D03*
Y138250D03*
X169200Y228500D03*
X199300Y199750D03*
X190700Y203500D03*
X199300Y207250D03*
X177800Y224750D03*
Y232250D03*
X217300Y117750D03*
X208700Y121500D03*
X217300Y125250D03*
X260800Y134250D03*
X252200Y138000D03*
X260800Y141750D03*
X279800Y72750D03*
X271200Y76500D03*
X279800Y80250D03*
X277800Y226750D03*
X269200Y230500D03*
X277800Y234250D03*
X288700Y357000D03*
X297300Y353250D03*
Y360750D03*
X315200Y151750D03*
X323800Y148000D03*
X315200Y144250D03*
X352700Y320200D03*
Y327700D03*
X361300Y323950D03*
G54D113*
X356000Y188250D03*
G54D20*
G01X17000Y227000D02*
X17150Y226850D01*
Y219500D01*
G01D02*
Y213850D01*
X35000Y196000D01*
X53500D01*
X61500Y188000D01*
G01X16000Y273000D02*
Y280320D01*
X15820Y280500D01*
G01X15500Y294000D02*
Y300500D01*
G01X84950Y45500D02*
X106000D01*
G01X80500Y213000D02*
X90000D01*
G01X106000Y45500D02*
X115500D01*
G01X98000Y95000D02*
Y151500D01*
G01X140000Y35500D02*
X132750D01*
G01X131500Y73500D02*
Y67500D01*
X134500Y64500D01*
G01X132750Y55500D02*
X133072Y63072D01*
X134500Y64500D01*
G01X128000Y83500D02*
X131500Y80000D01*
Y73500D01*
G01X128500Y380500D02*
Y374000D01*
G01X157500Y49500D02*
Y42000D01*
X154500Y38500D01*
X143000D01*
X140500Y36000D01*
G01X161000Y114500D02*
Y97000D01*
X170000Y88000D01*
Y81000D01*
G01X288150Y183700D02*
Y209300D01*
G01Y313700D02*
Y315091D01*
X288100Y315141D01*
Y320859D01*
X288150Y320909D01*
Y339300D01*
G01X305850Y53700D02*
Y79300D01*
G01X314200Y92400D02*
X314000Y92200D01*
Y86500D01*
G01X319320Y289000D02*
X332000D01*
X333000Y288000D01*
G01D02*
X333320Y288320D01*
Y295500D01*
X16000Y273000D03*
X15500Y294000D03*
X52500Y117000D03*
X85250Y26250D03*
X78250D03*
X71750D03*
X106000Y38000D03*
X91750Y26250D03*
X106000Y45500D03*
Y58500D03*
Y52000D03*
X98000Y151500D03*
X117500Y45500D03*
X134500Y64500D03*
X150550Y125000D03*
X153500Y446000D03*
Y431500D03*
X157500Y49500D03*
X171500Y125000D03*
X162000Y439000D03*
X314000Y86500D03*
X333000Y288000D03*
X361500Y258000D03*
G54D123*
G01X326500Y381150D02*
X333000D01*
G01X343150Y342000D02*
Y338750D01*
X343000Y338600D01*
Y334850D01*
G01X335615Y360813D02*
Y355007D01*
X335634D01*
G01X337366D02*
Y350834D01*
X339700Y348500D01*
X343150D01*
G01D02*
Y342000D01*
G01X337366Y368393D02*
Y362606D01*
G01X336500Y361700D02*
X335614Y360814D01*
X335615Y360813D01*
G01X337366Y362606D02*
X337386Y362586D01*
X336500Y361700D01*
G01X335634Y368393D02*
Y376084D01*
X339500Y379950D01*
Y381150D01*
G01D02*
X333000D01*
G54D12*
X9480Y51000D03*
X31520D03*
G54D21*
X15500Y300500D03*
X26500D03*
G54D114*
X354000Y274000D03*
X357700Y281900D03*
X361400Y274000D03*
G54D30*
G01X117500Y45500D02*
X132750D01*
X24500Y241000D03*
Y231000D03*
X105500Y258500D03*
Y268500D03*
Y278500D03*
X111500Y314000D03*
Y334000D03*
Y324000D03*
Y344000D03*
X288150Y53700D03*
Y79300D03*
Y118700D03*
Y144300D03*
Y183700D03*
Y209300D03*
Y248700D03*
Y274300D03*
Y313700D03*
Y339300D03*
X305850Y53700D03*
Y79300D03*
Y118700D03*
Y144300D03*
Y183700D03*
Y209300D03*
Y248700D03*
Y274300D03*
Y313700D03*
Y339300D03*
X333000Y218500D03*
Y208500D03*
Y248500D03*
Y238500D03*
Y228500D03*
Y258500D03*
X343000Y218500D03*
Y248500D03*
Y238500D03*
Y228500D03*
Y258500D03*
X356000Y591500D03*
X346000D03*
G54D105*
X321500Y62830D03*
Y77000D03*
G54D106*
X314200Y110600D03*
Y101500D03*
Y92400D03*
G54D22*
X15600Y470100D03*
X96600D03*
G54D31*
G01X185500Y45500D02*
Y57000D01*
X170000Y72500D01*
Y81000D01*
G01X190000Y41000D02*
X185500Y45500D01*
G01X237500Y92500D02*
Y86500D01*
X218000Y67000D01*
X196000D01*
X186500Y76500D01*
Y81000D01*
G01X238500Y40500D02*
X308500D01*
X316500Y48500D01*
X332500D01*
X343000Y59000D01*
Y140000D01*
X337000Y146000D01*
Y153500D01*
X328000Y162500D01*
X39000Y289500D03*
Y300500D03*
X39500Y505500D03*
X57000Y224500D03*
X85000D03*
X70500D03*
X222000Y52500D03*
Y92500D03*
X237500Y52500D03*
Y92500D03*
X250000Y64500D03*
X276000Y52500D03*
G54D115*
X340909Y355007D03*
X339177D03*
X337366D03*
X335634D03*
X333823D03*
X332091D03*
Y368393D03*
X333823D03*
X335634D03*
X337366D03*
X339177D03*
X340909D03*
G54D40*
G01X76000Y183000D02*
Y195000D01*
G01X80500Y213000D02*
Y199500D01*
X76000Y195000D01*
G01X70500Y224500D02*
Y280500D01*
G01Y213000D02*
Y220500D01*
G01D02*
Y224500D01*
X60500Y213000D03*
X80500D03*
X70500D03*
G54D13*
G01X126500Y9500D02*
X129500Y12500D01*
X133250D01*
G01X120500Y394000D02*
Y398650D01*
G01X177000Y286500D02*
X178500Y285000D01*
X181300D01*
X183800Y282500D01*
G01X165000Y410000D02*
X159850D01*
G01X245500Y220180D02*
X244820Y219500D01*
X239500D01*
G01X239680Y219680D02*
X239500Y219500D01*
G01X288150Y313700D02*
X280550D01*
X280500Y313650D01*
G01X323150Y92500D02*
Y86650D01*
X321500Y85000D01*
Y77000D01*
G01X314200Y92400D02*
X314300Y92500D01*
X323150D01*
G01X357150Y33100D02*
X352600D01*
X352500Y33000D01*
G01X361500Y267000D02*
Y273900D01*
X361400Y274000D01*
X9500Y60000D03*
X7500Y184500D03*
X10000Y206000D03*
X17000Y227000D03*
X19500Y327500D03*
X15000Y505450D03*
Y496000D03*
X14150Y536500D03*
Y546500D03*
X21000Y21000D03*
X42000Y57500D03*
X33500Y59000D03*
X32000Y218500D03*
X30000Y256000D03*
X35000Y343000D03*
X25500Y500500D03*
X26000Y542050D03*
X25500Y559000D03*
X52500Y46500D03*
X63500Y47000D03*
X52500Y71500D03*
X47500Y127000D03*
X61500Y188000D03*
Y393000D03*
X64750Y598250D03*
X81000Y8000D03*
Y17000D03*
Y12500D03*
X80000Y378500D03*
Y385500D03*
X81500Y434000D03*
X76180Y559820D03*
Y547500D03*
X84980Y553500D03*
X86731Y573892D03*
X82150Y562150D03*
X98000Y95000D03*
X103000Y175000D03*
X94500Y169000D03*
X109750Y175250D03*
X88000Y195500D03*
X104500Y182500D03*
X93500Y200000D03*
X98000Y213000D03*
X96000Y361500D03*
X105500Y424500D03*
Y407000D03*
Y441500D03*
X105047Y448000D03*
X95715Y452500D03*
X105047Y457000D03*
X109000Y482000D03*
X106500Y474000D03*
X109050Y551350D03*
X90350Y578050D03*
X97000Y589000D03*
X128000Y83500D03*
X113000Y171000D03*
X122000Y182500D03*
X122500Y195500D03*
X131000Y217500D03*
Y203500D03*
X119000Y215500D03*
X128600Y234500D03*
X114000Y236000D03*
X113500Y229500D03*
X117500Y264000D03*
Y271000D03*
X129000Y275500D03*
X128500Y374000D03*
X120500Y394000D03*
X110500Y389500D03*
X128500Y423500D03*
X126000Y447000D03*
X125500Y469500D03*
X127500Y465500D03*
X126000Y489500D03*
Y477000D03*
X120850Y514950D03*
X109500Y503500D03*
Y496500D03*
X127000Y500000D03*
Y505000D03*
X113500Y525000D03*
X128000Y523000D03*
X120900Y560500D03*
X129500Y582000D03*
X120900Y570500D03*
X113500Y570000D03*
Y589000D03*
X151000Y67500D03*
X147000Y56500D03*
X151000Y79500D03*
X148000Y232500D03*
X144000Y265000D03*
X151000Y257000D03*
X148200Y249500D03*
X143000Y281000D03*
X147000Y277500D03*
X136000Y275500D03*
X153500Y285500D03*
X151500Y277500D03*
X144000Y270500D03*
X150000Y293500D03*
X144050Y300000D03*
X149500Y299500D03*
X152000Y349000D03*
X150500Y368500D03*
X132000D03*
X140150Y448650D03*
X136814Y459907D03*
X149500Y458500D03*
X145250Y458223D03*
X141250Y458250D03*
X139902Y470636D03*
X153500Y489500D03*
X151500Y485000D03*
X141250Y476635D03*
X149000Y473000D03*
X153001Y514127D03*
X144500Y509000D03*
X140000Y507000D03*
X148318Y514318D03*
X136500Y530000D03*
X140500Y517500D03*
X145318Y517683D03*
X152000Y518000D03*
X149000Y533000D03*
X138001Y535989D03*
X148500Y552500D03*
X138000Y545500D03*
X150500Y539500D03*
X137497Y540990D03*
X152900Y566500D03*
X150500Y578000D03*
X147500Y563450D03*
X150527Y572050D03*
X134000Y582000D03*
X149500Y604000D03*
X153488Y583500D03*
X160000Y73500D03*
X154500Y93000D03*
Y109500D03*
X155500Y143000D03*
X164000Y181500D03*
X175000Y217000D03*
X164000Y232000D03*
X172000Y236500D03*
X165500Y258000D03*
Y254000D03*
X154500Y265240D03*
X155500Y277500D03*
X165500Y288500D03*
X169000Y301000D03*
X170500Y347500D03*
X166000Y352000D03*
X163000Y358000D03*
X169000Y357000D03*
X173500D03*
X158500Y349000D03*
X154500Y344500D03*
X166370Y392500D03*
X165000Y410000D03*
X175500Y441500D03*
X154150Y458500D03*
X160500D03*
X173000Y458958D03*
X166318Y458361D03*
X155500Y482500D03*
X156000Y475000D03*
X168500Y483000D03*
X174661Y510839D03*
X166500Y504000D03*
X173810Y499191D03*
X160750Y518250D03*
X157250Y533750D03*
X172500Y559000D03*
X167910Y550590D03*
X164500Y554339D03*
X172000Y582000D03*
X164450Y563170D03*
X172447Y577000D03*
X159403Y589935D03*
X163500Y587500D03*
X174000Y602000D03*
X182000Y134000D03*
X177500D03*
X196500Y117000D03*
X187500Y148500D03*
X183500Y222500D03*
X192500Y213500D03*
X183500Y228500D03*
X195000Y243000D03*
X177000Y251000D03*
X195000Y248000D03*
X185500Y257000D03*
X177000Y286500D03*
Y270500D03*
X183500Y290500D03*
X198500Y300500D03*
X182500Y357000D03*
X177500D03*
X192000Y393000D03*
X188500Y383000D03*
X179249Y392751D03*
X182500Y441500D03*
X191500Y435500D03*
X184500Y437500D03*
X197500Y459000D03*
X193612Y461130D03*
X197934Y452500D03*
X177000Y458952D03*
X191000Y458100D03*
X179750Y471000D03*
X188090Y489590D03*
X181720Y520000D03*
X180900Y532400D03*
X191500Y551500D03*
X197500Y550000D03*
X189500Y539000D03*
X191500Y572650D03*
X180500Y579700D03*
Y571500D03*
X180648Y600148D03*
X187500Y584000D03*
X219500Y134500D03*
X208500Y117000D03*
X220500Y151000D03*
X200000Y137000D03*
X203500Y164500D03*
X218500Y187000D03*
X215000Y181000D03*
X218000Y211500D03*
X217000Y233500D03*
X216000Y242850D03*
X214500Y238000D03*
X207500Y264500D03*
Y257000D03*
X214300Y247600D03*
X203500Y258500D03*
X219000Y248000D03*
X203000Y252500D03*
X210500Y272500D03*
X205030D03*
X209500Y286500D03*
X210500Y297500D03*
X202500Y300500D03*
X218000Y324500D03*
Y337000D03*
X216500Y357500D03*
X203500Y383000D03*
X208500D03*
X221000Y422000D03*
X208000Y422500D03*
X214500D03*
X204500Y448000D03*
X200486Y455581D03*
X217500Y450000D03*
X211000Y466500D03*
X216553Y459031D03*
X210900Y472500D03*
X210247Y480500D03*
X201000Y487000D03*
X216650Y498252D03*
X201332Y501016D03*
X201000Y495000D03*
X208500Y527016D03*
X202220Y550000D03*
X205500Y539000D03*
X215020Y574500D03*
Y563000D03*
X209900Y574500D03*
X235000Y134500D03*
Y129500D03*
X221500Y171500D03*
X232500Y164000D03*
X227500Y158500D03*
X237000Y201000D03*
X229500Y220500D03*
X239500Y219500D03*
X233000Y245500D03*
X229500Y242500D03*
X227000Y246000D03*
X237500Y238500D03*
X234500Y230500D03*
X226500Y252000D03*
X238500Y253500D03*
Y267500D03*
X242500D03*
X222500D03*
X226500D03*
X238000Y280000D03*
X236500Y286500D03*
X232500Y288500D03*
X225996Y305805D03*
X222000Y306000D03*
X240000Y296500D03*
X236500Y294500D03*
X234500Y328000D03*
Y323000D03*
X230000Y348500D03*
X237173D03*
X233000Y366000D03*
X233500Y371500D03*
X239241Y377076D03*
X228500Y393000D03*
X237650Y418000D03*
X228000Y422500D03*
X243000Y429150D03*
X231000Y442500D03*
X230000Y449000D03*
X228500Y459500D03*
X229500Y463500D03*
Y455000D03*
X230000Y474000D03*
X229585Y486360D03*
X240000Y489000D03*
X230500Y513500D03*
Y497000D03*
Y503000D03*
X224525Y498205D03*
X225000Y537500D03*
X235500Y534760D03*
X226500Y549500D03*
X231000D03*
X234500Y551870D03*
X225950Y574500D03*
X232526Y564474D03*
X238000Y565500D03*
X221850Y584604D03*
X265000Y84000D03*
Y73500D03*
X265500Y98000D03*
X250000Y103000D03*
X260000Y231500D03*
X265000Y259500D03*
X250500Y265500D03*
X262500D03*
X258500D03*
X247000Y267500D03*
X254500Y265500D03*
X258000Y289500D03*
X248000Y291500D03*
X245074Y305571D03*
X260000Y301500D03*
X255000D03*
X262500Y293500D03*
X244500D03*
X246500Y331500D03*
X249500Y327000D03*
X250500Y323000D03*
X254000Y326500D03*
X257000Y321500D03*
X261000D03*
X265000D03*
X255000Y377500D03*
X257810Y387390D03*
X256201Y419055D03*
X259445Y415055D03*
X247000Y443200D03*
X258500Y430000D03*
X259400Y446100D03*
X263275Y440298D03*
X264750Y460000D03*
X245000Y456500D03*
X264386Y452000D03*
X245500Y463354D03*
X245000Y452500D03*
X265000Y486500D03*
X264550Y478050D03*
X251000Y492250D03*
X247842Y473842D03*
X252850Y480250D03*
X264500Y498500D03*
X249500Y500250D03*
X250500Y508250D03*
X258000Y534500D03*
X246000Y535000D03*
X247500Y529000D03*
X252500D03*
X265500Y516500D03*
X265000Y551500D03*
X260000Y556000D03*
X246000Y543000D03*
X253050Y573650D03*
X259500Y565500D03*
X252000Y563500D03*
X244000Y565000D03*
X270500Y60500D03*
X271000Y85000D03*
X282500Y93500D03*
Y97500D03*
Y109500D03*
Y105500D03*
Y101500D03*
X270500Y134500D03*
X268500Y145000D03*
X274000Y150000D03*
X285398Y177263D03*
X280000Y162500D03*
X281000Y196500D03*
Y216000D03*
X278000Y239000D03*
X286000Y228500D03*
X267500Y239500D03*
X267000Y254500D03*
X273000Y251000D03*
X280500Y267500D03*
X266000Y248500D03*
X271000Y257500D03*
X278000Y251500D03*
X279000Y261000D03*
X275500Y291500D03*
X286500Y295000D03*
X280500Y303500D03*
X274842Y297842D03*
X266000Y330500D03*
X280500Y325000D03*
X281000Y341450D03*
X266000Y347500D03*
X279500Y380500D03*
X274003Y421950D03*
X286500Y415002D03*
X282201Y419500D03*
X273799Y425945D03*
X273555Y416500D03*
X282500Y448000D03*
X286930D03*
X284000Y434500D03*
X273300Y430300D03*
X279991Y436010D03*
X283500Y430115D03*
X278000Y448000D03*
X272699Y447712D03*
X269000Y478000D03*
X285000Y494065D03*
X279500Y533500D03*
X274540Y535340D03*
X287500Y534246D03*
X269000Y532500D03*
X270000Y516500D03*
X286000Y552500D03*
X276000Y556000D03*
X282506Y547506D03*
X266150Y576000D03*
X276772Y571305D03*
X278000Y582500D03*
X302000Y93500D03*
Y109500D03*
X301500Y101500D03*
X297000D03*
X298500Y142500D03*
X291500Y168000D03*
X303500Y166500D03*
X307000Y225000D03*
X304000Y233500D03*
X291000Y286000D03*
X307500Y282100D03*
X290692Y281692D03*
X290753Y290000D03*
X308220Y299018D03*
X303500Y295000D03*
X296000Y318000D03*
X303689Y345959D03*
X299000Y348500D03*
X297300Y365200D03*
X293500Y367878D03*
X303999Y389000D03*
X304000Y393500D03*
X305500Y400500D03*
X308500Y419000D03*
X299535Y408466D03*
X302316Y416815D03*
X294500Y414500D03*
X290500Y415000D03*
X298404Y412500D03*
X301980Y447500D03*
X288085Y434587D03*
X300982Y433166D03*
X304133Y435631D03*
X301500Y428350D03*
X297694Y435445D03*
X288750Y458250D03*
X295000Y454500D03*
X306000Y449500D03*
X304746Y465777D03*
X306000Y494000D03*
X302500Y500500D03*
X301500Y495500D03*
X290500Y519000D03*
X298500Y532000D03*
X309000Y551500D03*
X305000D03*
X296500Y558500D03*
X292000D03*
X300500Y559500D03*
X291000Y551500D03*
X300500D03*
X290650Y576050D03*
X294995Y565055D03*
X289500Y585000D03*
X327500Y63000D03*
X315500D03*
X330000Y88000D03*
Y106000D03*
Y97000D03*
X315500Y129000D03*
X330000Y115000D03*
X326500Y245500D03*
X317000Y245000D03*
X327094Y262259D03*
X317000Y283000D03*
X324500Y277000D03*
X318500Y305500D03*
X325453Y304547D03*
X324000Y320500D03*
X318000Y368500D03*
X311000D03*
X324500D03*
X329079Y368393D03*
X331500Y374500D03*
X324500D03*
X322000Y387850D03*
X322500Y401500D03*
X316000Y392500D03*
Y388500D03*
X322000Y397500D03*
X317500Y397000D03*
X313000Y419000D03*
X317000D03*
X331050Y423650D03*
X324500Y436000D03*
X329250Y435750D03*
X319450Y435950D03*
X317749Y465770D03*
X330500Y463000D03*
Y467500D03*
Y472500D03*
X327500Y477500D03*
X318000Y485000D03*
X314000Y489000D03*
X310500Y492500D03*
X325000Y473000D03*
X317500Y475500D03*
X329000Y514000D03*
X324500D03*
X321500Y517000D03*
X317747Y519669D03*
X325500Y532500D03*
X310500Y520000D03*
Y533000D03*
X330000Y532500D03*
X315459Y533042D03*
X313000Y551500D03*
X320000Y556500D03*
X319000Y551500D03*
X327500D03*
X323000D03*
X320500Y563500D03*
X352500Y33000D03*
X349500Y275500D03*
X350500Y289850D03*
X338000Y307000D03*
X350500Y303000D03*
X347450Y327300D03*
X348000Y316500D03*
Y331500D03*
Y356500D03*
X352500D03*
X343921Y355007D03*
X348000Y363000D03*
X352500D03*
X343921Y369000D03*
X343450Y400000D03*
X340500Y392500D03*
X347500Y389500D03*
X343450Y395500D03*
X336550Y411000D03*
X342141Y404859D03*
X350000Y417000D03*
X340100Y427500D03*
X337500Y467270D03*
X350000Y451000D03*
Y455500D03*
Y469000D03*
X335056Y453701D03*
X336733Y457793D03*
X350000Y486000D03*
X349500Y491500D03*
X350165Y481158D03*
X337000Y507693D03*
X350434Y503631D03*
X350663Y508013D03*
X349000Y514000D03*
X350601Y499122D03*
X337797Y501693D03*
X335000Y513659D03*
X333265Y499795D03*
X351000Y533000D03*
X338860Y526679D03*
X333000Y551500D03*
X348000Y550500D03*
X339201Y543945D03*
X334000Y568000D03*
X341000D03*
X350500Y563350D03*
X338500Y614000D03*
X361500Y170500D03*
X360000Y202000D03*
X359850Y223000D03*
X360000Y238000D03*
X356750Y308586D03*
X362500Y308000D03*
X367000Y334500D03*
X363500Y343000D03*
X359000D03*
X359074Y347429D03*
X363500Y347500D03*
X365000Y377000D03*
X357050Y401500D03*
X362500Y398500D03*
X358500Y393000D03*
X357500Y397500D03*
X365000Y385500D03*
X357500Y388800D03*
X357050Y408500D03*
X359500Y444500D03*
X367000Y465500D03*
Y458500D03*
Y451500D03*
Y486500D03*
Y472500D03*
Y479500D03*
Y507500D03*
Y500500D03*
Y493500D03*
Y514500D03*
Y521500D03*
Y528500D03*
X358500Y537060D03*
X359499Y542500D03*
X366521Y563384D03*
G54D50*
X100382Y448760D03*
Y452500D03*
Y456240D03*
X110618D03*
Y448760D03*
X240618Y534760D03*
X230382D03*
X240618Y542240D03*
X230382Y538500D03*
Y542240D03*
G54D41*
X49000Y213000D03*
Y220500D03*
X90000Y213000D03*
Y205500D03*
X178500Y586750D03*
Y594250D03*
X324000Y172500D03*
Y165000D03*
X323000Y355000D03*
X314000D03*
X323000Y362500D03*
X314000D03*
X343000Y269000D03*
Y276500D03*
X361500Y353750D03*
Y361250D03*
G54D107*
X327000Y179300D03*
Y197200D03*
G54D14*
X16000Y195000D03*
X76000D03*
G54D23*
X15000Y500500D03*
Y509500D03*
X21000Y500500D03*
Y509500D03*
X308500Y219500D03*
X314500D03*
G54D116*
X348000Y381000D03*
X359000D03*
G54D32*
X41500Y364500D03*
X36500D03*
X31500Y400700D03*
X36500D03*
X41500D03*
X61500Y364500D03*
X56500D03*
X51500D03*
X46500D03*
Y400700D03*
X51500D03*
X56500D03*
X61500D03*
X66500Y364500D03*
Y400700D03*
G54D15*
X17150Y219500D03*
X14150Y551500D03*
Y541500D03*
X23850Y219500D03*
X20850Y551500D03*
X36350Y546000D03*
X29650D03*
X20850Y541500D03*
X83650Y582500D03*
Y589500D03*
X109150Y182500D03*
X108350Y189500D03*
X101650D03*
X105150Y213500D03*
X102150Y230000D03*
X108850D03*
X106850Y241500D03*
X100150D03*
X108350Y582000D03*
X101650D03*
X90350Y582500D03*
X101650Y589000D03*
X108350D03*
X90350Y589500D03*
X126150Y137500D03*
X122350Y189500D03*
X115650D03*
X115850Y182500D03*
X112150Y206500D03*
X118850D03*
X111850Y213500D03*
X132150Y285000D03*
X120850Y468500D03*
X114150D03*
Y482500D03*
X120850D03*
Y489500D03*
X114150D03*
Y475500D03*
X120850D03*
X114150Y496500D03*
X120850D03*
Y510500D03*
X114150D03*
Y503500D03*
X120850D03*
X124850Y582000D03*
X118150D03*
X124850Y589000D03*
X118150D03*
X132850Y137500D03*
X145850D03*
X139150D03*
X152650Y224500D03*
Y236500D03*
Y230500D03*
X138850Y285000D03*
X137150Y306000D03*
X143850D03*
X137150Y313000D03*
X143850D03*
X151650Y354000D03*
X153150Y401500D03*
Y410000D03*
X140150Y453500D03*
X146850D03*
X154150D03*
X153850Y559000D03*
X147150D03*
X153150Y552000D03*
X159350Y224500D03*
Y236500D03*
Y230500D03*
X170650Y352000D03*
X158350Y354000D03*
X159850Y401500D03*
Y410000D03*
X160850Y453500D03*
X155150Y539500D03*
X161850D03*
X167850Y559000D03*
X161150D03*
X159850Y552000D03*
X187650Y155500D03*
X194350D03*
X197350Y257000D03*
X190650D03*
X177350Y352000D03*
X194150Y539000D03*
X207650Y134500D03*
X214350D03*
X218650Y142000D03*
X215650Y464000D03*
Y471000D03*
Y454500D03*
X217150Y479000D03*
X216650Y503000D03*
X217150Y512000D03*
Y520500D03*
X200850Y539000D03*
X225350Y142000D03*
X237850Y353000D03*
X231150D03*
X237650Y422500D03*
X235650Y444000D03*
X242350D03*
X222350Y464000D03*
Y471000D03*
Y454500D03*
X235150Y474500D03*
X241850D03*
X223850Y479000D03*
X235650Y503000D03*
X242350D03*
X235650Y496000D03*
X242350D03*
X235650Y512500D03*
X242350D03*
X223350Y503000D03*
X223850Y512000D03*
X235650Y527500D03*
X242350D03*
X235650Y519500D03*
X242350D03*
X223850Y520500D03*
X257850Y153000D03*
X251150D03*
X260650Y244000D03*
X244350Y422500D03*
X264650Y556000D03*
X266150Y580500D03*
X264650Y565500D03*
X288350Y156500D03*
X281650D03*
X271150Y167500D03*
X277850D03*
X267350Y244000D03*
X280350D03*
X273650D03*
X287850Y367000D03*
X281150D03*
X271350Y556000D03*
X283150Y580500D03*
X272850D03*
X271350Y565500D03*
X308150Y166500D03*
X301150Y303500D03*
X307850D03*
X308650Y556500D03*
Y563500D03*
X289850Y580500D03*
X329850Y110500D03*
X323150D03*
X329850Y92500D03*
X323150D03*
X314850Y166500D03*
X331350Y417000D03*
X324650D03*
X315350Y556500D03*
Y563500D03*
X353150Y206500D03*
Y218500D03*
Y212500D03*
Y233500D03*
X353650Y313500D03*
X354650Y334500D03*
X349850Y348500D03*
X343150D03*
X349850Y342000D03*
X343150D03*
X338650Y417000D03*
X345350D03*
X354650D03*
X355650Y465500D03*
Y458500D03*
Y479500D03*
Y472500D03*
Y486500D03*
Y493500D03*
Y507500D03*
Y514500D03*
Y500500D03*
Y521500D03*
Y528500D03*
X364850Y40000D03*
X358150D03*
X359850Y206500D03*
Y218500D03*
Y212500D03*
Y233500D03*
X360350Y313500D03*
X361350Y334500D03*
Y417000D03*
X362350Y465500D03*
Y458500D03*
Y479500D03*
Y472500D03*
Y486500D03*
Y493500D03*
Y507500D03*
Y514500D03*
Y500500D03*
Y521500D03*
Y528500D03*
G54D117*
X336500Y361700D03*
G54D42*
X70500Y280500D03*
G54D108*
X326300Y312300D03*
X333700D03*
G54D60*
X133291Y464791D03*
X194709Y526209D03*
X214500Y257500D03*
X258677Y526323D03*
X270500Y313500D03*
X343323Y441677D03*
G54D24*
X18000Y517000D03*
X20000Y595000D03*
X23500Y420000D03*
X31500Y412000D03*
X76000Y183000D03*
X87500Y607500D03*
X103500Y369000D03*
X106500Y465500D03*
X96500Y489000D03*
X106000Y488000D03*
X99500Y481000D03*
X115500Y199500D03*
X131500Y451500D03*
X172500Y259000D03*
X221000Y442000D03*
X212000D03*
X239000Y210500D03*
X231500Y214000D03*
X252000Y424500D03*
X261000Y406500D03*
X247500Y434500D03*
X258000Y436500D03*
X272000Y175000D03*
X271000Y219000D03*
X269500Y407500D03*
X277500Y410500D03*
X296500Y380500D03*
X322500Y189500D03*
X361000Y369500D03*
G54D33*
X31500Y364500D03*
G54D51*
X100000Y498500D03*
Y508500D03*
Y518500D03*
Y528500D03*
Y538500D03*
Y548500D03*
Y558500D03*
Y568500D03*
G54D118*
G01X10000Y217350D02*
X6850D01*
X5750Y216250D01*
Y189250D01*
X7500Y187500D01*
Y184500D01*
G01X10000Y217350D02*
Y224500D01*
X5500Y229000D01*
Y313500D01*
X19500Y327500D01*
G01X13500Y531350D02*
X17150Y535000D01*
Y538000D01*
X20650Y541500D01*
X20850D01*
G01Y551500D02*
Y554750D01*
X20250Y555350D01*
X16150D01*
X14654Y556846D01*
Y559000D01*
G01X77000Y350500D02*
X58000Y331500D01*
X40000D01*
X31500Y340000D01*
Y364500D01*
G01X35000Y343000D02*
X44000Y334000D01*
X57000D01*
X66500Y343500D01*
Y364500D01*
G01X25500Y500500D02*
X21000D01*
G01X29000Y509500D02*
X21000D01*
G01X31500Y540500D02*
X29201Y538201D01*
X23901D01*
X20500Y534800D01*
Y531350D01*
G01X20850Y541500D02*
Y551500D01*
G01X26000Y542050D02*
X21400D01*
X20850Y541500D01*
G01X33000Y551000D02*
X36450D01*
X37250Y551800D01*
Y554500D01*
G01X29750Y557000D02*
Y554300D01*
X29650Y554200D01*
Y546000D01*
G01X31500Y540500D02*
X31000D01*
X29650Y541850D01*
Y546000D01*
G01X94000Y163500D02*
Y160000D01*
X71500Y137500D01*
Y109500D01*
X69280Y107280D01*
X62860D01*
G01X55000Y156500D02*
X62840D01*
X62860Y156480D01*
G01D02*
X71480D01*
X90000Y175000D01*
X103000D01*
G01X62860Y136800D02*
X67800D01*
X89500Y158500D01*
Y164000D01*
X94500Y169000D01*
G01X64830Y97440D02*
X71430D01*
X73500Y99510D01*
Y136500D01*
X101825Y164825D01*
Y167464D01*
X106906Y172545D01*
X107045D01*
X109750Y175250D01*
G01X122500Y303500D02*
X117000Y309000D01*
X90500D01*
X77500Y322000D01*
Y327000D01*
G01X143000Y281000D02*
Y288000D01*
X147000Y292000D01*
Y295000D01*
X148500Y296500D01*
X151500D01*
X158000Y303000D01*
Y315500D01*
X115500Y358000D01*
X84500D01*
X77000Y350500D01*
G01X122000Y319000D02*
X108000D01*
X100000Y327000D01*
Y336000D01*
X95000Y341000D01*
X81500D01*
X77500Y337000D01*
G01X150000Y293500D02*
X152000D01*
X160000Y301500D01*
Y316500D01*
X116500Y360000D01*
X102500D01*
X91000Y371500D01*
Y371650D01*
X86000D01*
G01D02*
X75500D01*
G01X66500Y364500D02*
X93000D01*
X96000Y361500D01*
G01X97000Y376500D02*
Y386500D01*
X94500Y389000D01*
X82500D01*
X79150Y392350D01*
X75500D01*
G01X85500Y414400D02*
Y409500D01*
X100000Y395000D01*
Y378243D01*
X103500Y374743D01*
Y369000D01*
G01X81000Y509000D02*
X83650Y511650D01*
X87500D01*
G01X87000Y562150D02*
X82150D01*
G01X83650Y589500D02*
Y595500D01*
G01D02*
Y597750D01*
X82100Y599300D01*
X76750D01*
G01X83650Y582500D02*
X78500D01*
G01D02*
X75250D01*
X73000Y584750D01*
Y590700D01*
G01X105500Y157000D02*
X111000Y151500D01*
Y95500D01*
X114870Y91630D01*
X120340D01*
G01X108350Y189500D02*
X115650D01*
G01X105150Y213500D02*
X105250Y213400D01*
G01Y205800D02*
X105950Y206500D01*
G01X147000Y277500D02*
Y285500D01*
X162000Y300500D01*
Y317500D01*
X117500Y362000D01*
X103500D01*
X97000Y368500D01*
Y376500D01*
G01X155500Y277500D02*
Y280000D01*
X157000Y281500D01*
Y289500D01*
X166000Y298500D01*
Y320000D01*
X104000Y382000D01*
Y401000D01*
X100500Y404500D01*
Y414400D01*
G01X153500Y285500D02*
Y289000D01*
X164000Y299500D01*
Y318500D01*
X102000Y380500D01*
Y397500D01*
X90500Y409000D01*
Y414400D01*
G01X110500Y400850D02*
X106000Y396350D01*
Y383000D01*
X168000Y321000D01*
Y310500D01*
X172500Y306000D01*
Y295500D01*
X165500Y288500D01*
G01X106000Y488000D02*
X108000Y486000D01*
X119500D01*
X120850Y484650D01*
Y482500D01*
G01Y475500D02*
Y473100D01*
X119750Y472000D01*
X111000D01*
X109500Y473500D01*
Y477000D01*
X107500Y479000D01*
Y479082D01*
X100623Y485959D01*
X99541D01*
X96500Y489000D01*
G01X106500Y474000D02*
X99500Y481000D01*
G01X114150Y468500D02*
X111812D01*
X106500Y473812D01*
Y474000D01*
G01X87500Y518350D02*
Y524000D01*
G01X161900Y601650D02*
Y605100D01*
X161000Y606000D01*
X155000D01*
X152500Y603500D01*
Y601688D01*
X150599Y599787D01*
Y592918D01*
X144788Y587107D01*
Y585379D01*
X141559Y582150D01*
X138463D01*
X134063Y577750D01*
X118750D01*
X116500Y575500D01*
X95543D01*
X91500Y571457D01*
Y525000D01*
X98000Y518500D01*
X100000D01*
G01X110500D02*
X100000D01*
G01Y528500D02*
X107039D01*
X108500Y529961D01*
Y533000D01*
G01D02*
Y536000D01*
X109850Y537350D01*
X113500D01*
G01X100000Y558500D02*
X100150Y558650D01*
X108750D01*
G01X100000Y548500D02*
X106300D01*
X110350Y544450D01*
X113500D01*
G01X87000Y568850D02*
Y573623D01*
X86731Y573892D01*
G01X90350Y589500D02*
Y593339D01*
X92170Y595159D01*
X95420D01*
G01X121680Y599000D02*
X117180Y594500D01*
X108350D01*
G01Y582000D02*
Y589000D01*
G01X118150Y582000D02*
X108350D01*
G01X95420Y595159D02*
X99091D01*
X99750Y594500D01*
X108350D01*
G01D02*
Y589000D01*
G01X140500Y36000D02*
X140000Y35500D01*
G01X115650Y189500D02*
Y192650D01*
X118500Y195500D01*
X122500D01*
G01X192500Y213500D02*
X192000Y213000D01*
X180000D01*
X176000Y209000D01*
X174500D01*
X173500Y208000D01*
X148000D01*
X146500Y206500D01*
X129500D01*
X122500Y199500D01*
X115500D01*
G01X112150Y206500D02*
Y202850D01*
X115500Y199500D01*
G01X132250Y249250D02*
X129000Y246000D01*
Y238500D01*
X131500Y236000D01*
Y235843D01*
X131600Y235743D01*
Y228700D01*
X127400Y224500D01*
X121400D01*
G01Y249500D02*
X127000D01*
X134000Y256500D01*
X142403D01*
X142653Y256250D01*
X145347D01*
X145597Y256500D01*
X151000D01*
G01X119500Y278500D02*
X140500D01*
X144500Y274500D01*
X157500D01*
X159500Y276500D01*
Y288500D01*
X169000Y298000D01*
Y301000D01*
G01X129000Y270850D02*
Y275500D01*
G01X149500Y299500D02*
X152250Y302250D01*
Y310007D01*
X151500Y310757D01*
Y315000D01*
X148000Y318500D01*
X137000D01*
X111500Y344000D01*
G01X149000Y305500D02*
Y314500D01*
X147000Y316500D01*
X136000D01*
X118500Y334000D01*
X111500D01*
G01X133291Y471878D02*
X133289Y471880D01*
X128880D01*
X128500Y471500D01*
Y466500D01*
X127500Y465500D01*
G01X131500Y451500D02*
X127500Y455500D01*
Y465500D01*
G01X126500Y482500D02*
X120850D01*
G01X126500D02*
X127000Y482000D01*
Y480243D01*
X129463Y477780D01*
X133291D01*
G01X120850Y475500D02*
X121050D01*
X123920Y472630D01*
X125767D01*
X126987Y473850D01*
X133290D01*
G01X126000Y477000D02*
X127190Y475810D01*
X133290D01*
G01X133291Y501406D02*
X133287Y501410D01*
X128410D01*
X127000Y500000D01*
G01X133291Y499437D02*
X133288Y499440D01*
X127560D01*
X127000Y500000D01*
G01X133291Y503374D02*
X133287Y503370D01*
X128630D01*
X127000Y505000D01*
G01X133291Y495500D02*
X128000D01*
X127250Y494750D01*
X126750D01*
G01X114150Y510500D02*
Y514850D01*
X110500Y518500D01*
G01X133291Y519122D02*
X133289Y519120D01*
X127637D01*
X125000Y521757D01*
Y524243D01*
X130757Y530000D01*
X136500D01*
G01X146283Y526209D02*
X146280D01*
Y522280D01*
X145000Y521000D01*
X138501D01*
X137501Y522000D01*
X132000D01*
X131000Y523000D01*
X128000D01*
G01X120500D02*
Y532000D01*
X122000Y533500D01*
Y538850D01*
G01X129100D02*
Y536900D01*
X131100Y534900D01*
X135500D01*
X136587Y535987D01*
X137999D01*
X138001Y535989D01*
G01X142346Y526209D02*
X142350Y526213D01*
Y530855D01*
X141205Y532000D01*
X138743D01*
X137743Y533000D01*
X129750D01*
X129250Y532500D01*
X126000D01*
G01X125950Y538850D02*
Y534050D01*
X126000Y534000D01*
Y532500D01*
G01X122000Y546150D02*
Y552000D01*
X123000Y553000D01*
X144500D01*
X147000Y555500D01*
X150149D01*
X150779Y556130D01*
X150780D01*
X153650Y559000D01*
X153850D01*
G01X118656Y551344D02*
X122212Y554900D01*
X140339D01*
X142500Y557061D01*
Y562603D01*
X144500Y564603D01*
Y564693D01*
X146257Y566450D01*
X148743D01*
X149900Y565293D01*
Y565257D01*
X151657Y563500D01*
X156013D01*
X158470Y565957D01*
Y566108D01*
X158547Y566185D01*
Y568110D01*
G01X118656Y551344D02*
Y548094D01*
X118001Y547439D01*
Y544610D01*
X120111Y542500D01*
X128000D01*
X129100Y543600D01*
Y546150D01*
G01X125950D02*
Y549950D01*
X126900Y550900D01*
X145857D01*
X148007Y548750D01*
X163070D01*
X164910Y550590D01*
X167910D01*
G01X113500Y558650D02*
X116750D01*
X117900Y559800D01*
Y571743D01*
X122007Y575850D01*
X134851D01*
X139251Y580250D01*
X142347D01*
X146688Y584591D01*
Y586319D01*
X150669Y590300D01*
X150681D01*
X152499Y592118D01*
Y598999D01*
X155150Y601650D01*
X157950D01*
G01X113500Y558650D02*
X108750D01*
G01X113500Y544650D02*
Y544450D01*
G01D02*
Y537350D01*
G01X124850Y589000D02*
X125550D01*
X128420Y591870D01*
X128870D01*
X131530Y594530D01*
Y599000D01*
G01X156720Y260340D02*
Y257220D01*
X156000Y256500D01*
X151000D01*
G01D02*
Y257000D01*
G01X159280Y260340D02*
Y256780D01*
X156500Y254000D01*
X137000D01*
X132250Y249250D01*
G01X136000Y270850D02*
Y275500D01*
G01X153500Y285500D02*
X151500Y283500D01*
Y277500D01*
G01X132000Y289700D02*
Y289500D01*
X132150Y289350D01*
G01X160930Y376600D02*
X161000Y376670D01*
Y381000D01*
X159750Y382250D01*
X147250D01*
X145500Y380500D01*
G01X165622Y385500D02*
X157622Y393500D01*
X156689D01*
X154689Y395500D01*
X148812D01*
X145750Y398562D01*
Y403750D01*
X144500Y405000D01*
X142000D01*
X139500Y407500D01*
G01X148000Y412400D02*
Y400711D01*
X151211Y397500D01*
X159850D01*
G01X164860Y376600D02*
Y381640D01*
X153500Y393000D01*
X146000D01*
G01X148000Y412400D02*
X143900Y416500D01*
X139500D01*
G01X150610Y422500D02*
Y418660D01*
X154270Y415000D01*
X159500D01*
G01X152189Y464791D02*
X152190Y464790D01*
Y460110D01*
X153800Y458500D01*
X154150D01*
G01X140378Y464791D02*
X140380Y464789D01*
Y461623D01*
X138664Y459907D01*
X136814D01*
G01X150220Y464791D02*
Y460220D01*
X149500Y459500D01*
Y458500D01*
G01X144315Y464791D02*
X144310Y464786D01*
Y459449D01*
X145000Y458759D01*
Y458473D01*
X145250Y458223D01*
G01X142346Y464791D02*
X142350Y464787D01*
Y459350D01*
X141250Y458250D01*
G01X148252Y464791D02*
X148250D01*
Y469435D01*
X148815Y470000D01*
X150243D01*
X152000Y471757D01*
Y475243D01*
X154757Y478000D01*
X158500D01*
X160500Y480000D01*
G01X146283Y464791D02*
X146280D01*
Y470818D01*
X148462Y473000D01*
X149000D01*
G01X133291Y491563D02*
Y491560D01*
X139567D01*
X152007Y504000D01*
X166500D01*
G01X133291Y489594D02*
Y489590D01*
X140285D01*
X149886Y499191D01*
X173810D01*
G01X133291Y487626D02*
Y487630D01*
X141013D01*
X148633Y495250D01*
X169500D01*
G01X133291Y485657D02*
Y485660D01*
X141731D01*
X149016Y492945D01*
X156555D01*
X158677Y490823D01*
G01X133291Y483689D02*
Y483690D01*
X142449D01*
X148259Y489500D01*
X153500D01*
G01X133291Y481720D02*
X143167D01*
X146447Y485000D01*
X151500D01*
G01X133291Y479752D02*
Y479750D01*
X143885D01*
X146135Y482000D01*
X155000D01*
X155500Y482500D01*
G01X133291Y477783D02*
Y477780D01*
G01D02*
X139720D01*
X140865Y476635D01*
X141250D01*
G01X133291Y473846D02*
X133290Y473850D01*
G01D02*
X133360Y473780D01*
X137164D01*
X139902Y471042D01*
Y470636D01*
G01X133291Y475815D02*
X133290Y475810D01*
G01D02*
X133350Y475750D01*
X137882D01*
X139997Y473635D01*
X144726D01*
X149500Y478409D01*
G01X133291Y515185D02*
Y515190D01*
X138567D01*
X139257Y514500D01*
X142135D01*
X145318Y517683D01*
G01X133291Y513217D02*
X137815D01*
X137962Y513070D01*
X137963D01*
X139033Y512000D01*
X145743D01*
X146425Y511318D01*
X150192D01*
X153001Y514127D01*
G01X133291Y511248D02*
X137097D01*
X138345Y510000D01*
X143500D01*
X144500Y509000D01*
G01X133291Y493531D02*
Y493530D01*
X138849D01*
X156158Y510839D01*
X174661D01*
G01X133291Y505343D02*
Y505340D01*
X138340D01*
X140000Y507000D01*
G01X133291Y497469D02*
Y497470D01*
X138000D01*
X140000Y499470D01*
Y500000D01*
G01X133291Y517154D02*
Y517150D01*
X140150D01*
X140500Y517500D01*
G01X154157Y526209D02*
X154160D01*
Y520160D01*
X152000Y518000D01*
G01X150220Y526209D02*
Y519780D01*
X152000Y518000D01*
G01X148252Y526209D02*
X148250D01*
Y518994D01*
X148318Y518926D01*
Y514318D01*
G01X152189Y526209D02*
X152190Y526210D01*
Y531429D01*
X150619Y533000D01*
X149000D01*
G01X144315Y526209D02*
X144310Y526214D01*
Y532417D01*
X142612Y534115D01*
X140371D01*
X138499Y535987D01*
X138003D01*
X138001Y535989D01*
G01X140378Y526209D02*
Y526210D01*
X136460D01*
X136250Y526000D01*
X132500D01*
G01X156126Y526209D02*
X156130Y526213D01*
Y530627D01*
X150257Y536500D01*
X149257D01*
X147500Y538257D01*
Y540743D01*
X150257Y543500D01*
X167750D01*
X172810Y548559D01*
X179300Y555049D01*
Y561703D01*
X182250Y564653D01*
Y569750D01*
X180500Y571500D01*
G01X147500Y563450D02*
Y559350D01*
X147150Y559000D01*
G01X168390Y572047D02*
Y572050D01*
X171019D01*
X175500Y567569D01*
Y564257D01*
X177372Y562385D01*
Y562031D01*
X177400Y562003D01*
Y555837D01*
X168413Y546850D01*
X147219D01*
X145149Y548920D01*
X135820D01*
X133050Y546150D01*
G01X137497Y540990D02*
X137490D01*
X137235Y540735D01*
X134935D01*
X133050Y538850D01*
G01X154610Y579921D02*
Y579920D01*
X152420D01*
X150500Y578000D01*
G01D02*
X150547Y577953D01*
G01X154610D02*
X150547D01*
G01X152900Y566500D02*
X154510Y568110D01*
X156579D01*
G01X150547Y577953D02*
X152516Y575984D01*
X154610D01*
G01X150527Y572050D02*
X154607D01*
X154610Y572047D01*
G01X161900Y594350D02*
X162208Y594658D01*
Y597292D01*
X161500Y598000D01*
X156061D01*
X154400Y596339D01*
Y591331D01*
X151469Y588400D01*
X151457D01*
X148588Y585531D01*
Y583019D01*
X142569Y577000D01*
X141000D01*
G01X137500Y570500D02*
Y574000D01*
X140000Y576500D01*
X140500D01*
X141000Y577000D01*
G01X145500Y570500D02*
Y577243D01*
X150488Y582231D01*
Y584743D01*
X152245Y586500D01*
X152257D01*
X155183Y589426D01*
X156403D01*
G01X137500Y560500D02*
Y560900D01*
X143201Y566601D01*
Y568201D01*
X145500Y570500D01*
G01X149500Y604000D02*
Y601376D01*
X148699Y600575D01*
Y593706D01*
X142888Y587895D01*
Y586167D01*
X140843Y584122D01*
X136122D01*
X134000Y582000D01*
G01X176500Y140500D02*
X173000Y137000D01*
Y132000D01*
X172150Y131150D01*
X169000D01*
G01X170600Y211650D02*
X173650D01*
X175000Y213000D01*
Y217000D01*
G01X218000Y211500D02*
X213000Y216500D01*
X180500D01*
X177000Y220000D01*
X172150D01*
X170500Y218350D01*
G01X159280Y270660D02*
Y267720D01*
X160250Y266750D01*
X163250D01*
X170500Y274000D01*
Y287500D01*
X190500Y307500D01*
X207000D01*
X211000Y311500D01*
X217500D01*
G01X216520Y304200D02*
X212300D01*
X211000Y305500D01*
X191500D01*
X172500Y286500D01*
Y273250D01*
X164000Y264750D01*
X159250D01*
X156720Y267280D01*
Y270660D01*
G01X165000Y249350D02*
X165500Y249850D01*
Y254000D01*
G01X191000Y261700D02*
X180700D01*
X178000Y259000D01*
X172500D01*
G01X154500Y265240D02*
Y265000D01*
X154160Y264660D01*
Y260340D01*
G01X161840Y270660D02*
Y274340D01*
X168500Y281000D01*
Y288500D01*
X189500Y309500D01*
X204500D01*
X211000Y316000D01*
G01X166000Y352000D02*
Y359000D01*
X166830Y359830D01*
Y364400D01*
G01X162900D02*
X163000Y364300D01*
Y358000D01*
G01X170770Y364400D02*
Y358770D01*
X169000Y357000D01*
G01X174700Y364400D02*
Y358200D01*
X173500Y357000D01*
G01X168800Y376600D02*
Y383703D01*
X168872Y383775D01*
Y386847D01*
X166969Y388750D01*
X165877D01*
X159850Y394777D01*
Y397500D01*
G01X159500Y415000D02*
X164243D01*
X169439Y409804D01*
Y390061D01*
X172740Y386760D01*
Y376600D01*
G01X159850Y397500D02*
Y401500D01*
G01X172250Y417000D02*
Y414000D01*
X173500Y412750D01*
Y401500D01*
X176000Y399000D01*
Y386000D01*
X176670Y385330D01*
Y376600D01*
G01X166370Y392500D02*
Y400919D01*
X161289Y406000D01*
X153150D01*
G01X164390Y422500D02*
Y418660D01*
X171500Y411550D01*
Y399500D01*
X172689Y398311D01*
Y392926D01*
G01X176610Y427000D02*
Y421440D01*
X175292Y420122D01*
Y420042D01*
X172250Y417000D01*
G01X160500Y458500D02*
X161750Y459750D01*
G01X162031Y464791D02*
Y460031D01*
X161750Y459750D01*
G01D02*
X163250D01*
X164000Y460500D01*
Y464791D01*
G01X171874D02*
X171870Y464787D01*
Y460130D01*
X173000Y459000D01*
Y458958D01*
G01D02*
X172958D01*
X172940Y458940D01*
Y456110D01*
X175500Y453550D01*
Y453350D01*
G01X160063Y464791D02*
X160060D01*
Y469441D01*
X162619Y472000D01*
X166500D01*
G01X154157Y464791D02*
X154160D01*
Y473160D01*
X156000Y475000D01*
G01X156126Y464791D02*
X156130D01*
Y470887D01*
X168243Y483000D01*
X168500D01*
G01X158094Y464791D02*
X158090D01*
Y470159D01*
X167931Y480000D01*
X175500D01*
X181500Y486000D01*
G01X219500Y537750D02*
X215153D01*
X209319Y531916D01*
X206469D01*
X200500Y525947D01*
Y523500D01*
X198400Y521400D01*
X190158D01*
X188250Y519492D01*
Y506250D01*
X185000Y503000D01*
Y483999D01*
X176001Y475000D01*
X174242D01*
X172242Y473000D01*
Y472999D01*
X167940Y468697D01*
Y464791D01*
G01X168500Y453350D02*
Y456257D01*
X168879Y456636D01*
Y456679D01*
X169318Y457118D01*
Y459604D01*
X167940Y460982D01*
Y464791D01*
G01D02*
X167937D01*
G01X166318Y458361D02*
Y458682D01*
X165970Y459030D01*
Y464790D01*
X165969Y464791D01*
G01X160063Y526209D02*
X160060D01*
Y518940D01*
X160750Y518250D01*
G01X158094Y526209D02*
X158090Y526213D01*
Y532910D01*
X157250Y533750D01*
G01X173843Y526209D02*
X173840Y526212D01*
Y530855D01*
X173700Y530995D01*
Y536007D01*
X176051Y538358D01*
X177132Y539383D01*
X177135Y539442D01*
X186193Y548500D01*
X192743D01*
X194500Y550257D01*
Y550692D01*
X194524Y550716D01*
Y557386D01*
G01X171874Y526209D02*
X171870Y526213D01*
Y528823D01*
X171800Y528893D01*
Y536795D01*
X172000Y536995D01*
Y536996D01*
X174706Y539702D01*
X175259Y540226D01*
X175260Y540256D01*
X180446Y545441D01*
X185806Y550801D01*
X185824D01*
X189600Y554577D01*
Y562100D01*
X190500Y563000D01*
X193000D01*
X193500Y563500D01*
G01X169906Y526209D02*
X169910Y526213D01*
Y528095D01*
X169900Y528105D01*
Y537583D01*
X170100Y537783D01*
Y537786D01*
X170400Y538086D01*
Y538088D01*
X172302Y539990D01*
X172305D01*
X173361Y541046D01*
X173380Y541064D01*
X178533Y546216D01*
X185018Y552701D01*
X185036D01*
X187700Y555365D01*
Y562888D01*
X192312Y567500D01*
X198700D01*
X203105Y563095D01*
G01X167937Y526209D02*
X167940Y526212D01*
Y538311D01*
X168200Y538571D01*
Y538574D01*
X168500Y538874D01*
Y538876D01*
X169324Y539700D01*
X171515Y541890D01*
X171517D01*
X172054Y542427D01*
X176622Y546994D01*
X183879Y554251D01*
X183880D01*
X184230Y554601D01*
X184248D01*
X185800Y556153D01*
Y566300D01*
X186250Y566750D01*
G01X165969Y526209D02*
X165970Y526210D01*
Y539032D01*
X166600Y539662D01*
Y539665D01*
X168535Y541600D01*
X168537D01*
X170728Y543790D01*
X170729D01*
X181200Y554261D01*
Y554283D01*
X182550Y555633D01*
Y557500D01*
G01X164000Y526209D02*
Y532550D01*
X162500Y534050D01*
G01X160516Y568110D02*
Y565315D01*
X156801Y561600D01*
X156650D01*
X154050Y559000D01*
X153850D01*
G01X168390Y570079D02*
Y570080D01*
X170301D01*
X173100Y567281D01*
Y563615D01*
X175500Y561215D01*
Y557757D01*
X172082Y554339D01*
X164500D01*
G01X159850Y552000D02*
X162500D01*
X164500Y554000D01*
Y554339D01*
G01X154610Y577953D02*
X158547D01*
X160516Y575984D01*
G01X154610D02*
X160516D01*
G01D02*
X161500Y575000D01*
G01X168390Y579921D02*
Y579920D01*
X170000D01*
X172000Y581920D01*
Y582000D01*
G01X164450Y563170D02*
Y568107D01*
X164453Y568110D01*
G01X162484D02*
Y565136D01*
X164450Y563170D01*
G01X168390Y574016D02*
X171885D01*
X179000Y566901D01*
Y566000D01*
G01X168390Y577953D02*
X171494D01*
G01X168390Y575984D02*
X171431D01*
G01X171494Y577953D02*
X172447Y577000D01*
G01X171431Y575984D02*
X172447Y577000D01*
G01X166421Y568110D02*
X168990D01*
X169850Y567250D01*
Y564000D01*
G01X153488Y583500D02*
X155098Y581890D01*
X156579D01*
G01X160516D02*
X160520D01*
Y585480D01*
X159403Y586597D01*
Y589935D01*
G01X162484Y581890D02*
X162480D01*
Y585682D01*
X163388Y586590D01*
Y587388D01*
X163500Y587500D01*
G01X166421Y581890D02*
X168390D01*
X169000Y582500D01*
Y588000D01*
X170500Y589500D01*
G01X165050Y601650D02*
Y605050D01*
X166000Y606000D01*
X168500D01*
X169000Y606500D01*
G01D02*
Y601650D01*
G01X174000Y602000D02*
Y599000D01*
X173000Y598000D01*
X166500D01*
X165050Y596550D01*
Y594350D01*
G01X164453Y581890D02*
Y584210D01*
X166500Y586257D01*
Y588743D01*
X164743Y590500D01*
X163000D01*
X161900Y591600D01*
Y594350D01*
G01X158547Y581890D02*
X158550D01*
Y584762D01*
X156403Y586909D01*
Y589426D01*
G01D02*
Y591178D01*
X157000Y591775D01*
Y593500D01*
X157850Y594350D01*
X157950D01*
G01X196500Y128350D02*
Y131000D01*
X195500Y132000D01*
X189000D01*
X184000Y137000D01*
X178500D01*
X177500Y136000D01*
Y134000D01*
G01X182500Y140650D02*
X182350Y140500D01*
X176500D01*
G01X211000Y171500D02*
Y165500D01*
X209750Y164250D01*
X207749D01*
X201869Y158370D01*
X197420D01*
X194550Y155500D01*
X194350D01*
G01X187400Y238000D02*
X184000D01*
X180500Y241500D01*
Y244850D01*
X179000Y246350D01*
X177000D01*
G01D02*
Y251000D01*
G01X187400Y238000D02*
X194500D01*
X195000Y237500D01*
G01X196000Y226850D02*
Y231000D01*
X200500Y235500D01*
Y240000D01*
X203500Y243000D01*
X207000D01*
G01X180000Y255500D02*
X184000Y251500D01*
X196000D01*
X198000Y249500D01*
Y246000D01*
X195000Y243000D01*
G01D02*
X187400D01*
G01Y233000D02*
X195097D01*
X198250Y236153D01*
Y236250D01*
X198500Y236500D01*
Y241000D01*
X200000Y242500D01*
Y251500D01*
X198000Y253500D01*
X192150D01*
X190650Y255000D01*
Y257000D01*
G01X195000Y248000D02*
X187400D01*
G01X197000Y270500D02*
X197350Y270150D01*
G01X219750Y253250D02*
X217150D01*
X216460Y252560D01*
X212452D01*
X211012Y254000D01*
X206257D01*
X204757Y255500D01*
X201500D01*
X200000Y257000D01*
X197350D01*
G01X216520Y282550D02*
X197050D01*
X197000Y282500D01*
G01X216520Y288450D02*
X212550D01*
X211500Y289500D01*
X201500D01*
X200500Y290500D01*
X183500D01*
G01X216520Y302230D02*
X210770D01*
X209500Y303500D01*
X196000D01*
X191500Y299000D01*
G01X218000Y331000D02*
X211500Y337500D01*
Y339000D01*
X194390Y356110D01*
Y364400D01*
G01X218000Y324500D02*
X209500Y333000D01*
Y338000D01*
X190450Y357050D01*
Y364400D01*
G01X182580D02*
X182500Y364320D01*
Y357000D01*
G01X178640Y364400D02*
Y358140D01*
X177500Y357000D01*
G01X186520Y364400D02*
Y356020D01*
X182500Y352000D01*
X177350D01*
G01X233000Y366000D02*
X230500Y368500D01*
Y380500D01*
X223000Y388000D01*
X201000D01*
X196360Y383360D01*
Y376600D01*
G01X233500Y371500D02*
Y372655D01*
X232600Y373555D01*
Y381400D01*
X224000Y390000D01*
X199500D01*
X192420Y382920D01*
Y376600D01*
G01X187100Y399100D02*
X185000Y397000D01*
Y393654D01*
X182246Y390900D01*
X182153D01*
X180250Y388997D01*
Y386303D01*
X180500Y386053D01*
Y381750D01*
X180610Y381640D01*
Y376600D01*
G01X184550D02*
Y384050D01*
X187500Y387000D01*
X187750D01*
X188250Y387500D01*
X191500D01*
G01X267000Y398280D02*
X246280D01*
X245500Y397500D01*
X233600D01*
X232000Y399100D01*
X187100D01*
G01X191500Y387500D02*
X196329Y392329D01*
X224671D01*
X229610Y387390D01*
X236610D01*
G01X183500Y387650D02*
X187500Y391650D01*
Y394700D01*
X190000Y397200D01*
X229799D01*
X232499Y394500D01*
X255499D01*
X260810Y389189D01*
Y386240D01*
X262550Y384500D01*
X267000D01*
G01X190390Y427000D02*
Y422550D01*
X188840Y421000D01*
X180500D01*
X176000Y416500D01*
Y404500D01*
X179249Y401251D01*
Y392751D01*
G01X258677Y461362D02*
Y461360D01*
X254445D01*
X250200Y457115D01*
Y450769D01*
X247031Y447600D01*
X232843D01*
X231243Y446000D01*
X230257D01*
X228000Y443743D01*
Y440500D01*
X231250Y437250D01*
Y420250D01*
X226500Y415500D01*
Y406418D01*
X223282Y403200D01*
X195800D01*
X191500Y407500D01*
Y409500D01*
G01X181500D02*
Y416000D01*
X184000Y418500D01*
X191000D01*
G01D02*
X191500Y418000D01*
Y409500D01*
G01X194709Y473846D02*
Y473850D01*
X190907D01*
X189512Y472455D01*
Y460907D01*
X186200Y457595D01*
Y439200D01*
X184500Y437500D01*
G01X199500Y441150D02*
Y440950D01*
X196630Y438080D01*
Y428270D01*
X197750Y427150D01*
X201000D01*
G01X197500Y459000D02*
Y462000D01*
X203500Y468000D01*
Y475486D01*
X199354Y479632D01*
Y480881D01*
X198593Y481642D01*
X197858D01*
X197780Y481720D01*
X194709D01*
G01X193612Y461130D02*
X201000Y468518D01*
Y475298D01*
X198593Y477705D01*
X194787D01*
X194709Y477783D01*
G01X179748Y464791D02*
X179750D01*
Y471000D01*
G01X177780Y464791D02*
Y459780D01*
X177000Y459000D01*
Y458952D01*
G01X194709Y489594D02*
Y489590D01*
X188090D01*
G01X201000Y487000D02*
X200650Y487350D01*
X199650D01*
X199370Y487630D01*
X194713D01*
X194709Y487626D01*
G01Y499437D02*
X194712Y499440D01*
X199756D01*
X201332Y501016D01*
G01X201000Y495000D02*
X200500Y495500D01*
X194709D01*
G01X200486Y455581D02*
X202608Y457703D01*
X202614D01*
X206775Y461864D01*
Y475018D01*
X208757Y477000D01*
X210989D01*
X211489Y477500D01*
X211490D01*
X213247Y479257D01*
Y481743D01*
X213080Y481910D01*
Y481921D01*
X210500Y484501D01*
Y505999D01*
X201314Y515185D01*
X194709D01*
G01X181717Y526209D02*
X181720D01*
Y520000D01*
G01X245878Y557386D02*
X245900D01*
Y552401D01*
X239999Y546500D01*
X221215D01*
X208531Y533816D01*
X205681D01*
X204465Y532600D01*
X189719D01*
X187700Y530581D01*
Y529581D01*
X187622Y529503D01*
Y526209D01*
G01X245878Y580614D02*
X245900Y580592D01*
Y576399D01*
X240651Y571150D01*
X236150D01*
X234401Y569401D01*
X233597D01*
X230496Y569375D01*
X230321Y569200D01*
X230319D01*
X221995Y560876D01*
Y553310D01*
X211485Y542800D01*
X188558D01*
X186500Y540742D01*
Y538732D01*
X184593Y536825D01*
G01D02*
Y532850D01*
X183900Y532157D01*
Y531157D01*
X183685Y530942D01*
Y526209D01*
G01X177780D02*
Y534601D01*
X180846Y537667D01*
X180853Y537783D01*
X187769Y544700D01*
X210697D01*
X220095Y554098D01*
Y561664D01*
X229700Y571269D01*
X229702D01*
X232803Y571295D01*
X235908Y574400D01*
X238000D01*
G01X208000Y551000D02*
X203600Y546600D01*
X186981D01*
X178996Y538615D01*
X178991Y538527D01*
X177377Y536996D01*
X175810Y535429D01*
Y526210D01*
X175811Y526209D01*
G01X185654D02*
X185655Y526210D01*
Y530224D01*
X185800Y530369D01*
Y531369D01*
X188931Y534500D01*
X203677D01*
X204893Y535716D01*
X207717D01*
X223896Y551895D01*
Y560089D01*
X231107Y567300D01*
X231109D01*
X231283Y567474D01*
X234358D01*
X234385Y567501D01*
X235500D01*
X237249Y569250D01*
X241439D01*
X247189Y575000D01*
X249665D01*
X251020Y576355D01*
Y580590D01*
X250996Y580614D01*
G01X179748Y526209D02*
X179750Y526210D01*
X179680Y526280D01*
Y531180D01*
X180900Y532400D01*
G01X191500Y551500D02*
Y552000D01*
X191980Y552480D01*
Y557386D01*
X192004D01*
G01X197122D02*
X197100D01*
Y550400D01*
X197500Y550000D01*
G01X199642Y557386D02*
X199660Y557404D01*
Y562645D01*
X198805Y563500D01*
X193500D01*
G01X209878Y557386D02*
X209900Y557408D01*
Y561645D01*
X202145Y569400D01*
X190900D01*
X189500Y568000D01*
X187500D01*
X186250Y566750D01*
G01X197122Y580614D02*
X197100D01*
Y585100D01*
X198000Y586000D01*
X218000D01*
X221820Y589820D01*
Y594820D01*
X223500Y596500D01*
X224500D01*
X226000Y598000D01*
Y604000D01*
X229000Y607000D01*
X235000D01*
G01X225500Y151400D02*
Y154000D01*
X223910Y155590D01*
X217590D01*
X216000Y154000D01*
Y151900D01*
G01X206000D02*
Y158000D01*
X209000Y161000D01*
X210000D01*
G01X227500Y158500D02*
X225000D01*
X224500Y159000D01*
X213000D01*
X211000Y157000D01*
Y151900D01*
G01X210000Y161000D02*
X212299Y163299D01*
X227201D01*
X230500Y160000D01*
G01X225500Y171000D02*
Y176000D01*
X223500Y178000D01*
X211000D01*
G01X199300Y188700D02*
X201500Y186500D01*
X210000D01*
X211000Y185500D01*
Y178000D01*
G01D02*
Y171500D01*
G01X218000Y199000D02*
X220500Y196500D01*
X228500D01*
X230000Y195000D01*
Y183500D01*
X236000Y177500D01*
X249500D01*
X251500Y175500D01*
Y172000D01*
G01X199300Y188700D02*
Y199750D01*
G01X202000Y226850D02*
Y231500D01*
X203500Y233000D01*
X207000D01*
G01D02*
X213500D01*
X214000Y233500D01*
X217000D01*
G01X225770Y259520D02*
Y255770D01*
X223500Y253500D01*
Y250500D01*
X222000Y249000D01*
Y246500D01*
X220500Y245000D01*
X218150D01*
X216000Y242850D01*
G01X207000Y243000D02*
X215850D01*
X216000Y242850D01*
G01X207000Y238000D02*
X214500D01*
G01X216520Y266800D02*
X209800D01*
X207500Y264500D01*
G01X216520Y268770D02*
X208760D01*
X205030Y272500D01*
G01X223800Y259520D02*
X220980D01*
X218000Y262500D01*
X212431D01*
X209531Y259600D01*
X209000D01*
X207500Y258100D01*
Y257000D01*
G01X268480Y276640D02*
X261140D01*
X260000Y275500D01*
X244500D01*
X241500Y272500D01*
X236500D01*
X228500Y264500D01*
X211743D01*
X208743Y261500D01*
X206500D01*
X203500Y258500D01*
G01X219000Y248000D02*
X216340Y250660D01*
X211640D01*
X211300Y251000D01*
X204500D01*
X203000Y252500D01*
G01X216520Y272700D02*
X225700D01*
X233000Y280000D01*
X238000D01*
G01X216520Y270740D02*
X211760D01*
X210500Y272000D01*
Y272500D01*
G01X216520Y284520D02*
X211480D01*
X209500Y286500D01*
G01X216520Y274670D02*
X224170D01*
X236000Y286500D01*
X236500D01*
G01X216520Y278610D02*
X222111D01*
X229500Y285999D01*
Y289743D01*
X231257Y291500D01*
X238000D01*
X240000Y293500D01*
Y296500D01*
G01X216520Y280580D02*
X220500D01*
X223701Y283781D01*
Y285201D01*
X226000Y287500D01*
G01X216520Y290420D02*
X220747D01*
X221500Y291173D01*
Y292500D01*
X229000Y300000D01*
X241500D01*
X244500Y297000D01*
Y293500D01*
G01X216520Y276640D02*
X223140D01*
X232500Y286000D01*
Y288500D01*
G01X216520Y286480D02*
X220970D01*
X222806Y288316D01*
Y289306D01*
X228000Y294500D01*
X236500D01*
G01X223800Y311480D02*
X220520D01*
X220500Y311500D01*
X217500D01*
G01X216520Y296330D02*
X211670D01*
X210500Y297500D01*
G01X216520Y298300D02*
X223300D01*
X226000Y301000D01*
Y302801D01*
X225996Y302805D01*
Y305805D01*
G01X216520Y300260D02*
X221260D01*
X222000Y301000D01*
Y306000D01*
G01X216520Y292390D02*
X202110D01*
X198500Y296000D01*
Y300500D01*
G01X216520Y294360D02*
X208640D01*
X202500Y300500D01*
G01X225770Y311480D02*
Y315099D01*
X224869Y316000D01*
X222097D01*
X221847Y315750D01*
X219153D01*
X218903Y316000D01*
X211000D01*
G01X215000Y343000D02*
X202260Y355740D01*
Y364400D01*
G01X198330D02*
Y355170D01*
X211750Y341750D01*
Y341653D01*
X213653Y339750D01*
X213750D01*
X216500Y337000D01*
X218000D01*
G01X231150Y353000D02*
X226500D01*
X222000Y357500D01*
X216500D01*
G01X214070Y364400D02*
Y359930D01*
X216500Y357500D01*
G01X227740Y311480D02*
Y316260D01*
X223500Y320500D01*
Y344248D01*
X216498Y351250D01*
G01X206200Y364400D02*
Y356800D01*
X207250Y355750D01*
Y355653D01*
X209153Y353750D01*
X209250D01*
X221500Y341500D01*
Y322000D01*
X220500Y321000D01*
Y319000D01*
G01X229700Y311480D02*
Y317224D01*
X225500Y321424D01*
Y351000D01*
X222000Y354500D01*
X213000D01*
X210500Y357000D01*
G01D02*
X210000Y357500D01*
Y364260D01*
X210140Y364400D01*
G01X203500Y383000D02*
X204159D01*
X204230Y382929D01*
Y376600D01*
G01X234500Y358500D02*
X228500Y364500D01*
Y379500D01*
X222000Y386000D01*
X202000D01*
X200300Y384300D01*
Y376600D01*
G01X226500Y358500D02*
Y378500D01*
X222000Y383000D01*
X214100D01*
X212100Y381000D01*
Y376600D01*
G01X208500Y383000D02*
X208170Y382670D01*
Y376600D01*
G01X221000Y422000D02*
X218500Y419500D01*
X206757D01*
X204500Y421757D01*
Y433850D01*
G01X201500Y409500D02*
Y417500D01*
X201000Y418000D01*
Y419000D01*
G01D02*
Y427150D01*
G01X221000Y433850D02*
X214500D01*
G01D02*
Y439500D01*
X212000Y442000D01*
G01X201000Y433850D02*
X204500D01*
G01D02*
X208000D01*
G01X204500Y448000D02*
Y451431D01*
X212100Y459031D01*
X216553D01*
G01X235000Y481150D02*
X231349D01*
X230249Y482250D01*
X220600D01*
X217350Y479000D01*
X217150D01*
G01D02*
X216000Y480150D01*
Y482460D01*
X215465Y482995D01*
Y486360D01*
G01X208500Y527016D02*
Y517200D01*
X213700Y512000D01*
X217150D01*
G01X212500Y530500D02*
X211000D01*
X210516Y530016D01*
X207257D01*
X203000Y525759D01*
Y520012D01*
X216512Y506500D01*
X244789D01*
X248039Y503250D01*
X250743D01*
X253050Y500943D01*
Y500040D01*
X254330Y498760D01*
X258677D01*
Y498764D01*
G01X235650Y519500D02*
X232000D01*
X228500Y516000D01*
X218150D01*
X217150Y517000D01*
Y520500D01*
G01X212500Y530500D02*
X217150Y525850D01*
Y520500D01*
G01X202240Y557386D02*
X202220D01*
Y550000D01*
G01X214996Y557386D02*
X215020Y557410D01*
Y563000D01*
G01X235642Y580614D02*
X235660Y580596D01*
Y576840D01*
X232009Y573189D01*
X228908Y573163D01*
X228745Y573000D01*
X228743D01*
X218195Y562452D01*
Y554886D01*
X214309Y551000D01*
X208000D01*
G01X204760Y557386D02*
X204780Y557406D01*
Y561420D01*
X203105Y563095D01*
G01X219500Y537750D02*
X223990Y542240D01*
X230382D01*
G01X204760Y580614D02*
X204780Y580610D01*
X204500Y580330D01*
Y574500D01*
G01X199642Y580614D02*
X199660Y580596D01*
Y576355D01*
X199000Y575695D01*
Y574000D01*
G01X230500Y151400D02*
Y160000D01*
G01X238000Y158500D02*
X236500D01*
X235500Y157500D01*
Y151400D01*
G01Y161750D02*
Y171000D01*
G01X230500Y160000D02*
X234000D01*
X235500Y161500D01*
Y161750D01*
G01D02*
X245250D01*
X246000Y161000D01*
X251500D01*
G01X231500Y214000D02*
X233500Y212000D01*
Y185500D01*
X237350Y181650D01*
X241500D01*
Y181150D01*
G01D02*
X241850Y181500D01*
X251400D01*
G01X239000Y210500D02*
X241000D01*
X242500Y209000D01*
X246000D01*
G01X239000Y210500D02*
X239500Y211000D01*
Y215000D01*
X234500Y220000D01*
Y225000D01*
X231500Y228000D01*
Y240000D01*
X233000Y241500D01*
Y245500D01*
G01X231500Y214000D02*
X232500Y215000D01*
Y222000D01*
X229500Y225000D01*
Y242500D01*
G01X243480Y259520D02*
Y247480D01*
X240500Y244500D01*
Y225000D01*
X239680Y224180D01*
Y219680D01*
G01X231670Y259520D02*
Y249170D01*
X228500Y246000D01*
X227000D01*
G01X229700Y259520D02*
Y250700D01*
X228000Y249000D01*
X225000D01*
X224000Y248000D01*
Y238000D01*
X223500Y237500D01*
G01X241520Y259520D02*
Y248520D01*
X238500Y245500D01*
Y239500D01*
X237500Y238500D01*
G01X235610Y259520D02*
Y255110D01*
X235500Y255000D01*
Y247500D01*
X236500Y246500D01*
Y242000D01*
X233500Y239000D01*
Y231500D01*
X234500Y230500D01*
G01X227740Y259520D02*
Y253240D01*
X226500Y252000D01*
G01X233640Y259520D02*
Y263500D01*
X234640Y264500D01*
X236500D01*
X237580Y263420D01*
Y259520D01*
G01D02*
Y254420D01*
X238500Y253500D01*
G01X239550Y259520D02*
Y263500D01*
X240550Y264500D01*
X248500D01*
X249500Y265500D01*
X250500D01*
G01X268480Y274670D02*
X262670D01*
X261500Y273500D01*
X245500D01*
X242500Y270500D01*
X239000D01*
X238500Y270000D01*
Y267500D01*
G01X268480Y272700D02*
X263700D01*
X262500Y271500D01*
X246500D01*
X242500Y267500D01*
G01X259230Y311480D02*
Y307861D01*
X257869Y306500D01*
X253000D01*
X251000Y304500D01*
Y304431D01*
X250100Y303531D01*
Y299469D01*
X251000Y298569D01*
Y284500D01*
X246000Y279500D01*
X242500D01*
X239500Y276500D01*
X234500D01*
X228500Y270500D01*
X224000D01*
X222500Y269000D01*
Y267500D01*
G01X261200Y311480D02*
Y307030D01*
X258670Y304500D01*
X253757D01*
X252000Y302743D01*
Y300257D01*
X252900Y299357D01*
Y283400D01*
X247000Y277500D01*
X243500D01*
X240500Y274500D01*
X235500D01*
X228500Y267500D01*
X226500D01*
G01X237580Y311480D02*
Y324920D01*
X234500Y328000D01*
G01X239550Y311480D02*
Y331450D01*
X237000Y334000D01*
Y338980D01*
X237020Y339000D01*
Y342250D01*
G01X231670Y311480D02*
Y317942D01*
X227500Y322112D01*
Y346000D01*
X230000Y348500D01*
G01X235610Y311480D02*
Y321890D01*
X234500Y323000D01*
G01X241520Y311480D02*
Y332980D01*
X240270Y334230D01*
Y342870D01*
X241250Y343850D01*
X244500D01*
G01X239241Y377076D02*
X240108Y376209D01*
Y374108D01*
X239400Y373400D01*
Y364099D01*
X243000Y360499D01*
Y350001D01*
X238499Y345500D01*
X234800D01*
X230900Y341600D01*
Y321400D01*
X233640Y318660D01*
Y311480D01*
G01D02*
Y307360D01*
X235500Y305500D01*
X239000D01*
X248000Y296500D01*
Y291500D01*
G01X241500Y409500D02*
Y403000D01*
X240000Y401500D01*
X236500D01*
G01X231500Y409500D02*
Y403000D01*
X233000Y401500D01*
X236500D01*
G01X231500Y409500D02*
Y417812D01*
X233650Y419962D01*
Y437439D01*
X236211Y440000D01*
X248043D01*
X250000Y441957D01*
Y447597D01*
X252100Y449697D01*
Y456327D01*
X255163Y459390D01*
X258677D01*
Y459394D01*
G01X221500Y409500D02*
Y418257D01*
X224000Y420757D01*
Y424450D01*
X221500Y426950D01*
X221000Y427150D01*
G01X228000Y433850D02*
X227850D01*
X227000Y433000D01*
X225500D01*
X224500Y432000D01*
Y429000D01*
X223500Y428000D01*
X221850D01*
X221000Y427150D01*
G01X238000Y435850D02*
X241250D01*
X242600Y434500D01*
X247500D01*
G01X221000Y442000D02*
X225800Y446800D01*
Y457701D01*
X225500Y458001D01*
Y460743D01*
X226500Y461743D01*
Y464743D01*
X228257Y466500D01*
X237653D01*
G01X240945Y455480D02*
X243980D01*
X245000Y456500D01*
G01X258677Y467268D02*
X254079D01*
X247165Y460354D01*
X243888D01*
X243722Y460520D01*
X240945D01*
G01X258677Y465299D02*
X255166D01*
X248300Y458433D01*
Y451557D01*
X246243Y449500D01*
X239831D01*
X237500Y451831D01*
Y454480D01*
X236500Y455480D01*
X234055D01*
G01X222350Y464000D02*
X222550D01*
X227492Y468942D01*
X250214D01*
X250219Y468946D01*
X254443Y473170D01*
X258674D01*
X258677Y473173D01*
G01X222000Y459200D02*
Y458300D01*
X222350Y457950D01*
Y454500D01*
G01X228500Y459500D02*
X229500D01*
X230520Y460520D01*
X234055D01*
G01X229500Y463500D02*
X230500D01*
X230646Y463354D01*
X234055D01*
G01Y458000D02*
X231501D01*
X229500Y455999D01*
Y455000D01*
G01X258677Y471205D02*
X258672Y471200D01*
X255161D01*
X250461Y466500D01*
X237653D01*
G01D02*
Y459866D01*
X239519Y458000D01*
X240945D01*
G01X245000Y452500D02*
X244854Y452646D01*
X240945D01*
G01X258677Y475142D02*
X258635Y475100D01*
X253685D01*
X249427Y470842D01*
X246599D01*
X246441Y471000D01*
X222350D01*
G01X246000Y487850D02*
Y488050D01*
X241846Y492204D01*
X230326D01*
X228890Y493640D01*
X224525D01*
G01X240000Y489000D02*
Y483650D01*
X242500Y481150D01*
X246000D01*
G01X235000Y487850D02*
X238218D01*
X239368Y489000D01*
X240000D01*
G01X224525Y493640D02*
Y498205D01*
G01D02*
Y498575D01*
X223350Y499750D01*
Y503000D01*
G01X258677Y502701D02*
Y502700D01*
X254112D01*
X251662Y505150D01*
X248827D01*
X245577Y508400D01*
X230900D01*
X227300Y512000D01*
X223850D01*
G01X222000Y525250D02*
X223850Y523400D01*
Y520500D01*
G01X240618Y534760D02*
X240620D01*
Y531280D01*
X242350Y529550D01*
Y527500D01*
G01X235650Y519500D02*
Y522750D01*
X236400Y523500D01*
X241600D01*
X242350Y524250D01*
Y527500D01*
G01X228004Y557386D02*
X227980D01*
Y550980D01*
X226500Y549500D01*
G01X233122Y557386D02*
X233100Y557408D01*
Y563900D01*
X232526Y564474D01*
G01X238240Y557386D02*
X238220Y557406D01*
Y561477D01*
X239621Y562878D01*
X241878D01*
X244000Y565000D01*
G01X230524Y557386D02*
X230540D01*
Y549960D01*
X231000Y549500D01*
G01X235642Y557386D02*
X235660Y557404D01*
Y563160D01*
X238000Y565500D01*
G01X240760Y557386D02*
X240780D01*
Y553135D01*
X239515Y551870D01*
X234500D01*
G01X233122Y580614D02*
X233100D01*
Y586800D01*
X235100Y588800D01*
X238040D01*
X241740Y592500D01*
G01X238240Y580614D02*
X238220D01*
Y585720D01*
X240000Y587500D01*
X241973D01*
X245500Y591027D01*
Y595000D01*
X247000Y596500D01*
X248387D01*
X249850Y597963D01*
Y603850D01*
X250558Y604558D01*
X272992D01*
X277180Y600370D01*
G01X240760Y580614D02*
X240780Y580594D01*
Y576730D01*
X238450Y574400D01*
X238000D01*
G01X245680Y600370D02*
X241525Y604525D01*
X241475D01*
X239000Y607000D01*
X235000D01*
G01X259000Y171850D02*
Y175500D01*
X258000Y176500D01*
Y190000D01*
X256500Y191500D01*
X251400D01*
G01Y206500D02*
X248500D01*
X246000Y209000D01*
G01D02*
X248500Y211500D01*
X251400D01*
G01X247420Y259520D02*
Y247080D01*
X255000Y239500D01*
X256500D01*
X264000Y232000D01*
Y226000D01*
X271000Y219000D01*
G01X249390Y259520D02*
Y248110D01*
X253500Y244000D01*
X260650D01*
G01D02*
Y239050D01*
X269200Y230500D01*
G01X245450Y259520D02*
Y237550D01*
X245500Y237500D01*
G01X259230Y259520D02*
Y255230D01*
X256500Y252500D01*
G01X251360Y259520D02*
Y254645D01*
X251350Y254635D01*
Y250365D01*
X251360Y250355D01*
Y249140D01*
X253150Y247350D01*
X258635D01*
X259785Y248500D01*
X266000D01*
G01X261200Y259520D02*
Y263700D01*
X262500Y265000D01*
Y265500D01*
G01X257260Y259520D02*
Y263260D01*
X258500Y264500D01*
Y265500D01*
G01X268480Y268770D02*
X263730D01*
X263000Y269500D01*
X249000D01*
X247000Y267500D01*
G01X253330Y259520D02*
Y253927D01*
X253250Y253847D01*
Y251153D01*
X255153Y249250D01*
X257847D01*
X260097Y251500D01*
X268000D01*
X271500Y248000D01*
X280000D01*
X285500Y253500D01*
X291500D01*
X293000Y252000D01*
Y243000D01*
X299500Y236500D01*
X305500D01*
X307000Y235000D01*
Y230500D01*
X314500Y223000D01*
X319000D01*
X326000Y216000D01*
Y207000D01*
X322650Y203650D01*
X314500D01*
G01X255300Y259520D02*
Y264700D01*
X254500Y265500D01*
G01X268480Y286480D02*
X264000Y286500D01*
X263980Y286480D01*
X261020D01*
X258000Y289500D01*
G01X268480Y288450D02*
X263307D01*
X259500Y292257D01*
Y298000D01*
X260000Y298500D01*
Y301500D01*
G01X268480Y278610D02*
X261890D01*
X255000Y285500D01*
Y301500D01*
G01X268480Y290420D02*
X264580D01*
X262500Y292500D01*
Y293500D01*
G01X245074Y305571D02*
X244929D01*
X243480Y307020D01*
Y311480D01*
G01D02*
Y332980D01*
X244500Y334000D01*
Y337150D01*
G01X245450Y311480D02*
Y325950D01*
X245500Y326000D01*
Y330500D01*
X246500Y331500D01*
G01X247420Y311480D02*
Y324920D01*
X249500Y327000D01*
G01X249390Y311480D02*
Y321890D01*
X250500Y323000D01*
G01X251360Y311480D02*
Y318860D01*
X254000Y321500D01*
Y326500D01*
G01X253330Y311480D02*
Y317830D01*
X257000Y321500D01*
G01X255300Y311480D02*
Y316800D01*
X257000Y318500D01*
X260000D01*
X261000Y319500D01*
Y321500D01*
G01X257260Y311480D02*
Y315760D01*
X258000Y316500D01*
X261500D01*
X265000Y320000D01*
Y321500D01*
G01X268480Y298300D02*
X264200D01*
X263500Y299000D01*
Y314500D01*
X267800Y318800D01*
X273800D01*
X276100Y316500D01*
Y314800D01*
X277250Y313650D01*
X280500D01*
G01X256201Y419055D02*
X259646D01*
G01X259445Y415055D02*
X261257D01*
X262480Y416278D01*
Y419055D01*
G01X252000Y424500D02*
X253500Y423000D01*
X264000D01*
X265000Y424000D01*
Y425945D01*
G01X261000Y406500D02*
X265000Y410500D01*
Y419055D01*
G01X258677Y451520D02*
X255171D01*
X255092Y451441D01*
X255088D01*
X254327Y450680D01*
Y450676D01*
X254000Y450349D01*
Y447000D01*
X253600Y446600D01*
Y446100D01*
G01X266551Y441677D02*
X266139D01*
X264518Y443298D01*
X262032D01*
X261834Y443100D01*
X261757D01*
X260334Y441677D01*
X254871D01*
X254868Y441680D01*
X252788Y439600D01*
Y435488D01*
X251800Y434500D01*
X247500D01*
G01X258677Y449551D02*
X258680Y449548D01*
Y446820D01*
X259400Y446100D01*
G01X258000Y436500D02*
X261041Y433459D01*
X265188D01*
X267156Y435427D01*
X268468D01*
X268641Y435600D01*
X268843D01*
X268943Y435700D01*
X268944D01*
X270488Y437244D01*
Y441677D01*
G01X262480Y425945D02*
Y428062D01*
X263720Y429302D01*
Y429303D01*
X267944Y433527D01*
X269256D01*
X269429Y433700D01*
X269769D01*
X271269Y435200D01*
X272300D01*
X274430Y437330D01*
Y441677D01*
G01X268520D02*
Y438167D01*
X267680Y437327D01*
X264713D01*
X263275Y438765D01*
Y440298D01*
G01X264750Y460000D02*
Y459988D01*
X262192Y457430D01*
X258682D01*
X258677Y457425D01*
G01Y463331D02*
X258678Y463330D01*
X268670D01*
X277000Y455000D01*
G01X258677Y455457D02*
X258680Y455460D01*
X265679D01*
X269389Y451750D01*
X279751D01*
X283000Y454999D01*
Y457501D01*
X292699Y467200D01*
Y511801D01*
X285000Y519500D01*
G01X269000Y478000D02*
Y475209D01*
X263027Y469236D01*
X258677D01*
G01Y453488D02*
X258679Y453490D01*
X262896D01*
X264386Y452000D01*
G01X264550Y478050D02*
X263521Y479079D01*
X258677D01*
G01X265000Y486500D02*
X263899D01*
X262383Y484984D01*
X258677D01*
G01Y490890D02*
X252860D01*
X251500Y492250D01*
X251000D01*
G01X258677Y477110D02*
X251110D01*
X247842Y473842D01*
G01X258677Y481047D02*
X263304D01*
X263307Y481050D01*
X268738D01*
X274588Y486900D01*
X283000D01*
X285000Y488900D01*
Y494065D01*
G01X252850Y480250D02*
X253647Y481047D01*
X258677D01*
G01Y488921D02*
Y488920D01*
X250320D01*
X249250Y487850D01*
X246000D01*
G01X258677Y486953D02*
X251603D01*
X246000Y481350D01*
Y481150D01*
G01X258677Y483016D02*
X263027D01*
X263095Y483084D01*
X263171D01*
X263587Y483500D01*
X268500D01*
X275293Y490293D01*
X279931D01*
G01X258677Y500732D02*
X258679Y500730D01*
X262500D01*
X264500Y498730D01*
Y498500D01*
G01X258677Y496795D02*
X258682Y496800D01*
X262800D01*
X264500Y498500D01*
G01X258677Y492858D02*
X258679Y492860D01*
X263361D01*
X267688Y497187D01*
X286000D01*
X286122Y497065D01*
X286243D01*
X288000Y495308D01*
Y475097D01*
X283500Y470597D01*
Y463408D01*
G01X258677Y494827D02*
Y494830D01*
X254330D01*
X251622Y497538D01*
Y498128D01*
X249500Y500250D01*
G01X258677Y504669D02*
Y504670D01*
X254830D01*
X252000Y507500D01*
X251250D01*
X250500Y508250D01*
G01X258677Y512543D02*
X258680Y512540D01*
X262540D01*
X263378Y513378D01*
Y514378D01*
X265500Y516500D01*
G01X258677Y510575D02*
X258682Y510570D01*
X268070D01*
X270000Y512500D01*
Y516500D01*
G01X288500Y471000D02*
X290799Y473299D01*
Y499202D01*
X281391Y508610D01*
X258681D01*
X258677Y508606D01*
G01X266551Y526323D02*
X266550D01*
Y530707D01*
X262757Y534500D01*
X258000D01*
G01X258677Y518449D02*
Y518450D01*
X251259D01*
X247500Y522209D01*
Y529000D01*
G01X268520Y526323D02*
Y521970D01*
X267350Y520800D01*
X256100D01*
X252500Y524400D01*
Y529000D01*
G01X258000Y546850D02*
Y550300D01*
X257000Y551300D01*
Y557243D01*
X260325Y560568D01*
X275013D01*
X276500Y562055D01*
Y565055D01*
G01X248476Y557386D02*
X248460Y557402D01*
Y562529D01*
X249000Y563069D01*
Y565703D01*
X251797Y568500D01*
X259429D01*
X261430Y570501D01*
Y581930D01*
X265500Y586000D01*
G01X243358Y557386D02*
X243340Y557404D01*
Y561597D01*
X243743Y562000D01*
X245243D01*
X247000Y563757D01*
Y568000D01*
X246985Y568015D01*
Y569485D01*
X248500Y571000D01*
G01X248476Y580614D02*
X248460D01*
Y584865D01*
X249378Y585783D01*
X253531D01*
G01X243358Y580614D02*
X243340D01*
Y585500D01*
X245840Y588000D01*
X250353D01*
X253550Y591197D01*
Y600370D01*
G01X265500Y586000D02*
X261430Y590070D01*
Y600370D01*
G01X289800Y101500D02*
X282500D01*
G01Y105500D02*
Y109500D01*
G01Y97500D02*
Y93500D01*
G01X271000Y181500D02*
Y176000D01*
X272000Y175000D01*
G01X271150Y167500D02*
X272000Y168350D01*
Y175000D01*
G01X285398Y177263D02*
X289737D01*
X294500Y172500D01*
Y164597D01*
X294750Y164347D01*
Y161153D01*
X292847Y159250D01*
X291250D01*
X288500Y156500D01*
X288350D01*
G01X277800Y226750D02*
X281000D01*
X282500Y228250D01*
Y231000D01*
X283500Y232000D01*
X293000D01*
X298550Y226450D01*
Y159350D01*
X298500Y159300D01*
Y155850D01*
G01X268480Y270740D02*
X281760D01*
X285000Y267500D01*
X304500D01*
X310000Y262000D01*
X323835D01*
X324094Y262259D01*
X327094D01*
G01X268480Y266800D02*
Y262980D01*
X265000Y259500D01*
G01X343000Y218500D02*
X338000Y223500D01*
X328000D01*
X322000Y229500D01*
X317000D01*
X313000Y233500D01*
Y238000D01*
X308500Y242500D01*
X302500D01*
X299000Y246000D01*
Y255000D01*
X294500Y259500D01*
X282500D01*
X279500Y256500D01*
X274500D01*
X272500Y254500D01*
X267000D01*
G01X333000Y218500D02*
X329500D01*
X320500Y227500D01*
X316000D01*
X311000Y232500D01*
Y237000D01*
X307500Y240500D01*
X301500D01*
X297000Y245000D01*
Y254000D01*
X293500Y257500D01*
X283500D01*
X280500Y254500D01*
X275500D01*
X273000Y252000D01*
Y251000D01*
G01X280500Y267500D02*
X281500D01*
X283500Y265500D01*
X302500D01*
X317000Y251000D01*
Y245000D01*
G01X343000Y228500D02*
X338000Y233500D01*
X319500D01*
X317000Y236000D01*
Y240000D01*
X313000Y244000D01*
Y252000D01*
X301500Y263500D01*
X282000D01*
X281500Y264000D01*
X275000D01*
X271000Y260000D01*
Y257500D01*
G01X278000Y251500D02*
X280500D01*
X284500Y255500D01*
X292500D01*
X295000Y253000D01*
Y244000D01*
X300500Y238500D01*
X306500D01*
X309000Y236000D01*
Y231500D01*
X315000Y225500D01*
X319500D01*
X328000Y217000D01*
Y213500D01*
X333000Y208500D01*
G01X279000Y261000D02*
X279500Y261500D01*
X300500D01*
X311000Y251000D01*
Y243000D01*
X315000Y239000D01*
Y234500D01*
X318000Y231500D01*
X325000D01*
X328000Y228500D01*
X333000D01*
G01X283500Y285200D02*
X290200D01*
X291000Y286000D01*
G01X268480Y284520D02*
X273020D01*
X278400Y289900D01*
X283500D01*
G01X268480Y282550D02*
X274050D01*
X276100Y280500D01*
X283500D01*
G01X302000Y289000D02*
X300500Y287500D01*
X298000D01*
X296000Y285500D01*
Y275000D01*
X290500Y269500D01*
X286000D01*
X281000Y274500D01*
X279000D01*
X272920Y280580D01*
X268480D01*
G01X286500Y295000D02*
X288625D01*
X290900Y297275D01*
Y306213D01*
X296000Y311313D01*
Y318000D01*
G01X268480Y302230D02*
X272299D01*
X273569Y303500D01*
X280500D01*
G01X268480Y296330D02*
X272330D01*
X273500Y297500D01*
X274500D01*
X274842Y297842D01*
G01X279988Y294988D02*
X276738D01*
X276592Y294842D01*
X274599D01*
X274117Y294360D01*
X268480D01*
G01Y300260D02*
X273017D01*
X273757Y301000D01*
X278757D01*
X279257Y300500D01*
X281903D01*
X284403Y298000D01*
X287097D01*
X289000Y299903D01*
Y307001D01*
X294000Y312001D01*
Y315757D01*
X293000Y316757D01*
Y326501D01*
X293500Y327001D01*
Y343500D01*
X288750Y348250D01*
G01X268480Y304200D02*
X271030D01*
X273330Y306500D01*
X283750D01*
X285750Y304500D01*
Y301250D01*
G01X268480Y292390D02*
X274610D01*
X275500Y291500D01*
G01X282500Y332000D02*
X279650Y329150D01*
X275500D01*
G01X286500Y415002D02*
Y414757D01*
X289257Y412000D01*
X291758D01*
X300258Y403500D01*
X307500D01*
X308480Y404480D01*
Y410173D01*
G01X286500Y415002D02*
Y415727D01*
X288480Y417707D01*
Y419555D01*
G01X285646D02*
X282555D01*
X282500Y419500D01*
X282201D01*
G01X313520Y381827D02*
Y384582D01*
X311320Y386782D01*
Y392179D01*
X306999Y396500D01*
X303501D01*
X289901Y410100D01*
X287159D01*
X283500Y413759D01*
Y416245D01*
X282745Y417000D01*
X282201D01*
Y419500D01*
G01X269500Y407500D02*
Y413000D01*
X267520Y414980D01*
Y419055D01*
G01X280331Y441677D02*
X280330Y441678D01*
Y445830D01*
X282500Y448000D01*
G01X286236Y441677D02*
X286240Y441681D01*
Y447310D01*
X286930Y448000D01*
G01X284268Y441677D02*
X284270D01*
Y435690D01*
X284000Y435420D01*
Y434500D01*
G01D02*
Y434429D01*
X288480Y429949D01*
Y426445D01*
G01X273300Y430300D02*
X272900Y429900D01*
X271005D01*
X270832Y429727D01*
X269520D01*
X267520Y427727D01*
Y425945D01*
G01X270354D02*
X273799D01*
G01X282299Y441677D02*
X282300D01*
Y437300D01*
X281010Y436010D01*
X279991D01*
G01X265000Y425945D02*
Y427894D01*
X265620Y428514D01*
Y428515D01*
X268732Y431627D01*
X270044D01*
X270217Y431800D01*
X270557D01*
X272057Y433300D01*
X273088D01*
X276331Y436543D01*
Y436831D01*
X276390Y436890D01*
Y437323D01*
X276394Y437327D01*
Y441677D01*
G01X274425D02*
X274430D01*
G01D02*
Y441680D01*
X274490Y441740D01*
Y445259D01*
X277231Y448000D01*
X278000D01*
G01X272457Y441677D02*
X272460Y441680D01*
Y446960D01*
X272699Y447199D01*
Y447712D01*
G01X284268Y526323D02*
X284270D01*
Y531339D01*
X284400Y531469D01*
Y535900D01*
X286000Y537500D01*
Y552500D01*
G01X282299Y526323D02*
X282300D01*
Y532057D01*
X282500Y532257D01*
Y544500D01*
X282506Y544506D01*
Y547506D01*
G01X280331Y526323D02*
X280330D01*
Y532170D01*
X279500Y533000D01*
Y533500D01*
G01D02*
Y546350D01*
X279000Y546850D01*
G01X284283Y558716D02*
X281984Y556417D01*
X281417D01*
X277000Y552000D01*
X273711D01*
X271250Y549539D01*
Y534493D01*
X271540Y534203D01*
Y534097D01*
X273297Y532340D01*
X275856D01*
X278284Y529912D01*
Y529717D01*
X278362Y529639D01*
Y526323D01*
G01X286236D02*
X286240D01*
Y530670D01*
X287377Y531807D01*
Y534123D01*
X287500Y534246D01*
G01X270488Y526323D02*
X270490D01*
Y531010D01*
X269000Y532500D01*
G01X283480Y565055D02*
Y563223D01*
X278379Y558122D01*
X278122D01*
X276000Y556000D01*
G01X271350D02*
X276000D01*
G01X286000Y565055D02*
Y561597D01*
X287750Y559847D01*
Y557153D01*
X286097Y555500D01*
X284757D01*
X279000Y549743D01*
Y546850D01*
G01D02*
X274500D01*
G01X283150Y580500D02*
Y578000D01*
X284150Y577000D01*
X290000D01*
X290650Y576350D01*
Y576050D01*
G01X278000Y582500D02*
Y577500D01*
X280778Y574722D01*
X284649D01*
X286000Y573371D01*
Y571945D01*
G01X278000Y582500D02*
X276000Y580500D01*
X272850D01*
G01X283480Y571945D02*
Y569980D01*
X282000Y568500D01*
X278729D01*
X278534Y568305D01*
X274355D01*
X271550Y565500D01*
X271350D01*
G01D02*
Y570600D01*
G01X276500Y565055D02*
X280646D01*
G01X307000Y225000D02*
X300500Y218500D01*
Y164500D01*
X302500Y162500D01*
X310500D01*
X313000Y160000D01*
Y157500D01*
X315000Y155500D01*
X324499D01*
X329500Y150499D01*
Y141501D01*
X335500Y135501D01*
Y63000D01*
X328000Y55500D01*
X312500D01*
X310500Y53500D01*
X306050D01*
X305850Y53700D01*
G01X302000Y93500D02*
Y98000D01*
X301500Y98500D01*
Y101500D01*
G01X291500Y228500D02*
X296650Y223350D01*
Y160365D01*
X293500Y157215D01*
Y141000D01*
X298150Y136350D01*
X311000D01*
G01X289000Y239500D02*
X293500D01*
X299500Y233500D01*
X304000D01*
G01X312500Y310650D02*
Y298500D01*
X311122Y297122D01*
Y285722D01*
X307500Y282100D01*
G01X299250Y282500D02*
X302757D01*
X306157Y279100D01*
X320600D01*
X322000Y280500D01*
X347000D01*
X349500Y278000D01*
Y275500D01*
G01X290692Y281692D02*
X292692D01*
X294000Y283000D01*
Y294999D01*
X296650Y297649D01*
Y306151D01*
X299500Y309001D01*
Y309437D01*
X299800Y309737D01*
Y314869D01*
X300900Y315969D01*
Y330762D01*
X299500Y332162D01*
Y341770D01*
X303689Y345959D01*
G01X290753Y290000D02*
Y294440D01*
X292895Y296582D01*
Y299128D01*
X292801Y299222D01*
Y301222D01*
X292800Y301223D01*
Y305425D01*
X297900Y310525D01*
Y315657D01*
X299000Y316757D01*
Y320999D01*
X296878Y323121D01*
Y346378D01*
X299000Y348500D01*
G01X297300Y353250D02*
X301377D01*
X312550Y342077D01*
Y331987D01*
X307613Y327050D01*
G01D02*
Y322420D01*
X309613Y320420D01*
X309630D01*
X312500Y317550D01*
Y317350D01*
G01X287850Y367000D02*
Y357850D01*
X288700Y357000D01*
G01X288750Y348250D02*
Y351500D01*
X288700Y351550D01*
G01D02*
Y357000D01*
G01X293500Y367878D02*
X291378Y370000D01*
Y370072D01*
X290450Y371000D01*
X288500D01*
X287500Y372000D01*
Y374150D01*
G01X303999Y389000D02*
X303520Y388521D01*
Y381827D01*
G01X304000Y393500D02*
X308480Y389020D01*
Y381827D01*
G01X318480Y410173D02*
Y407418D01*
X316280Y405218D01*
Y402638D01*
X314142Y400500D01*
X305500D01*
G01X302316Y416815D02*
X300000Y419131D01*
Y421500D01*
X298500Y423000D01*
X294856D01*
X293520Y424336D01*
Y426445D01*
G01X313520Y410173D02*
Y414980D01*
X312500Y416000D01*
X307257D01*
X305500Y417757D01*
Y417816D01*
X305316Y418000D01*
Y418058D01*
X302000Y421374D01*
Y423044D01*
X298599Y426445D01*
X296354D01*
G01X294500Y414500D02*
X293520Y415480D01*
Y419555D01*
G01X290500Y415000D02*
X291000Y415500D01*
Y419555D01*
G01X301984Y441677D02*
X301980Y441681D01*
Y447500D01*
G01X290173Y441677D02*
X290170D01*
Y436745D01*
X291748Y435167D01*
Y433612D01*
X293520Y431840D01*
Y426445D01*
G01X288205Y441677D02*
X288200D01*
Y434702D01*
X288085Y434587D01*
G01X291000Y426445D02*
Y431672D01*
X288085Y434587D01*
G01X300016Y441677D02*
X300020D01*
Y437362D01*
X300982Y436400D01*
Y433166D01*
G01X303953Y441677D02*
X303950D01*
Y437330D01*
X304000Y437280D01*
Y435764D01*
X304133Y435631D01*
G01X292142Y441677D02*
X292140D01*
Y437463D01*
X293648Y435955D01*
Y434899D01*
X296354Y432193D01*
Y426445D01*
G01X307890Y441677D02*
Y447610D01*
X306000Y449500D01*
G01X310000Y435500D02*
X309500Y436000D01*
X308007D01*
X305920Y438087D01*
Y441676D01*
X305921Y441677D01*
G01X298047D02*
X298050D01*
Y436050D01*
X297694Y435694D01*
Y435445D01*
G01X288750Y458250D02*
X295000Y464500D01*
Y514000D01*
X296080Y515080D01*
Y526322D01*
X296079Y526323D01*
G01X295000Y454500D02*
X297122Y456622D01*
Y513434D01*
X297980Y514292D01*
Y521906D01*
X298047Y521973D01*
Y526323D01*
G01X315764Y441677D02*
X315760Y441681D01*
Y448338D01*
X306747Y457351D01*
X306746D01*
X304746Y459351D01*
Y465777D01*
G01X321669Y441677D02*
X321670Y441678D01*
Y448830D01*
X314000Y456500D01*
Y466500D01*
X306250Y474250D01*
G01X306000Y494000D02*
X308122Y496122D01*
X324377D01*
X325749Y494750D01*
X338896D01*
X338973Y494827D01*
X343323D01*
G01X302500Y500500D02*
X307500Y505500D01*
X320000D01*
G01X335000Y513659D02*
X331341Y510000D01*
X307757D01*
X299400Y501643D01*
Y497600D01*
X301500Y495500D01*
G01X313795Y526323D02*
X313800Y526318D01*
Y518000D01*
X311678Y515878D01*
X305622D01*
X302000Y519500D01*
G01X303953Y526323D02*
X303950D01*
Y531450D01*
X308242Y535742D01*
Y550742D01*
X309000Y551500D01*
G01X301984Y526323D02*
X301980D01*
Y532168D01*
X305000Y535188D01*
Y551500D01*
G01X292142Y526323D02*
X292140D01*
Y531194D01*
X296500Y535554D01*
Y558500D01*
G01X288205Y526323D02*
X288200D01*
Y529942D01*
X294250Y535992D01*
Y556250D01*
X292000Y558500D01*
G01X290173Y526323D02*
X290170Y526320D01*
Y519330D01*
X290500Y519000D01*
G01X307890Y526323D02*
Y530390D01*
X310500Y533000D01*
G01X294110Y526323D02*
Y530476D01*
X295634Y532000D01*
X298500D01*
G01X308650Y556500D02*
X303500D01*
X300500Y559500D01*
G01X308650Y563500D02*
X305000D01*
X302500Y566000D01*
G01D02*
X298500Y570000D01*
X297257D01*
X295312Y571945D01*
X291354D01*
G01X288520D02*
Y573898D01*
X290650Y576028D01*
Y576050D01*
G01X288520Y565055D02*
X288500Y565035D01*
Y562278D01*
X289278Y561500D01*
X298500D01*
X300500Y559500D01*
G01X311150Y136200D02*
X311000Y136350D01*
G01X322000Y238650D02*
X323500D01*
X325000Y237150D01*
X331650D01*
X333000Y238500D01*
G01X322000Y245350D02*
X322150Y245500D01*
X326500D01*
G01X322000Y251650D02*
X322150Y251500D01*
X327000D01*
X329000Y253500D01*
X338000D01*
X343000Y248500D01*
G01X316500Y258350D02*
X322000D01*
G01X313000Y274350D02*
X319000D01*
G01D02*
X321650Y277000D01*
X324500D01*
G01X325453Y304547D02*
X330000Y309094D01*
Y320200D01*
G01X324000Y320500D02*
Y317500D01*
X323000Y316500D01*
Y313500D01*
X324200Y312300D01*
X326300D01*
G01X330000Y320200D02*
X338900D01*
X339250Y319850D01*
X342500D01*
G01X331350Y417000D02*
Y414600D01*
X330250Y413500D01*
X325911D01*
X323400Y410989D01*
Y404211D01*
X322500Y403311D01*
Y401500D01*
G01X329750Y400000D02*
X328500D01*
X328000Y399500D01*
X324743D01*
X322743Y397500D01*
X322000D01*
G01X329750Y395000D02*
X332850D01*
X337000Y399150D01*
Y403962D01*
X341450Y408412D01*
Y408449D01*
X342500Y409499D01*
Y410500D01*
X344500Y412500D01*
X353400D01*
X354650Y413750D01*
Y417000D01*
G01X317500Y397000D02*
Y400999D01*
X321500Y404999D01*
Y414050D01*
X324450Y417000D01*
X324650D01*
G01X329750Y405000D02*
X335350D01*
X339550Y409200D01*
Y412243D01*
X339285Y412508D01*
Y413115D01*
X338650Y413750D01*
Y417000D01*
G01X323638Y441677D02*
X323640D01*
Y436860D01*
X324500Y436000D01*
G01X309858Y441677D02*
X309860Y441679D01*
Y445972D01*
X310888Y447000D01*
Y447227D01*
X311581Y447920D01*
G01X327575Y441677D02*
Y437425D01*
X329250Y435750D01*
G01X319701Y441677D02*
X319700D01*
Y436200D01*
X319450Y435950D01*
G01X329543Y441677D02*
X329540Y441680D01*
Y446030D01*
X317749Y457821D01*
Y465770D01*
G01X317732Y441677D02*
X317730Y441679D01*
Y449770D01*
X310566Y456934D01*
Y465040D01*
G01X343323Y449551D02*
X343322Y449550D01*
X337836D01*
X337087Y448801D01*
X333025D01*
X324000Y457826D01*
Y467000D01*
G01X343323Y451520D02*
X337118D01*
X336299Y450701D01*
X333813D01*
X327500Y457014D01*
Y470500D01*
X325000Y473000D01*
G01X335056Y453701D02*
X330500Y458257D01*
Y463000D01*
G01X336733Y457793D02*
Y461267D01*
X330500Y467500D01*
G01X337953Y436750D02*
Y444656D01*
X335708Y446901D01*
X332237D01*
X320749Y458389D01*
Y472251D01*
X317500Y475500D01*
G01X343323Y473173D02*
X343320Y473170D01*
X334170D01*
X333500Y472500D01*
X330500D01*
G01X343323Y475142D02*
X343321Y475140D01*
X336860D01*
X334500Y477500D01*
X327500D01*
G01X343323Y477110D02*
X338970D01*
X334580Y481500D01*
X323000D01*
G01X343323Y484984D02*
X343319Y484980D01*
X338970D01*
X338950Y485000D01*
X318000D01*
G01X343323Y488921D02*
X343322Y488920D01*
X338970D01*
X338890Y489000D01*
X314000D01*
G01X329543Y526323D02*
X329540Y526320D01*
Y517540D01*
X329000Y517000D01*
Y514000D01*
G01X325606Y526323D02*
X325610Y526319D01*
Y518110D01*
X324500Y517000D01*
Y514000D01*
G01X310500Y492500D02*
X339451D01*
X339811Y492860D01*
X343321D01*
X343323Y492858D01*
G01Y504669D02*
X343322Y504670D01*
X338970D01*
X338947Y504693D01*
X324057D01*
X323250Y505500D01*
X320000D01*
G01X328000Y498000D02*
X328500D01*
X329707Y496793D01*
X339724D01*
X339731Y496800D01*
X343323D01*
G01X323638Y526323D02*
X323640Y526321D01*
Y519140D01*
X321500Y517000D01*
G01X321669Y526323D02*
X321670Y526322D01*
Y521669D01*
X319670Y519669D01*
X317747D01*
G01X327575Y526323D02*
X327566Y526325D01*
X327510Y526381D01*
Y530490D01*
X325500Y532500D01*
G01X311827Y526323D02*
X311830Y526320D01*
Y520330D01*
X311500Y520000D01*
X310500D01*
G01X327000Y540150D02*
Y538243D01*
X322500Y533743D01*
Y533152D01*
X319700Y530352D01*
Y526323D01*
X319701D01*
G01X331512D02*
X331510D01*
Y530670D01*
X330450Y531730D01*
Y532500D01*
G01X315459Y533042D02*
X315760Y532741D01*
Y526323D01*
X315764D01*
G01X323000Y551500D02*
Y537188D01*
X320500Y534688D01*
Y533840D01*
X317730Y531070D01*
Y526323D01*
X317732D01*
G01X353150Y212500D02*
X350000D01*
X349000Y213500D01*
X338000D01*
X333000Y218500D01*
G01X353150Y206500D02*
Y203150D01*
X352000Y202000D01*
X339500D01*
X333000Y208500D01*
G01X353150Y233500D02*
X348000D01*
X343000Y228500D01*
G01X342500Y313150D02*
X337550D01*
X336700Y312300D01*
X333700D01*
G01X338000Y307000D02*
X335000D01*
X333700Y308300D01*
Y312300D01*
G01X342500Y313150D02*
X344650D01*
X348000Y316500D01*
G01X352700Y327700D02*
Y332550D01*
X354650Y334500D01*
G01X348500Y337000D02*
X351000Y334500D01*
X354650D01*
G01X350250Y400000D02*
X343450D01*
G01X350250Y395000D02*
X344000D01*
X343500Y395500D01*
X343450D01*
G01X350250Y405000D02*
X355050D01*
X357050Y403000D01*
Y401500D01*
G01X340100Y427500D02*
Y421804D01*
X341654Y420250D01*
X359250D01*
X363250Y424250D01*
G01X343501Y423500D02*
X345499D01*
X346599Y422400D01*
X355000D01*
X357100Y424500D01*
Y428850D01*
G01X353950D02*
Y425700D01*
X352976Y424726D01*
X347781D01*
X344403Y428104D01*
Y429597D01*
X341000Y433000D01*
G01X354000Y446500D02*
X355000D01*
X355650Y447150D01*
Y451496D01*
X355654Y451500D01*
G01X357100Y436150D02*
Y439300D01*
X354000Y442400D01*
Y446500D01*
G01X335500Y430350D02*
Y435300D01*
X336950Y436750D01*
X337953D01*
G01X353950Y436150D02*
Y432950D01*
X353500Y432500D01*
X346097D01*
X341847Y436750D01*
X337953D01*
G01X343323Y467268D02*
X343321Y467270D01*
X337500D01*
G01X343323Y453488D02*
Y453490D01*
X347727D01*
X350000Y451217D01*
Y451000D01*
G01X343323Y455457D02*
Y455460D01*
X349960D01*
X350000Y455500D01*
G01X343323Y469236D02*
Y469240D01*
X349760D01*
X350000Y469000D01*
G01X343323Y457425D02*
Y457430D01*
X347687D01*
X348757Y458500D01*
X355650D01*
G01X343323Y486953D02*
Y486950D01*
X349050D01*
X350000Y486000D01*
G01X343323Y490890D02*
X348890D01*
X349500Y491500D01*
G01X343323Y483016D02*
Y483020D01*
X348000D01*
X349862Y481158D01*
X350165D01*
G01X343323Y479079D02*
Y479080D01*
X347920D01*
X350000Y477000D01*
Y475000D01*
G01X355650Y472500D02*
X353000D01*
X350500Y475000D01*
X350000D01*
G01X343323Y506638D02*
X343321Y506640D01*
X338053D01*
X337000Y507693D01*
G01X350434Y503631D02*
X347673Y506392D01*
Y507767D01*
X346912Y508528D01*
X346911D01*
X346833Y508606D01*
X343323D01*
G01X350663Y508013D02*
X350502Y508174D01*
Y508289D01*
X348221Y510570D01*
X343323D01*
Y510575D01*
G01Y512543D02*
Y512540D01*
X347540D01*
X349000Y514000D01*
G01X343323Y514512D02*
X343321Y514510D01*
X338752D01*
X336500Y516762D01*
Y521188D01*
X338991Y523679D01*
X340103D01*
X341975Y525551D01*
Y533347D01*
X339292Y536030D01*
Y538792D01*
X341000Y540500D01*
X344000D01*
X345480Y541980D01*
Y543945D01*
G01X343323Y516480D02*
X347237D01*
X347757Y517000D01*
X350243D01*
X352000Y515243D01*
Y511150D01*
X355650Y507500D01*
G01X343323Y502701D02*
Y502700D01*
X347023D01*
X350601Y499122D01*
G01X343323Y500732D02*
X343321Y500730D01*
X339481D01*
X338711Y501500D01*
X337990D01*
X337797Y501693D01*
G01X343323Y498764D02*
X343319Y498760D01*
X338970D01*
X338903Y498693D01*
X334367D01*
X333265Y499795D01*
G01X343323Y496795D02*
Y496800D01*
G01D02*
X348700D01*
X352000Y493500D01*
X355650D01*
G01X342646Y537055D02*
X343000Y536701D01*
Y535010D01*
X343875Y534135D01*
Y524763D01*
X338946Y519834D01*
Y517004D01*
X339470Y516480D01*
X343323D01*
G01Y518449D02*
X343320Y518452D01*
Y519610D01*
X345500Y521790D01*
G01D02*
Y522381D01*
X345800Y522681D01*
Y523300D01*
X346000Y523500D01*
Y534698D01*
X345480Y535218D01*
Y537055D01*
G01X345500Y521790D02*
X347799Y519491D01*
X350459D01*
X355450Y514500D01*
X355650D01*
G01X350520Y537055D02*
Y533565D01*
X351000Y533085D01*
Y533000D01*
G01D02*
X354400D01*
X355650Y531750D01*
Y528500D01*
G01X333480Y526323D02*
Y530670D01*
X334810Y532000D01*
X338725D01*
G01X335449Y526323D02*
X335452Y526320D01*
X337520D01*
X337700Y526500D01*
X338681D01*
X338860Y526679D01*
G01X355650Y521500D02*
X352500D01*
X350750Y523250D01*
Y527375D01*
G01D02*
X348000Y530125D01*
Y537055D01*
G01X359499Y542500D02*
X357445D01*
X356000Y543945D01*
X353354D01*
G01X355000Y556650D02*
Y553000D01*
X353500Y551500D01*
Y550500D01*
G01D02*
X350520Y547520D01*
Y543945D01*
G01X348000Y550500D02*
Y554500D01*
X345850Y556650D01*
X341000D01*
G01X348000Y550500D02*
Y543945D01*
G01X345480D02*
Y546715D01*
X342097Y550098D01*
G01D02*
X339975Y552220D01*
X338230D01*
X334000Y556450D01*
Y556650D01*
G01X361500Y170500D02*
Y46000D01*
X358000Y42500D01*
Y40150D01*
X358150Y40000D01*
G01X360350Y313500D02*
Y311250D01*
X360378Y311222D01*
Y310122D01*
X362500Y308000D01*
G01X361300Y323950D02*
Y318700D01*
X360350Y317750D01*
Y313500D01*
G01X361350Y334500D02*
X367000D01*
G01X363250Y424250D02*
X363050D01*
X361050Y426250D01*
Y428850D01*
G01X359500Y444500D02*
Y441500D01*
X361050Y439950D01*
Y436150D01*
G01X355650Y458500D02*
Y454379D01*
X355654Y454375D01*
Y451500D01*
G01X362000Y556650D02*
Y548251D01*
X359499Y545750D01*
Y542500D01*
G54D61*
X133291Y471878D03*
Y473846D03*
Y475815D03*
Y477783D03*
Y479752D03*
Y481720D03*
Y483689D03*
Y485657D03*
Y487626D03*
Y489594D03*
Y491563D03*
Y493531D03*
Y495500D03*
Y497469D03*
Y499437D03*
Y501406D03*
Y503374D03*
Y505343D03*
Y507311D03*
Y509280D03*
Y511248D03*
Y513217D03*
Y515185D03*
Y517154D03*
Y519122D03*
X194709Y491563D03*
Y489594D03*
Y487626D03*
Y485657D03*
Y483689D03*
Y481720D03*
Y479752D03*
Y477783D03*
Y475815D03*
Y473846D03*
Y471878D03*
Y513217D03*
Y511248D03*
Y509280D03*
Y507311D03*
Y505343D03*
Y503374D03*
Y501406D03*
Y499437D03*
Y497469D03*
Y495500D03*
Y493531D03*
Y519122D03*
Y517154D03*
Y515185D03*
G54D70*
X161840Y260340D03*
X159280D03*
X156720D03*
X154160D03*
Y270660D03*
X156720D03*
X159280D03*
X161840D03*
G54D25*
X14654Y559000D03*
X21346D03*
X362346Y451500D03*
X355654D03*
G54D16*
X10000Y217350D03*
Y210650D03*
X13500Y531350D03*
Y524650D03*
X20500Y531350D03*
Y524650D03*
X36500Y262850D03*
Y256150D03*
X23000Y373850D03*
Y367150D03*
X86500Y182650D03*
Y189350D03*
X75500Y378350D03*
Y371650D03*
Y385650D03*
Y392350D03*
X87500Y511650D03*
Y518350D03*
X87000Y568850D03*
Y562150D03*
X93500Y182650D03*
Y189350D03*
X129000Y264150D03*
X122000D03*
X129000Y270850D03*
X111500Y288150D03*
X122000Y270850D03*
X111500Y294850D03*
X130500Y312850D03*
Y306150D03*
X110500Y394150D03*
Y400850D03*
X120500Y398650D03*
Y405350D03*
X113500Y537350D03*
Y530650D03*
Y558650D03*
Y551350D03*
Y544650D03*
Y565350D03*
X151500Y56350D03*
Y49650D03*
X154500Y104350D03*
Y97650D03*
X152500Y211650D03*
Y218350D03*
X153000Y242650D03*
X136000Y264150D03*
X153000Y249350D03*
X148500Y270350D03*
Y263650D03*
X136000Y270850D03*
X143000Y538150D03*
Y544850D03*
X159000Y88350D03*
Y81650D03*
X169000Y131150D03*
Y137850D03*
X164500Y211650D03*
Y218350D03*
X170500Y211650D03*
Y218350D03*
X158500Y211650D03*
Y218350D03*
X165000Y242650D03*
X171000D03*
X159000D03*
X165000Y249350D03*
X171000D03*
X159000D03*
X168500Y446650D03*
X175500D03*
X168500Y453350D03*
X175500D03*
X177500Y129350D03*
Y122650D03*
X184000D03*
Y129350D03*
X190500Y121650D03*
Y128350D03*
X196500Y121650D03*
Y128350D03*
X182500Y140650D03*
Y147350D03*
X196000Y220150D03*
X188000D03*
X177000Y239650D03*
Y246350D03*
X196000Y226850D03*
X188000D03*
X182500Y446650D03*
Y453350D03*
X186000Y572650D03*
Y579350D03*
X202000Y220150D03*
X207500Y206150D03*
Y212850D03*
X210000Y220150D03*
X202000Y226850D03*
X210000D03*
X208000Y433850D03*
Y427150D03*
X214500Y433850D03*
Y427150D03*
X199500Y447850D03*
Y441150D03*
X201000Y427150D03*
Y433850D03*
X221000Y427150D03*
Y433850D03*
X205500Y480650D03*
Y487350D03*
X206000Y502350D03*
Y495650D03*
X221500Y573150D03*
Y579850D03*
X231500Y103150D03*
Y109850D03*
X238500Y107650D03*
X231500Y124350D03*
Y117650D03*
X238500Y114350D03*
X224500Y124350D03*
Y117650D03*
X241500Y194150D03*
Y200850D03*
Y187850D03*
Y181150D03*
X228000Y427150D03*
Y433850D03*
X238000Y429150D03*
Y435850D03*
X235000Y481150D03*
Y487850D03*
X245500Y103150D03*
Y109850D03*
Y116650D03*
Y123350D03*
X259000Y171850D03*
Y165150D03*
X260000Y220150D03*
Y226850D03*
X244500Y337150D03*
Y343850D03*
X246000Y481150D03*
Y487850D03*
X250500Y535150D03*
X258000Y540150D03*
Y546850D03*
X265000D03*
Y540150D03*
X250500Y541850D03*
X257500Y573650D03*
Y580350D03*
X281000Y201650D03*
X288000Y216650D03*
Y223350D03*
X281000Y208350D03*
X280500Y313650D03*
X275500Y329150D03*
Y335850D03*
X280500Y320350D03*
X287500Y380850D03*
Y374150D03*
X278500Y424150D03*
Y430850D03*
X274500Y540150D03*
Y546850D03*
X306500Y151150D03*
Y157850D03*
X298500Y155850D03*
Y149150D03*
X306000Y423650D03*
Y430350D03*
X301000Y546850D03*
Y540150D03*
X291000Y546850D03*
Y540150D03*
X311000Y136350D03*
Y129650D03*
X314500Y177650D03*
Y197350D03*
Y190650D03*
Y184350D03*
Y203650D03*
Y210350D03*
X322000Y245350D03*
Y238650D03*
Y251650D03*
Y258350D03*
X313000Y267650D03*
X319000D03*
X313000Y274350D03*
X319000D03*
X318500Y310650D03*
X312500D03*
X318500Y317350D03*
X312500D03*
X333000Y381150D03*
X326500D03*
X333000Y387850D03*
X326500D03*
X313000Y423650D03*
X320000D03*
X326500D03*
X313000Y430350D03*
X320000D03*
X326500D03*
X327000Y546850D03*
Y540150D03*
X319000Y546850D03*
Y540150D03*
X312000Y546850D03*
Y540150D03*
X342500Y313150D03*
Y319850D03*
X343000Y328150D03*
Y334850D03*
X339500Y381150D03*
Y387850D03*
X335500Y423650D03*
Y430350D03*
X334000Y556650D03*
X355000D03*
X341000D03*
X334000Y546850D03*
Y540150D03*
X351000Y571650D03*
Y578350D03*
X334000Y563350D03*
X355000D03*
X341000D03*
X361500Y403150D03*
Y409850D03*
X362000Y556650D03*
Y563350D03*
G54D34*
X29500Y530500D03*
Y519500D03*
X120000Y447000D03*
Y458000D03*
X194000Y137000D03*
Y148000D03*
X191000Y441500D03*
Y452500D03*
X206000Y181000D03*
Y192000D03*
X251500Y172000D03*
Y161000D03*
G54D109*
X330000Y320200D03*
G54D43*
X52500Y314500D03*
Y344500D03*
X170000Y52300D03*
X203000D03*
G54D52*
X132750Y45500D03*
Y35500D03*
Y55500D03*
G54D119*
G01X10000Y206000D02*
Y210650D01*
G01Y254500D02*
X23200D01*
X23500Y254200D01*
G01X19750Y262800D02*
Y269250D01*
X16000Y273000D01*
G01X15000Y496000D02*
Y500500D01*
G01Y509500D02*
Y505450D01*
G01X14150Y541500D02*
Y536500D01*
G01Y551500D02*
Y546500D01*
G01Y551500D02*
X10500D01*
X9500Y552500D01*
Y561500D01*
X11500Y563500D01*
X32900D01*
X36900Y559500D01*
X37250D01*
G01X32000Y213000D02*
Y218500D01*
G01X39500Y213000D02*
X49000D01*
G01X24500Y231000D02*
Y225000D01*
X23850Y224350D01*
Y219500D01*
G01X24500Y241000D02*
Y246500D01*
X23500Y247500D01*
Y254200D01*
G01X36500Y256150D02*
X36650Y256000D01*
X30000D01*
G01X27250Y262800D02*
X27450Y263000D01*
X32000D01*
G01D02*
X36350D01*
X36500Y262850D01*
G01X23000Y367150D02*
X25650Y364500D01*
X31500D01*
G01X36500D02*
Y374000D01*
G01X23000Y373850D02*
X23150Y374000D01*
X36500D01*
G01D02*
X57000D01*
X61350Y378350D01*
X75500D01*
G01X23500Y420000D02*
Y395500D01*
X27500Y391500D01*
X32500D01*
X36500Y395500D01*
Y400700D01*
G01X31500D02*
Y412000D01*
G01X100500Y414400D02*
Y422000D01*
X95500Y427000D01*
X30500D01*
X23500Y420000D01*
G01X31500Y412000D02*
X43000Y423500D01*
X86500D01*
X90500Y419500D01*
Y414400D01*
G01X21346Y559000D02*
X25500D01*
G01X53020Y176170D02*
X80220D01*
X86500Y182450D01*
Y182650D01*
G01X49000Y213000D02*
X60500D01*
G01X49000Y220500D02*
Y225500D01*
G01X70500Y220500D02*
X49000D01*
G01X61500Y364500D02*
Y369650D01*
X63500Y371650D01*
X75500D01*
G01X61500Y393000D02*
Y400700D01*
G01X81000Y12500D02*
X86750D01*
G01X81000D02*
Y17000D01*
G01Y12500D02*
Y8000D01*
G01X86500Y189350D02*
Y194000D01*
X88000Y195500D01*
G01X86500Y182650D02*
X93500D01*
G01X75500Y378350D02*
X75650Y378500D01*
X80000D01*
G01X75500Y392350D02*
X69500D01*
X66500Y395350D01*
Y400700D01*
G01X75500Y385650D02*
X79850D01*
X80000Y385500D01*
G01X81500Y434000D02*
X85500D01*
G01X76180Y553500D02*
Y559820D01*
G01Y547500D02*
Y553500D01*
G01D02*
X84980D01*
G01X64750Y598250D02*
X65800Y599300D01*
X69250D01*
G01X83498Y607500D02*
X87500D01*
G01X90000Y205500D02*
X88000Y203500D01*
Y195500D01*
G01X104500Y182500D02*
X109150D01*
G01X101650Y189500D02*
Y185350D01*
X104500Y182500D01*
G01X93500Y189350D02*
X101500D01*
X101650Y189500D01*
G01X98000Y213000D02*
Y206050D01*
X97750Y205800D01*
G01X100500Y222500D02*
Y218000D01*
X98000Y215500D01*
Y213000D01*
G01X102150Y230000D02*
Y224150D01*
X100500Y222500D01*
G01X105250Y213400D02*
Y205800D01*
G01X105950Y206500D02*
X112150D01*
G01X108850Y230000D02*
Y225150D01*
X111500Y222500D01*
G01X114000Y236000D02*
X110500D01*
X109000Y234500D01*
Y230150D01*
X108850Y230000D01*
G01X106850Y241500D02*
X113000D01*
X116000Y244500D01*
X121400D01*
G01X100500Y250000D02*
X100150Y249650D01*
Y241500D01*
G01X102000Y234700D02*
X101800D01*
X100150Y236350D01*
Y241500D01*
G01X111500Y288150D02*
Y284500D01*
X105500Y278500D01*
G01X87500Y332000D02*
X105500Y314000D01*
X111500D01*
G01X105500Y407000D02*
Y414400D01*
G01D02*
Y424500D01*
G01D02*
Y434000D01*
G01D02*
Y441500D01*
G01X105047Y448000D02*
X104500D01*
X103740Y448760D01*
X100382D01*
G01Y452500D02*
X95715D01*
G01X105047Y457000D02*
X105000D01*
X104240Y456240D01*
X100382D01*
G01X106500Y465500D02*
X110620Y461380D01*
Y456240D01*
G01X100000Y498500D02*
X102000D01*
X107777Y492723D01*
X110727D01*
X113950Y489500D01*
X114150D01*
G01X90350Y578050D02*
Y582500D01*
G01X101650Y589000D02*
X97000D01*
G01X101650Y582000D02*
X96750D01*
G01X87500Y603498D02*
Y607500D01*
G01D02*
Y611502D01*
G01Y607500D02*
X91502D01*
G01X113000Y171000D02*
X112500Y170500D01*
X120340D01*
Y166030D01*
G01X115850Y182500D02*
X122000D01*
G01X122350Y189500D02*
X122000Y189150D01*
Y182500D01*
G01X111500Y222500D02*
X111850Y222150D01*
Y213500D01*
G01X131000Y211500D02*
Y217500D01*
G01X121400Y219500D02*
Y224500D01*
G01X118850Y206500D02*
Y215350D01*
X119000Y215500D01*
G01X121400Y234500D02*
X128600D01*
G01X121400Y239500D02*
X117500D01*
X114000Y236000D01*
G01X121400Y244500D02*
Y249500D01*
G01X113500Y229500D02*
X121400D01*
G01X144000Y259500D02*
X140500D01*
X140000Y259000D01*
X123000D01*
X119000Y255000D01*
X113000D01*
X111000Y253000D01*
Y250500D01*
X111500Y250000D01*
G01X136000Y264150D02*
X129000D01*
G01X117500Y264000D02*
X121850D01*
X122000Y264150D01*
G01D02*
X129000D01*
G01X122000Y270850D02*
X117650D01*
X117500Y271000D01*
G01X111500Y294850D02*
X116150D01*
X126000Y285000D01*
X132150D01*
G01X111500Y304000D02*
Y294850D01*
G01X128500Y398500D02*
Y389500D01*
G01Y407500D02*
Y398500D01*
G01X110500Y400850D02*
X112500D01*
Y406500D01*
G01X110500Y394150D02*
X111000D01*
G01X120500Y405350D02*
Y403000D01*
X118000D01*
X115500Y400500D01*
Y397150D01*
X112500Y394150D01*
X111000D01*
G01D02*
Y390000D01*
X110500Y389500D01*
G01X128500Y423500D02*
Y416500D01*
G01D02*
Y407500D01*
G01X112500Y406500D02*
X115500Y409500D01*
Y414400D01*
G01X120500D02*
Y405350D01*
G01X126000Y447000D02*
X120000D01*
G01X128000Y435500D02*
X124200D01*
X122700Y434000D01*
X120500D01*
G01X128000Y441500D02*
X116500D01*
X115500Y440500D01*
Y434000D01*
G01X120850Y468500D02*
X124000D01*
X125000Y469500D01*
X125500D01*
G01X110618Y456240D02*
X110620D01*
G01D02*
X113741D01*
X115501Y458000D01*
X120000D01*
G01X120850Y489500D02*
X126000D01*
G01X109000Y482000D02*
X109500D01*
X110000Y482500D01*
X114150D01*
G01Y475500D02*
Y482500D01*
G01Y503500D02*
X109500D01*
G01X114150Y496500D02*
X109500D01*
G01X120850Y510500D02*
Y514950D01*
G01Y503500D02*
X125500D01*
X127000Y505000D01*
G01X126750Y494750D02*
X125000Y496500D01*
X120850D01*
G01X113500Y530650D02*
Y525000D01*
G01Y551350D02*
X109050D01*
G01X126500Y570500D02*
X120900D01*
G01X126500Y560500D02*
X120900D01*
G01X113500Y565350D02*
Y570000D01*
G01X124850Y582000D02*
X129500D01*
G01X118150Y589000D02*
X113500D01*
G01X151500Y56350D02*
X151350Y56500D01*
X147000D01*
G01X151000Y67500D02*
Y73320D01*
X151180Y73500D01*
G01D02*
X151000Y73680D01*
Y79500D01*
G01X151180Y73500D02*
X160000D01*
G01X159000Y81650D02*
X155850D01*
X153500Y84000D01*
X139500D01*
G01X139150Y137500D02*
Y132350D01*
X141650Y129850D01*
X145500D01*
G01X153200Y134500D02*
Y135000D01*
X153000D01*
X150500Y137500D01*
X145850D01*
G01X132850D02*
X139150D01*
G01X137500Y165320D02*
X147500D01*
G01D02*
X154000D01*
G01X148800Y192250D02*
X149150Y192600D01*
X154000D01*
Y193600D01*
G01X146500Y183500D02*
X148800Y185800D01*
Y192250D01*
G01X140200Y196000D02*
X137500Y193300D01*
Y185000D01*
G01X201500Y212850D02*
X196850D01*
X193850Y209850D01*
X182850D01*
X178500Y205500D01*
X177000D01*
X175500Y204000D01*
X150500D01*
X148800Y202300D01*
Y199750D01*
G01X152500Y218350D02*
X152350Y218500D01*
X148500D01*
X148000Y219000D01*
Y221000D01*
X144500Y224500D01*
X141000D01*
G01X158500Y218350D02*
X152500D01*
G01Y211650D02*
X158500D01*
G01X142000Y211500D02*
X152350D01*
X152500Y211650D01*
G01X141000Y219500D02*
X140500Y219000D01*
Y213000D01*
X142000Y211500D01*
G01X152650Y224500D02*
X149500D01*
X144500Y229500D01*
X141000D01*
G01X153000Y242650D02*
X159000D01*
G01X153000D02*
X148850D01*
X148250Y243250D01*
G01D02*
X147000Y244500D01*
X141000D01*
G01X152650Y236500D02*
X149500D01*
X146500Y239500D01*
X141000D01*
G01X152650Y230500D02*
X150000D01*
X148000Y232500D01*
G01D02*
X147500D01*
X145500Y234500D01*
X141000D01*
G01X132500Y241000D02*
Y239000D01*
X137000Y234500D01*
X141000D01*
G01X144000Y265000D02*
X145350Y263650D01*
X148500D01*
G01X141000Y249500D02*
X148200D01*
G01X159000Y249350D02*
X153000D01*
G01X148200Y249500D02*
X148350Y249350D01*
X153000D01*
G01X138850Y285000D02*
Y292250D01*
X138800D01*
G01X148500Y270350D02*
X144150D01*
X144000Y270500D01*
G01X132150Y289350D02*
Y285000D01*
G01X138800Y292250D02*
X139050Y292500D01*
X143000D01*
X143850Y293350D01*
Y296300D01*
X144050Y296500D01*
Y300000D01*
G01X143850Y313000D02*
Y306000D01*
G01X144050Y300000D02*
X143850Y300200D01*
Y306000D01*
G01X151650Y354000D02*
Y349350D01*
X152000Y349000D01*
G01X132000Y368500D02*
X150500D01*
G01X139500Y380500D02*
X145500D01*
G01X146000Y393000D02*
Y394500D01*
X144000Y396500D01*
X141500D01*
X139500Y398500D01*
G01X155000Y385500D02*
X148500D01*
X144500Y389500D01*
X139500D01*
G01X153150Y401500D02*
Y406000D01*
G01D02*
Y410000D01*
G01X153500Y439000D02*
Y431500D01*
G01Y446000D02*
Y439000D01*
G01D02*
X162000D01*
G01X140150Y453500D02*
Y448650D01*
G01X146850Y453500D02*
X149500Y456150D01*
Y458500D01*
G01X149000Y533000D02*
X148150D01*
X143000Y538150D01*
G01X150500Y539500D02*
X155150D01*
G01X153150Y552000D02*
X149000D01*
X148500Y552500D01*
G01X143000Y544850D02*
X142350Y545500D01*
X138000D01*
G01X159000Y88350D02*
X155650D01*
X154500Y89500D01*
Y93000D01*
G01D02*
Y97650D01*
G01Y104350D02*
Y109500D01*
G01X177500Y111000D02*
Y110200D01*
X170000Y102700D01*
G01X161800Y130750D02*
X168600D01*
X169000Y131150D01*
G01X155500Y143000D02*
Y141000D01*
X158000Y138500D01*
X161550D01*
X161800Y138250D01*
G01D02*
X168600D01*
X169000Y137850D01*
G01X154000Y165320D02*
Y165000D01*
X154160Y164840D01*
Y155340D01*
X154500Y155000D01*
G01X169000Y163500D02*
X174000Y158500D01*
Y155180D01*
X174180Y155000D01*
G01X164000Y174000D02*
Y181500D01*
G01X159000Y174000D02*
Y168000D01*
X156320Y165320D01*
X154000D01*
G01X169000Y174000D02*
Y163500D01*
G01X177000Y183500D02*
Y190000D01*
X173400Y193600D01*
X169000D01*
G01X170500Y211650D02*
X170600D01*
G01X164500D02*
X170500D01*
G01X159350Y224500D02*
X163000D01*
X164000Y225500D01*
Y227000D01*
X165000Y228000D01*
X169200D01*
G01X170500Y218350D02*
Y223500D01*
X169500Y224500D01*
X169200D01*
Y228000D01*
G01X164500Y218350D02*
X158500D01*
G01X159350Y230500D02*
X162500D01*
X164000Y232000D01*
G01X169200Y228000D02*
Y228500D01*
G01X159350Y236500D02*
X166000D01*
X166500Y237000D01*
G01D02*
X171000Y241500D01*
Y242650D01*
G01X159000D02*
X165000D01*
G01X172000Y236500D02*
Y233000D01*
X172750Y232250D01*
X177800D01*
G01X165500Y258000D02*
Y262500D01*
X173500Y270500D01*
X177000D01*
G01X171000Y249350D02*
X165000D01*
G01X170650Y352000D02*
X170500Y351850D01*
Y347500D01*
G01X158350Y354000D02*
X158500Y353850D01*
Y349000D01*
G01D02*
Y345600D01*
X161350Y342750D01*
X175250D01*
X177350Y344850D01*
Y352000D01*
G01X158960Y364400D02*
Y358360D01*
X158350Y357750D01*
Y354000D01*
G01X175500Y446650D02*
Y441500D01*
G01X168500Y446650D02*
X175500D01*
G01X154150Y453500D02*
Y458500D01*
G01X160850Y453500D02*
Y453892D01*
X165319Y458361D01*
X166318D01*
G01X162500Y534050D02*
X161850Y534700D01*
Y539500D01*
G01X167850Y559000D02*
X172500D01*
G01X161150D02*
Y561450D01*
X162800Y563100D01*
X164380D01*
X164450Y563170D01*
G01X169000Y594350D02*
X173650D01*
X173750Y594250D01*
X178500D01*
G01X186500Y81000D02*
X197500Y92000D01*
X208500D01*
X212000Y95500D01*
Y104500D01*
X203500Y113000D01*
Y128500D01*
X205000Y130000D01*
X221350D01*
X225350Y134000D01*
Y142000D01*
G01X186500Y102700D02*
Y109500D01*
X185100Y110900D01*
X184000D01*
G01Y116500D02*
Y122650D01*
G01X177500Y116600D02*
Y122650D01*
G01X190500Y128350D02*
Y129350D01*
X184000D01*
G01D02*
X182000D01*
Y134000D01*
G01X177500D02*
Y129350D01*
G01X196500Y117000D02*
Y121650D01*
G01X190500D02*
X196500D01*
G01X194000Y137000D02*
X200000D01*
G01X182500Y147350D02*
X186350D01*
X187500Y148500D01*
G01X187650Y155500D02*
Y160350D01*
X184500Y163500D01*
Y171320D01*
X185500Y172320D01*
G01X194000Y148000D02*
X194350Y148350D01*
Y155500D01*
G01X185500Y172320D02*
X180180D01*
X177000Y175500D01*
Y183500D01*
G01X185000Y201050D02*
Y192500D01*
X185500Y192000D01*
G01X190700Y203500D02*
X187450D01*
X185000Y201050D01*
G01X188000Y220150D02*
X185850D01*
X183500Y222500D01*
G01X177800Y224750D02*
Y224250D01*
X179250D01*
X183500Y228500D01*
G01X196000Y220150D02*
X202000D01*
G01X188000Y226850D02*
X191150D01*
X192000Y226000D01*
Y221000D01*
X192850Y220150D01*
X196000D01*
G01X187400Y233000D02*
X178550D01*
X177800Y232250D01*
G01X187400Y233000D02*
Y230600D01*
X188000Y230000D01*
Y226850D01*
G01X177000Y239650D02*
Y233050D01*
X177800Y232250D01*
G01X197350Y270150D02*
Y257000D01*
G01X190650D02*
X185500D01*
G01X177000Y270500D02*
X183800D01*
G01X188500Y383000D02*
Y376620D01*
X188480Y376600D01*
G01X192000Y393000D02*
X192739D01*
X194539Y394800D01*
X226700D01*
X228500Y393000D01*
G01X182500Y446650D02*
Y441500D01*
G01X191000D02*
Y436000D01*
X191500Y435500D01*
G01X197934Y452500D02*
X198000D01*
X199500Y451000D01*
Y447850D01*
G01X182500Y453350D02*
Y454500D01*
X178048Y458952D01*
X177000D01*
G01X191000Y452500D02*
Y458100D01*
G01X194150Y539000D02*
X189500D01*
G01X186000Y572650D02*
X191500D01*
G01X186000Y579350D02*
Y582500D01*
X187500Y584000D01*
G01X178500Y594250D02*
Y598000D01*
X180648Y600148D01*
G01X231500Y103150D02*
Y99000D01*
X229500Y97000D01*
Y88500D01*
X222000Y81000D01*
X203000D01*
G01X207650Y134500D02*
X204000D01*
X200500Y131000D01*
Y110500D01*
X203000Y108000D01*
Y102700D01*
G01X218650Y142000D02*
X212000D01*
X207650Y137650D01*
Y135000D01*
G01X224500Y117650D02*
X224350Y117500D01*
X217550D01*
X217300Y117750D01*
G01X219500Y134500D02*
X214350D01*
G01X208700Y121500D02*
Y117200D01*
X208500Y117000D01*
G01X220500Y151000D02*
Y147000D01*
X218650Y145150D01*
Y142000D01*
G01X201000Y151900D02*
X206000D01*
G01X216000Y171500D02*
X221500D01*
G01X203500Y164500D02*
X205400Y166400D01*
X205700D01*
X206000Y166700D01*
Y171500D01*
G01D02*
Y181000D01*
G01X218500Y187000D02*
X224320D01*
X224500Y186820D01*
G01X207500Y206150D02*
Y198500D01*
X206000Y197000D01*
Y192000D01*
G01D02*
X211000D01*
X215000Y188000D01*
Y181000D01*
G01X210000Y220150D02*
Y220650D01*
X223030D01*
X223500Y220180D01*
G01X207500Y212850D02*
X210650D01*
X217000Y206500D01*
X224500D01*
G01X207500Y212850D02*
X201500D01*
G01X199300Y207250D02*
X203250D01*
X204350Y206150D01*
X207500D01*
G01X202000Y220150D02*
X205150D01*
X206000Y221000D01*
Y226000D01*
X206850Y226850D01*
X210000D01*
G01X223500Y237500D02*
Y234745D01*
X219077Y230322D01*
Y229654D01*
X216423Y227000D01*
X216000D01*
G01D02*
X210150D01*
X210000Y226850D01*
G01X207000Y248000D02*
X213900D01*
X214300Y247600D01*
G01X214500Y427150D02*
Y422500D01*
G01X208000Y427150D02*
Y422500D01*
G01X215650Y454500D02*
Y451850D01*
X217500Y450000D01*
G01X211000Y466500D02*
X213500Y464000D01*
X215650D01*
G01X210900Y472500D02*
X212400Y471000D01*
X215650D01*
G01X210247Y480500D02*
X210097Y480650D01*
X205500D01*
G01Y487350D02*
X201350D01*
X201000Y487000D01*
G01X216650Y498252D02*
Y503000D01*
G01X215465Y493640D02*
Y497067D01*
X216650Y498252D01*
G01X206000Y502350D02*
X202666D01*
X201332Y501016D01*
G01X206000Y495650D02*
X201650D01*
X201000Y495000D01*
G01X200850Y539000D02*
X205500D01*
G01X231500Y109850D02*
Y117650D01*
G01X238500Y102000D02*
X246000Y94500D01*
Y86000D01*
X251750Y80250D01*
Y76700D01*
G01X238500Y114350D02*
X243200D01*
X245500Y116650D01*
G01X238500Y120000D02*
Y114350D01*
G01X231500Y124350D02*
X234500D01*
X238500Y120350D01*
Y120000D01*
G01X231500Y117650D02*
X224500D01*
G01X251150Y153000D02*
Y150650D01*
X235000Y134500D01*
G01X224500Y124350D02*
Y128000D01*
X226000Y129500D01*
X235000D01*
G01D02*
X254500Y149000D01*
X262000D01*
X266500Y153500D01*
Y177000D01*
X263500Y180000D01*
Y199000D01*
X266000Y201500D01*
X271000D01*
G01X225350Y142000D02*
X225500Y142150D01*
Y151400D01*
G01X244500Y171500D02*
X241000D01*
X240500Y171000D01*
G01X232500Y164000D02*
X230500Y166000D01*
Y171000D01*
G01X237000Y201000D02*
X241350D01*
X241500Y200850D01*
G01Y194150D02*
Y187850D01*
G01D02*
X242850Y186500D01*
X251400D01*
G01X223500Y220180D02*
X223511Y220169D01*
X229169D01*
X229500Y220500D01*
G01X237850Y353000D02*
Y356750D01*
X238588Y357488D01*
Y359716D01*
X236500Y361804D01*
Y369550D01*
X237000Y370050D01*
Y372950D01*
X235000Y374950D01*
Y377785D01*
X237791Y380576D01*
X240691D01*
X240767Y380500D01*
X246000D01*
X247500Y382000D01*
Y384500D01*
X250390Y387390D01*
G01X237850Y353000D02*
Y349177D01*
X237173Y348500D01*
G01X237650Y422500D02*
Y418000D01*
G01X228000Y427150D02*
Y422500D01*
G01X243000Y429150D02*
X238000D01*
G01X235650Y444000D02*
X232638D01*
X232238Y443600D01*
X232100D01*
X231000Y442500D01*
G01X247000Y443200D02*
X246800D01*
X246000Y444000D01*
X242350D01*
G01X230000Y449000D02*
X233646Y452646D01*
X234055D01*
G01X224525Y486360D02*
X229585D01*
G01X223850Y479000D02*
X228500D01*
X230000Y477500D01*
Y474000D01*
G01D02*
X230500Y474500D01*
X235150D01*
G01X247842Y473842D02*
X247184Y474500D01*
X241850D01*
G01X235650Y496000D02*
X231500D01*
X230500Y497000D01*
G01X235650Y503000D02*
X230500D01*
G01X235650Y512500D02*
X231500D01*
X230500Y513500D01*
G01X242350Y503000D02*
X245100Y500250D01*
X249500D01*
G01X251000Y492250D02*
Y492500D01*
X247500Y496000D01*
X242350D01*
G01Y512500D02*
X247000D01*
X250500Y509000D01*
Y508250D01*
G01X242350Y519500D02*
Y512500D01*
G01X230382Y538500D02*
X226000D01*
X225000Y537500D01*
G01X235500Y534760D02*
X235650Y534610D01*
Y527500D01*
G01X230382Y534760D02*
X235500D01*
G01X240618Y542240D02*
X245240D01*
X246000Y543000D01*
G01X221500Y573150D02*
X224150D01*
X225500Y574500D01*
X225950D01*
G01X221500Y579850D02*
Y584254D01*
X221850Y584604D01*
G01X262000Y67750D02*
X262050Y67700D01*
G01D02*
X275100D01*
G01X265000Y73500D02*
Y84000D01*
G01X255500Y85300D02*
Y92570D01*
G01X256500Y107000D02*
X265500Y116000D01*
Y128000D01*
G01X245500Y103150D02*
X245650Y103000D01*
X250000D01*
G01X249800Y92500D02*
X255430D01*
X255500Y92570D01*
G01X245500Y109850D02*
X250850D01*
X255500Y114500D01*
Y128000D01*
G01X265500D02*
X266000Y128500D01*
Y142500D01*
X268500Y145000D01*
G01X260800Y134250D02*
X256750D01*
X256000Y133500D01*
X251500D01*
X248500Y130500D01*
G01D02*
X245500Y127500D01*
Y123350D01*
G01X261174Y158324D02*
X257850Y155000D01*
Y153000D01*
G01X252200Y138000D02*
Y142200D01*
X256000Y146000D01*
X263500D01*
X274000Y156500D01*
X281650D01*
G01X251400Y201500D02*
X257000D01*
X260500Y198000D01*
Y178500D01*
X263500Y175500D01*
Y160650D01*
X261174Y158324D01*
G01X259000Y165150D02*
Y163000D01*
X257000Y161000D01*
X251500D01*
G01X260000Y220150D02*
X259970Y220180D01*
X245500D01*
G01X260000Y226850D02*
Y231500D01*
G01X251500Y238000D02*
X246000D01*
X245500Y237500D01*
G01X266000Y330500D02*
X260320D01*
X260000Y330180D01*
G01X244500Y337150D02*
X247350D01*
X254320Y330180D01*
X260000D01*
G01Y347500D02*
X266000D01*
G01X244500Y343850D02*
X249350D01*
X253000Y347500D01*
X260000D01*
G01X255000Y377500D02*
X261460Y371040D01*
Y359940D01*
G01X250390Y387390D02*
X257810D01*
G01X244350Y422500D02*
Y417800D01*
G01X259646Y425945D02*
Y428854D01*
X258500Y430000D01*
G01X258000Y540150D02*
Y534500D01*
G01X246000Y535000D02*
X250350D01*
X250500Y535150D01*
G01X269000Y532500D02*
X265000Y536500D01*
Y540150D01*
G01X264650Y556000D02*
X260000D01*
G01X265000Y546850D02*
Y551500D01*
G01X250500Y541850D02*
X247150D01*
X246000Y543000D01*
G01X264650Y565500D02*
X259500D01*
G01X257500Y573650D02*
X253050D01*
G01X257500Y580350D02*
Y587950D01*
X257490Y587960D01*
Y592500D01*
G01X270500Y60500D02*
X270700Y60300D01*
X275100D01*
G01X288150Y53700D02*
Y59850D01*
X284000Y64000D01*
X283000D01*
G01X271000Y85000D02*
X271200Y84800D01*
Y76500D01*
G01X279800Y72750D02*
X292800D01*
X299550Y79500D01*
X305650D01*
X305850Y79300D01*
G01X265500Y92570D02*
Y98000D01*
G01X274000Y150000D02*
Y142000D01*
X270500Y138500D01*
Y134500D01*
G01X282500Y137500D02*
X278000D01*
X275500Y135000D01*
Y128000D01*
G01X281650Y156500D02*
Y160850D01*
X280000Y162500D01*
G01X271000Y191500D02*
X279254D01*
X281754Y189000D01*
Y174246D01*
X288000Y168000D01*
X291500D01*
G01Y162500D02*
X287750D01*
X287250Y163000D01*
X284500D01*
X280000Y167500D01*
X277850D01*
G01X271000Y186500D02*
X275850D01*
X277850Y184500D01*
Y167500D01*
G01X271000Y196500D02*
X281000D01*
G01D02*
Y201650D01*
G01X271000Y211500D02*
Y219000D01*
G01Y206500D02*
Y211500D01*
G01X281000Y208350D02*
Y216000D01*
G01X278000Y239000D02*
X277800Y238800D01*
Y234250D01*
G01X280350Y244000D02*
X283450D01*
X288150Y248700D01*
G01X286000Y228500D02*
X286500D01*
X288000Y227000D01*
Y223350D01*
G01X273650Y244000D02*
X267350D01*
G01D02*
Y239650D01*
X267500Y239500D01*
G01X275500Y335850D02*
Y341000D01*
G01X280500Y320350D02*
Y325000D01*
G01X282750Y346700D02*
Y343250D01*
X281000Y341500D01*
Y341450D01*
G01X275500Y341000D02*
Y346450D01*
X275250Y346700D01*
G01X287500Y380850D02*
X283350D01*
X283000Y380500D01*
X279500D01*
G01D02*
Y374500D01*
X281150Y372850D01*
Y367000D01*
G01X278500Y424150D02*
X276300Y421950D01*
X274003D01*
G01X273555Y416500D02*
X273500D01*
X273000Y417000D01*
X272409D01*
X270354Y419055D01*
G01X283500Y430115D02*
X285646Y427969D01*
Y426445D01*
G01X278500Y430850D02*
Y434519D01*
X279991Y436010D01*
G01X274540Y535340D02*
X274500Y535380D01*
Y540150D01*
G01X291000D02*
Y539000D01*
X287500Y535500D01*
Y534246D01*
G01X266150Y580500D02*
Y576000D01*
G01X289800Y101500D02*
X297000D01*
G01D02*
X301500D01*
G01D02*
X307000D01*
G01X311000Y129650D02*
Y123850D01*
X305850Y118700D01*
G01X306500Y151150D02*
Y144950D01*
X305850Y144300D01*
G01X298500Y142500D02*
Y149150D01*
G01D02*
X301150D01*
X302500Y150500D01*
Y157000D01*
X303350Y157850D01*
X306500D01*
G01X288350Y156500D02*
X288150Y156300D01*
Y144300D01*
G01X315500Y172000D02*
X304000D01*
G01X303500Y166500D02*
X308150D01*
G01X306500Y157850D02*
X309650D01*
X310500Y157000D01*
Y152500D01*
X311250Y151750D01*
X315200D01*
G01X314500Y190650D02*
X312500D01*
X309500Y193650D01*
Y202000D01*
X311150Y203650D01*
X314500D01*
G01X308500Y219500D02*
Y211950D01*
X305850Y209300D01*
G01X288000Y216650D02*
X288150Y216500D01*
Y209300D01*
G01X313000Y267650D02*
X308850D01*
X305850Y270650D01*
Y274300D01*
G01X302000Y289000D02*
Y293500D01*
X303500Y295000D01*
G01X307850Y303500D02*
X308220Y303130D01*
Y299018D01*
G01X303500Y295000D02*
Y297000D01*
X301150Y299350D01*
Y303500D01*
G01X297300Y365200D02*
Y360750D01*
G01X299535Y408466D02*
X300069Y409000D01*
X300500D01*
X301673Y410173D01*
X303520D01*
G01X308500Y419000D02*
X306000Y421500D01*
Y423650D01*
G01X296354Y419555D02*
Y418646D01*
X298500Y416500D01*
Y413550D01*
X298404Y413454D01*
Y412500D01*
G01X313000Y430350D02*
Y431000D01*
X310000Y434000D01*
Y435500D01*
G01X306000Y430350D02*
X305150Y429500D01*
X302650D01*
X301500Y428350D01*
G01X301000Y540150D02*
Y534583D01*
X298500Y532083D01*
Y532000D01*
G01X301000Y546850D02*
Y551000D01*
X300500Y551500D01*
G01X291000D02*
Y546850D01*
G01X289850Y580500D02*
Y584650D01*
X289500Y585000D01*
G01X327500Y63000D02*
X327330Y62830D01*
X321500D01*
G01X315500Y63000D02*
X315670Y62830D01*
X321500D01*
G01X330000Y88000D02*
X329850Y88150D01*
Y92500D01*
G01X330000Y106000D02*
Y110350D01*
X329850Y110500D01*
G01Y92500D02*
Y96850D01*
X330000Y97000D01*
G01X329850Y110500D02*
X330000D01*
Y115000D01*
G01X320100Y128800D02*
X319900Y129000D01*
X315500D01*
G01X328000Y132500D02*
Y137000D01*
G01D02*
X323800Y141200D01*
Y148000D01*
G01X320100Y136200D02*
X311150D01*
G01X325500Y162500D02*
X328000D01*
G01X327000Y197000D02*
X325850D01*
X325500Y197350D01*
X320000D01*
G01D02*
X314500D01*
G01Y184350D02*
Y189500D01*
G01Y190650D02*
Y189500D01*
G01D02*
X322500D01*
G01X314500Y210350D02*
Y215200D01*
G01D02*
Y219500D01*
G01X319000Y267650D02*
X323500D01*
X323550Y267700D01*
X328250D01*
G01X332000Y276300D02*
X332200Y276500D01*
X337000D01*
G01X317000Y283000D02*
X347895D01*
X352895Y278000D01*
X360000D01*
X361400Y276600D01*
Y274000D01*
G01X318500Y305500D02*
Y310650D01*
G01Y317350D02*
X312500D01*
G01X317500Y328950D02*
Y327500D01*
X319500Y325500D01*
X335000D01*
X336700Y323800D01*
X349100D01*
X352700Y320200D01*
G01X326500Y387850D02*
X322000D01*
G01X316000Y392500D02*
X319500D01*
X320000Y392000D01*
X334796D01*
X339666Y396870D01*
Y402384D01*
X342141Y404859D01*
G01X318480Y381827D02*
Y386020D01*
X316000Y388500D01*
G01X313000Y423650D02*
Y419000D01*
G01X320000Y423650D02*
Y422000D01*
X317000Y419000D01*
G01X335500Y423650D02*
X331050D01*
G01D02*
X326500D01*
G01X329750Y410000D02*
X335000D01*
X336000Y411000D01*
X336550D01*
G01X329250Y435750D02*
X327000Y433500D01*
X326500Y430350D01*
G01X320000D02*
Y435400D01*
X319450Y435950D01*
G01X312000Y540150D02*
Y534500D01*
X310500Y533000D01*
G01X319000Y540150D02*
Y536583D01*
X315459Y533042D01*
G01X330000Y532500D02*
X330450D01*
G01D02*
X330500D01*
X334000Y536000D01*
Y540150D01*
G01X315350Y556500D02*
X320000D01*
G01X312000Y546850D02*
X313000Y547850D01*
Y551500D01*
G01X319000Y546850D02*
Y551500D01*
G01X327500D02*
X327000Y551000D01*
Y546850D01*
G01X315350Y563500D02*
X320500D01*
G01X353150Y212500D02*
Y218500D01*
G01X335750Y267700D02*
Y261250D01*
X333000Y258500D01*
G01X343000Y269000D02*
X348700D01*
G01D02*
X354000D01*
G01Y274000D02*
Y269000D01*
G01D02*
Y267000D01*
G01X337000Y276500D02*
X343000D01*
G01X356750Y308586D02*
X354500Y310836D01*
Y312650D01*
X353650Y313500D01*
G01X343000Y328150D02*
X346600D01*
X347450Y327300D01*
G01X349850Y342000D02*
Y348500D01*
G01X356500Y361000D02*
X356225Y360725D01*
Y350925D01*
X353800Y348500D01*
X349850D01*
G01X333000Y387850D02*
X339500D01*
G01X340500Y392500D02*
X339500Y391500D01*
Y387850D01*
G01X350250Y410000D02*
X355550D01*
X357050Y408500D01*
G01X345350Y417000D02*
X350000D01*
G01X355650Y465500D02*
X352150Y469000D01*
X350000D01*
G01X349500Y491500D02*
Y491450D01*
X354450Y486500D01*
X355650D01*
G01X350165Y481158D02*
X350323Y481000D01*
X351000D01*
X352500Y479500D01*
X355650D01*
G01Y500500D02*
X352000D01*
X350622Y499122D01*
X350601D01*
G01X333000Y551500D02*
X334000Y550500D01*
Y546850D01*
G01X342646Y543945D02*
X339201D01*
G01X338500Y614000D02*
Y580000D01*
X346850Y571650D01*
X351000D01*
G01X334000Y563350D02*
Y568000D01*
G01X341000Y563350D02*
Y568000D01*
G01X355000Y563350D02*
X350500D01*
G01X346000Y591500D02*
Y583550D01*
X351000Y578550D01*
Y578350D01*
G01X364850Y40000D02*
X364750Y39900D01*
Y33200D01*
X364650Y33100D01*
G01X364850Y40000D02*
Y45000D01*
G01X359850Y206500D02*
Y202150D01*
X360000Y202000D01*
G01X359850Y223000D02*
Y218500D01*
G01Y212500D02*
Y206500D01*
G01Y233500D02*
X360000Y233650D01*
Y238000D01*
G01X361500Y403150D02*
X361650Y403000D01*
X364500D01*
X366000Y404500D01*
Y415000D01*
X364000Y417000D01*
X361350D01*
G01X361500Y403150D02*
Y399500D01*
X362500Y398500D01*
G01X361500Y409850D02*
X358400D01*
X357050Y408500D01*
G01X362350Y465500D02*
X367000D01*
G01X362350Y458500D02*
X367000D01*
G01X362346Y451500D02*
X367000D01*
G01X362350Y486500D02*
X367000D01*
G01X362350Y472500D02*
X367000D01*
G01X362350Y479500D02*
X367000D01*
G01X362350Y507500D02*
X367000D01*
G01X362350Y500500D02*
X367000D01*
G01X362350Y493500D02*
X367000D01*
G01X362350Y514500D02*
X367000D01*
G01X362350Y521500D02*
X367000D01*
G01X362350Y528500D02*
X367000D01*
G01X366521Y563384D02*
X366500D01*
X366466Y563350D01*
X362000D01*
G54D71*
X155020Y376600D03*
Y364400D03*
X219980D03*
Y376600D03*
G54D17*
X19750Y262800D03*
X27250D03*
X23500Y254200D03*
X76750Y599300D03*
X73000Y590700D03*
X69250Y599300D03*
X101500Y197200D03*
X97750Y205800D03*
X105250D03*
X251750Y76700D03*
X255500Y85300D03*
X259250Y76700D03*
X275250Y346700D03*
X279000Y355300D03*
X282750Y346700D03*
X328250Y267700D03*
X332000Y276300D03*
X335750Y267700D03*
X360900Y24500D03*
X364650Y33100D03*
X357150D03*
G54D35*
X39650Y517000D03*
Y535000D03*
G54D62*
X122000Y546150D03*
Y538850D03*
X133050Y546150D03*
Y538850D03*
X169000Y594350D03*
X157950D03*
Y601650D03*
X169000D03*
X350000Y436150D03*
Y428850D03*
X361050Y436150D03*
Y428850D03*
G54D26*
X47000Y26500D03*
X187000Y326500D03*
X326500Y26500D03*
G54D53*
X136500Y101200D03*
G54D44*
X68300Y526000D03*
G54D80*
X191500Y409500D03*
X181500D03*
X221500D03*
X211500D03*
X201500D03*
X241500D03*
X231500D03*
X251500D03*
G54D72*
X174700Y364400D03*
X172740Y376600D03*
X170770Y364400D03*
X168800Y376600D03*
X166830Y364400D03*
X164860Y376600D03*
X162900Y364400D03*
X160930Y376600D03*
X158960Y364400D03*
X198330D03*
X196360Y376600D03*
X194390Y364400D03*
X192420Y376600D03*
X190450Y364400D03*
X188480Y376600D03*
X186520Y364400D03*
X184550Y376600D03*
X182580Y364400D03*
X180610Y376600D03*
X178640Y364400D03*
X176670Y376600D03*
X216040D03*
X214070Y364400D03*
X212100Y376600D03*
X210140Y364400D03*
X208170Y376600D03*
X206200Y364400D03*
X204230Y376600D03*
X202260Y364400D03*
X200300Y376600D03*
G54D81*
X197122Y557386D03*
X194524D03*
X192004D03*
Y580614D03*
X194524D03*
X197122D03*
X214996Y557386D03*
X212476D03*
X209878D03*
X207358D03*
X204760D03*
X202240D03*
X199642D03*
Y580614D03*
X202240D03*
X204760D03*
X207358D03*
X209878D03*
X212476D03*
X214996D03*
X240760Y557386D03*
X238240D03*
X235642D03*
X233122D03*
X230524D03*
X228004D03*
Y580614D03*
X230524D03*
X233122D03*
X235642D03*
X238240D03*
X240760D03*
X250996Y557386D03*
X248476D03*
X245878D03*
X243358D03*
Y580614D03*
X245878D03*
X248476D03*
X250996D03*
G54D27*
X38250Y52900D03*
Y63100D03*
X42000Y52900D03*
X45750D03*
Y63100D03*
G54D36*
X29750Y557000D03*
X37250Y559500D03*
Y554500D03*
G54D63*
X125950Y546150D03*
X129100D03*
Y538850D03*
X125950D03*
X165050Y594350D03*
X161900D03*
Y601650D03*
X165050D03*
X353950Y436150D03*
Y428850D03*
X357100Y436150D03*
Y428850D03*
G54D54*
X120340Y91630D03*
G54D18*
X10000Y254500D03*
X32000Y263000D03*
X29000Y509500D03*
X33000Y551000D03*
X31500Y540500D03*
X40500Y541000D03*
X55000Y156500D03*
X77000Y350500D03*
X86000Y371650D03*
X81000Y509000D03*
X87500Y524000D03*
X78500Y582500D03*
X83650Y595500D03*
X105500Y157000D03*
X94000Y163500D03*
X98500Y182500D03*
X102000Y234700D03*
X97000Y376500D03*
X108500Y533000D03*
X108750Y558650D03*
X96750Y582000D03*
X106920Y599000D03*
X102000D03*
X95420Y595159D03*
X126500Y9500D03*
X127500Y170000D03*
X132500Y241000D03*
X132250Y249250D03*
X119500Y278500D03*
X132000Y289700D03*
X122500Y303500D03*
X122000Y319000D03*
X112500Y406500D03*
X126500Y482500D03*
X126750Y494750D03*
X120500Y523000D03*
X126000Y532500D03*
X132500Y526000D03*
X110500Y518500D03*
X118656Y551344D03*
X131530Y599000D03*
X126600D03*
X121680D03*
X116760D03*
X111840D03*
X139500Y84000D03*
X147500Y165320D03*
X146500Y183500D03*
X148250Y243250D03*
X144000Y259500D03*
X149000Y305500D03*
X145500Y380500D03*
X146000Y393000D03*
X155000Y385500D03*
X148000Y412400D03*
X149500Y478409D03*
X140000Y500000D03*
X141000Y577000D03*
X145500Y570500D03*
X141370Y599000D03*
X136450D03*
X176500Y140500D03*
X169000Y163500D03*
X177000Y183500D03*
X166500Y237000D03*
X165622Y385500D03*
X172689Y392926D03*
X159500Y415000D03*
X172250Y417000D03*
X158677Y490823D03*
X166500Y472000D03*
X160500Y480000D03*
X169500Y495250D03*
X162500Y534050D03*
X169850Y564000D03*
X170500Y589500D03*
X169000Y606500D03*
X185000Y201050D03*
X199300Y188700D03*
X195000Y237500D03*
X180000Y255500D03*
X191000Y261700D03*
X191500Y299000D03*
X187100Y399100D03*
X191500Y387500D03*
X183500Y387650D03*
X191000Y418500D03*
X181500Y486000D03*
X184593Y536825D03*
X182550Y557500D03*
X193500Y563500D03*
X186250Y566750D03*
X199000Y574000D03*
X179000Y566000D03*
X210000Y161000D03*
X218000Y199000D03*
X201500Y212850D03*
X216000Y227000D03*
X219750Y253250D03*
X217500Y311500D03*
X211000Y316000D03*
X218000Y331000D03*
X220500Y319000D03*
X215000Y343000D03*
X216498Y351250D03*
X210500Y357000D03*
X201000Y419000D03*
X222000Y459200D03*
Y525250D03*
X212500Y530500D03*
X219500Y537750D03*
X208000Y551000D03*
X203105Y563095D03*
X204500Y574500D03*
X238500Y102000D03*
Y120000D03*
X238000Y158500D03*
X226000Y287500D03*
X237020Y342250D03*
X234500Y358500D03*
X226500D03*
X236500Y401500D03*
X244350Y417800D03*
X238000Y574400D03*
X235000Y607000D03*
X256500Y107000D03*
X249800Y92500D03*
X248500Y130500D03*
X261174Y158324D03*
X244500Y171500D03*
X251500Y238000D03*
X256500Y252500D03*
X266500Y355000D03*
X250500Y360500D03*
X253600Y446100D03*
X248500Y571000D03*
X253531Y585783D03*
X265500Y586000D03*
X283000Y129000D03*
X282500Y137500D03*
X289000Y239500D03*
X279988Y294988D03*
X285750Y301250D03*
X282500Y332000D03*
X275500Y341000D03*
X288750Y348250D03*
X283500Y463408D03*
X277000Y455000D03*
X288500Y471000D03*
X279931Y490293D03*
X285000Y519500D03*
X284283Y558716D03*
X271350Y570600D03*
X276500Y565055D03*
X307000Y101500D03*
X304000Y172000D03*
X291500Y162500D03*
Y228500D03*
X299250Y282500D03*
X307613Y327050D03*
X311000Y374500D03*
X310000Y435500D03*
X310566Y465040D03*
X306250Y474250D03*
X302000Y519500D03*
X302500Y566000D03*
X330500Y124500D03*
X328000Y137000D03*
X317000Y159500D03*
X320000Y197350D03*
X314500Y215200D03*
X316500Y258350D03*
X328779Y355000D03*
X318000Y374500D03*
X311581Y447920D03*
X324000Y467000D03*
X323000Y481500D03*
X320000Y505500D03*
X328000Y498000D03*
X346999Y14499D03*
X348700Y269000D03*
X337000Y276500D03*
X348500Y337000D03*
X337500Y338000D03*
X354769Y372097D03*
X343501Y423500D03*
X354000Y446500D03*
X341000Y433000D03*
X350000Y475000D03*
X345500Y521790D03*
X338725Y532000D03*
X350750Y527375D03*
X353500Y550500D03*
X342097Y550098D03*
X364850Y45000D03*
X363250Y424250D03*
G54D45*
G01X38250Y44000D02*
Y52900D01*
G01X42000D02*
Y57500D01*
G01X45750Y52900D02*
Y44000D01*
G01X98500Y182500D02*
X93650D01*
X93500Y182650D01*
G01X96600Y470100D02*
X90500Y464000D01*
Y434000D01*
G01X137150Y313000D02*
X137000Y312850D01*
X130500D01*
G01D02*
Y317500D01*
X124000Y324000D01*
X111500D01*
G01X137150Y306000D02*
X130650D01*
X130500Y306150D01*
G01X130200Y296000D02*
Y301900D01*
X130500Y302200D01*
Y306150D01*
G01D02*
X126150D01*
X118300Y314000D01*
X111500D01*
G01X207650Y135000D02*
Y134500D01*
G01X238500Y107650D02*
Y102000D01*
G01X241500Y200850D02*
X241650Y201000D01*
X242500D01*
X247000Y196500D01*
X251400D01*
G01X346999Y14499D02*
X339500Y7000D01*
X308000D01*
X286500Y28500D01*
X279760D01*
G01X360900Y24500D02*
X357000D01*
X346999Y14499D01*
X59000Y578000D03*
X86750Y398000D03*
X110500Y85130D03*
Y163870D03*
X164500Y578000D03*
X159000Y572500D03*
X286750Y398000D03*
X314000Y578000D03*
X336500Y361700D03*
G54D90*
X262000Y67750D03*
Y49250D03*
G54D91*
X265500Y92570D03*
X255500D03*
Y128000D03*
X265500D03*
X275500Y92570D03*
Y128000D03*
G54D55*
X127500Y129850D03*
X145500D03*
G54D73*
X161500Y575000D03*
G54D28*
X29400Y69380D03*
Y177250D03*
G54D82*
X194500Y592500D03*
X198440Y600370D03*
X202370Y592500D03*
X206310Y600370D03*
X210250Y592500D03*
X214190Y600370D03*
X218120Y592500D03*
X222060Y600370D03*
X225990Y592500D03*
X229930Y600370D03*
X233870Y592500D03*
X237810Y600370D03*
X241740Y592500D03*
X245680Y600370D03*
X249620Y592500D03*
X253550Y600370D03*
X257490Y592500D03*
X261430Y600370D03*
X265370Y592500D03*
X269300Y600370D03*
X273240Y592500D03*
X277180Y600370D03*
X281110Y592500D03*
X285050Y600370D03*
G54D19*
X15820Y280500D03*
X35500D03*
X56500Y553500D03*
X76180D03*
X131500Y73500D03*
X151180D03*
X154500Y155000D03*
X174180D03*
X333320Y295500D03*
X353000D03*
G54D37*
G01X10000Y14500D02*
Y14900D01*
X4920Y19980D01*
Y40100D01*
X9480Y44660D01*
Y51000D01*
G01X19800Y32000D02*
X20600D01*
X24530Y35930D01*
Y41030D01*
X27500Y44000D01*
X38250D01*
G01X31520Y51000D02*
X23500D01*
X15930Y43430D01*
Y39680D01*
X12000Y35750D01*
X11200D01*
G01X9500Y60000D02*
Y51020D01*
X9480Y51000D01*
G01X21000Y14500D02*
Y21000D01*
G01X38250Y44000D02*
X45750D01*
G01X31520Y51000D02*
X31500Y51020D01*
Y57000D01*
X33500Y59000D01*
G01X38250Y63100D02*
X37600D01*
X33500Y59000D01*
G01X52500Y46500D02*
Y53000D01*
G01X45750Y44000D02*
X50000D01*
X52500Y46500D01*
G01X63500Y53000D02*
X71500D01*
G01X63500Y47000D02*
Y53000D01*
G01D02*
Y62000D01*
G01X71500D02*
X63500D01*
G01X52500D02*
Y71500D01*
G01X61680Y117120D02*
X61560Y117000D01*
X52500D01*
G01X61680Y126960D02*
X61640Y127000D01*
X47500D01*
G01X126150Y137500D02*
Y134850D01*
X127500Y133500D01*
Y129850D01*
G01X130000Y154000D02*
X126150Y150150D01*
Y137500D01*
G01X127500Y170000D02*
Y168000D01*
X125530Y166030D01*
X120340D01*
G01X128500Y389500D02*
Y380500D01*
G01X151500Y49650D02*
X157350D01*
X157500Y49500D01*
G01X139500Y84000D02*
X136500Y87000D01*
Y101200D01*
G01X288150Y118700D02*
Y144300D01*
G01X307000Y101500D02*
X314200D01*
G01Y110600D02*
X323050D01*
X323150Y110500D01*
G01X330500Y124500D02*
X323150Y117150D01*
Y110500D01*
G01X361500Y258000D02*
Y267000D01*
X62500Y15000D03*
X59000Y603500D03*
X128000Y435500D03*
Y441500D03*
X351500Y611500D03*
X358500Y13500D03*
G54D64*
X137500Y165320D03*
Y185000D03*
X185500Y172320D03*
Y192000D03*
X224500Y186820D03*
Y206500D03*
G54D46*
X86750Y12500D03*
X105250D03*
X114750D03*
X133250D03*
G54D38*
X53420Y87590D03*
X64830Y97440D03*
X62860Y107280D03*
X61680Y117120D03*
Y126960D03*
X62860Y136800D03*
Y146640D03*
Y156480D03*
Y162880D03*
G54D29*
X39500Y213000D03*
X32000D03*
X354000Y267000D03*
X361500D03*
G54D65*
X141000Y219500D03*
X207000Y233000D03*
X271000Y181500D03*
G54D92*
X256540Y359940D03*
X261460D03*
G54D47*
X84950Y45500D03*
G54D83*
X216520Y268770D03*
Y266800D03*
Y290420D03*
Y288450D03*
Y286480D03*
Y284520D03*
Y282550D03*
Y280580D03*
Y278610D03*
Y276640D03*
Y274670D03*
Y272700D03*
Y270740D03*
Y304200D03*
Y302230D03*
Y300260D03*
Y298300D03*
Y296330D03*
Y294360D03*
Y292390D03*
X268480Y266800D03*
Y268770D03*
Y270740D03*
Y272700D03*
Y274670D03*
Y276640D03*
Y278610D03*
Y280580D03*
Y282550D03*
Y284520D03*
Y286480D03*
Y288450D03*
Y290420D03*
Y292390D03*
Y294360D03*
Y296330D03*
Y298300D03*
Y300260D03*
Y302230D03*
Y304200D03*
G54D74*
X154360Y570079D03*
Y572047D03*
Y574016D03*
Y575984D03*
Y577953D03*
Y579921D03*
G54D56*
X120340Y166030D03*
G54D39*
X53020Y176170D03*
G54D66*
X150610Y422500D03*
X176610Y427000D03*
X164390Y422500D03*
X190390Y427000D03*
X236610Y387390D03*
X250390D03*
G54D93*
X267000Y384500D03*
Y398280D03*
G54D57*
X121400Y219500D03*
Y224500D03*
Y229500D03*
Y234500D03*
Y239500D03*
Y244500D03*
Y249500D03*
X141000Y224500D03*
Y244500D03*
Y239500D03*
Y234500D03*
Y229500D03*
Y249500D03*
X187400Y233000D03*
Y238000D03*
Y243000D03*
Y248000D03*
X207000Y243000D03*
Y238000D03*
Y248000D03*
X251400Y181500D03*
Y186500D03*
Y191500D03*
Y196500D03*
Y201500D03*
Y206500D03*
Y211500D03*
X271000Y201500D03*
Y196500D03*
Y191500D03*
Y186500D03*
Y211500D03*
Y206500D03*
G54D84*
X215465Y486360D03*
Y493640D03*
X224525Y486360D03*
Y493640D03*
G54D48*
X77500Y337000D03*
X87500Y332000D03*
X77500Y327000D03*
X87500Y322000D03*
X130000Y154000D03*
X140000D03*
X250240Y28500D03*
X279760D03*
G54D75*
X168640Y579921D03*
Y577953D03*
Y575984D03*
Y574016D03*
Y572047D03*
Y570079D03*
G54D67*
X152189Y464791D03*
X150220D03*
X148252D03*
X146283D03*
X144315D03*
X142346D03*
X140378D03*
Y526209D03*
X142346D03*
X144315D03*
X146283D03*
X148252D03*
X150220D03*
X152189D03*
X173843Y464791D03*
X171874D03*
X169906D03*
X167937D03*
X165969D03*
X164000D03*
X162031D03*
X160063D03*
X158094D03*
X156126D03*
X154157D03*
Y526209D03*
X156126D03*
X158094D03*
X160063D03*
X162031D03*
X164000D03*
X165969D03*
X167937D03*
X169906D03*
X171874D03*
X173843D03*
X187622Y464791D03*
X185654D03*
X183685D03*
X181717D03*
X179748D03*
X177780D03*
X175811D03*
Y526209D03*
X177780D03*
X179748D03*
X181717D03*
X183685D03*
X185654D03*
X187622D03*
G54D85*
X234650Y40500D03*
X228350D03*
G54D49*
X85500Y414400D03*
Y434000D03*
X105500Y414400D03*
X100500D03*
X95500D03*
X90500D03*
Y434000D03*
X95500D03*
X100500D03*
X105500D03*
X120500Y414400D03*
X115500D03*
X110500D03*
Y434000D03*
X115500D03*
X169000Y174000D03*
X164000D03*
X159000D03*
X154000Y193600D03*
X159000D03*
X164000D03*
X169000D03*
X216000Y151900D03*
X211000D03*
X206000D03*
X201000D03*
Y171500D03*
X206000D03*
X211000D03*
X240500Y151400D03*
X235500D03*
X230500D03*
X225500D03*
Y171000D03*
X230500D03*
X235500D03*
G54D76*
X166421Y567854D03*
X164453D03*
X162484D03*
X160516D03*
X158547D03*
X156579D03*
G54D58*
X111500Y304000D03*
X343000Y208500D03*
G54D94*
X246500Y370770D03*
X271500D03*
G54D95*
X262480Y425945D03*
Y419055D03*
X267520Y425945D03*
X265000D03*
X267520Y419055D03*
X265000D03*
X286000Y571945D03*
X283480D03*
X286000Y565055D03*
X283480D03*
X293520Y419555D03*
X291000D03*
X288480D03*
X293520Y426445D03*
X291000D03*
X288480D03*
X288520Y571945D03*
Y565055D03*
X350520Y537055D03*
X348000D03*
X345480D03*
X350520Y543945D03*
X348000D03*
X345480D03*
G54D59*
X120500Y434000D03*
X154000Y174000D03*
X216000Y171500D03*
X240500Y171000D03*
G54D68*
X170000Y81000D03*
Y102700D03*
X186500Y81000D03*
Y102700D03*
X203000Y81000D03*
Y102700D03*
G54D86*
X223500Y220180D03*
Y237500D03*
X245500Y220180D03*
Y237500D03*
X260000Y330180D03*
Y347500D03*
G54D77*
X156579Y582140D03*
X158547D03*
X160516D03*
X162484D03*
X164453D03*
X166421D03*
G54D96*
X259646Y425945D03*
Y419055D03*
X270354Y425945D03*
Y419055D03*
X285646Y419555D03*
Y426445D03*
X280646Y571945D03*
Y565055D03*
X296354Y419555D03*
Y426445D03*
X291354Y571945D03*
Y565055D03*
X353354Y537055D03*
X342646D03*
X353354Y543945D03*
X342646D03*
G54D69*
X165000Y122650D03*
Y116350D03*
X157000Y122650D03*
Y116350D03*
G54D78*
X184000Y110900D03*
X177500Y111000D03*
X184000Y116500D03*
X177500Y116600D03*
G54D87*
X223800Y259520D03*
X225770D03*
X227740D03*
X229700D03*
X231670D03*
X233640D03*
X235610D03*
X237580D03*
X239550D03*
X241520D03*
Y311480D03*
X239550D03*
X237580D03*
X235610D03*
X233640D03*
X231670D03*
X229700D03*
X227740D03*
X225770D03*
X223800D03*
X243480Y259520D03*
X245450D03*
X247420D03*
X249390D03*
X251360D03*
X253330D03*
X255300D03*
X257260D03*
X259230D03*
X261200D03*
Y311480D03*
X259230D03*
X257260D03*
X255300D03*
X253330D03*
X251360D03*
X249390D03*
X247420D03*
X245450D03*
X243480D03*
G54D88*
X234055Y460520D03*
Y458000D03*
Y455480D03*
X240945Y460520D03*
Y458000D03*
Y455480D03*
G54D97*
X258677Y449551D03*
Y451520D03*
Y453488D03*
Y455457D03*
Y457425D03*
Y459394D03*
Y461362D03*
Y463331D03*
Y465299D03*
Y467268D03*
Y469236D03*
Y471205D03*
Y473173D03*
Y475142D03*
Y477110D03*
Y479079D03*
Y481047D03*
Y483016D03*
Y484984D03*
Y486953D03*
Y488921D03*
Y490890D03*
Y492858D03*
Y494827D03*
Y496795D03*
Y498764D03*
Y500732D03*
Y502701D03*
Y504669D03*
Y506638D03*
Y508606D03*
Y510575D03*
Y512543D03*
Y514512D03*
Y516480D03*
Y518449D03*
X343323Y469236D03*
Y467268D03*
Y465299D03*
Y463331D03*
Y461362D03*
Y459394D03*
Y457425D03*
Y455457D03*
Y453488D03*
Y451520D03*
Y449551D03*
Y490890D03*
Y488921D03*
Y486953D03*
Y484984D03*
Y483016D03*
Y481047D03*
Y479079D03*
Y477110D03*
Y475142D03*
Y473173D03*
Y471205D03*
Y512543D03*
Y510575D03*
Y508606D03*
Y506638D03*
Y504669D03*
Y502701D03*
Y500732D03*
Y498764D03*
Y496795D03*
Y494827D03*
Y492858D03*
Y518449D03*
Y516480D03*
Y514512D03*
G54D79*
X183800Y270500D03*
X197000D03*
X183800Y282500D03*
X197000D03*
G54D89*
X234055Y463354D03*
X240945D03*
X234055Y452646D03*
X240945D03*
G54D98*
X275100Y67700D03*
Y60300D03*
X320100Y128800D03*
Y136200D03*
G54D99*
X283000Y64000D03*
X328000Y132500D03*
M02*
