G04 ================== begin FILE IDENTIFICATION RECORD ==================*
G04 Layout Name:  P:/Midtronics/184-000309-RevA/pcb/allegro/184-000309RevA.brd*
G04 Film Name:    LAYER_4_BOTTOM*
G04 File Format:  Gerber RS274X*
G04 File Origin:  Cadence Allegro 16.6-S033*
G04 Origin Date:  Mon Aug 25 10:18:23 2014*
G04 *
G04 Layer:  VIA CLASS/BOTTOM*
G04 Layer:  PIN/BOTTOM*
G04 Layer:  ETCH/BOTTOM*
G04 *
G04 Offset:    (0.00 0.00)*
G04 Mirror:    No*
G04 Mode:      Positive*
G04 Rotation:  0*
G04 FullContactRelief:  No*
G04 UndefLineWidth:     5.00*
G04 ================== end FILE IDENTIFICATION RECORD ====================*
%FSLAX25Y25*MOIN*%
%IR0*IPPOS*OFA0.00000B0.00000*MIA0B0*SFA1.00000B1.00000*%
%ADD28O,.06X.1*%
%ADD24O,.1X.06*%
%ADD10C,.03*%
%ADD26C,.04*%
%ADD13C,.05*%
%ADD15C,.06*%
%ADD22C,.025*%
%ADD17C,.07*%
%ADD23C,.08*%
%ADD12C,.035*%
%ADD19C,.09*%
%ADD29C,.048*%
%ADD21C,.075*%
%ADD25R,.07X.07*%
%ADD18C,.1*%
%ADD27C,.11*%
%ADD30C,.12*%
%ADD11C,.13*%
%ADD16C,.15*%
%ADD20C,.25*%
%ADD14C,.125*%
%ADD31C,.01*%
%ADD32C,.02*%
%ADD33C,.005*%
G75*
%LPD*%
G75*
G36*
G01X95500Y219500D02*
Y305500D01*
X23000D01*
Y268500D01*
X45500D01*
Y219500D01*
X66000D01*
Y213000D01*
X75000D01*
Y219500D01*
X95500D01*
G37*
G36*
G01X70000Y22000D02*
Y78500D01*
X105714D01*
G03X115286I4786J6630D01*
G01X121000D01*
Y22000D01*
X70000D01*
G37*
G36*
G01X325800Y90500D02*
X274600D01*
Y108700D01*
X279900Y114000D01*
X325800D01*
Y90500D01*
G37*
G54D10*
G01X329079Y368393D02*
Y359550D01*
X328779Y359250D01*
Y355000D01*
G01X343921Y369000D02*
Y355007D01*
X9500Y60000D03*
X7500Y184500D03*
X10000Y206000D03*
X17000Y227000D03*
X19500Y327500D03*
X15000Y505450D03*
Y496000D03*
X14150Y536500D03*
Y546500D03*
X21000Y21000D03*
X42000Y57500D03*
X33500Y59000D03*
X32000Y218500D03*
X30000Y256000D03*
X35000Y343000D03*
X25500Y500500D03*
X26000Y542050D03*
X25500Y559000D03*
X52500Y46500D03*
X63500Y47000D03*
X52500Y71500D03*
X47500Y127000D03*
X61500Y188000D03*
Y393000D03*
X64750Y598250D03*
X81000Y8000D03*
Y17000D03*
Y12500D03*
X80000Y378500D03*
Y385500D03*
X81500Y434000D03*
X76180Y559820D03*
Y547500D03*
X84980Y553500D03*
X86731Y573892D03*
X82150Y562150D03*
X98000Y95000D03*
X103000Y175000D03*
X94500Y169000D03*
X109750Y175250D03*
X88000Y195500D03*
X104500Y182500D03*
X93500Y200000D03*
X98000Y213000D03*
X96000Y361500D03*
X105500Y424500D03*
Y407000D03*
Y441500D03*
X105047Y448000D03*
X95715Y452500D03*
X105047Y457000D03*
X109000Y482000D03*
X106500Y474000D03*
X109050Y551350D03*
X90350Y578050D03*
X97000Y589000D03*
X128000Y83500D03*
X113000Y171000D03*
X122000Y182500D03*
X122500Y195500D03*
X131000Y217500D03*
Y203500D03*
X119000Y215500D03*
X128600Y234500D03*
X114000Y236000D03*
X113500Y229500D03*
X117500Y264000D03*
Y271000D03*
X129000Y275500D03*
X128500Y374000D03*
X120500Y394000D03*
X110500Y389500D03*
X128500Y423500D03*
X126000Y447000D03*
X125500Y469500D03*
X127500Y465500D03*
X126000Y489500D03*
Y477000D03*
X120850Y514950D03*
X109500Y503500D03*
Y496500D03*
X127000Y500000D03*
Y505000D03*
X113500Y525000D03*
X128000Y523000D03*
X120900Y560500D03*
X129500Y582000D03*
X120900Y570500D03*
X113500Y570000D03*
Y589000D03*
X151000Y67500D03*
X147000Y56500D03*
X151000Y79500D03*
X148000Y232500D03*
X144000Y265000D03*
X151000Y257000D03*
X148200Y249500D03*
X143000Y281000D03*
X147000Y277500D03*
X136000Y275500D03*
X153500Y285500D03*
X151500Y277500D03*
X144000Y270500D03*
X150000Y293500D03*
X144050Y300000D03*
X149500Y299500D03*
X152000Y349000D03*
X150500Y368500D03*
X132000D03*
X140150Y448650D03*
X136814Y459907D03*
X149500Y458500D03*
X145250Y458223D03*
X141250Y458250D03*
X139902Y470636D03*
X153500Y489500D03*
X151500Y485000D03*
X141250Y476635D03*
X149000Y473000D03*
X153001Y514127D03*
X144500Y509000D03*
X140000Y507000D03*
X148318Y514318D03*
X136500Y530000D03*
X140500Y517500D03*
X145318Y517683D03*
X152000Y518000D03*
X149000Y533000D03*
X138001Y535989D03*
X148500Y552500D03*
X138000Y545500D03*
X150500Y539500D03*
X137497Y540990D03*
X152900Y566500D03*
X150500Y578000D03*
X147500Y563450D03*
X150527Y572050D03*
X134000Y582000D03*
X149500Y604000D03*
X153488Y583500D03*
X160000Y73500D03*
X154500Y93000D03*
Y109500D03*
X155500Y143000D03*
X164000Y181500D03*
X175000Y217000D03*
X164000Y232000D03*
X172000Y236500D03*
X165500Y258000D03*
Y254000D03*
X154500Y265240D03*
X155500Y277500D03*
X165500Y288500D03*
X169000Y301000D03*
X170500Y347500D03*
X166000Y352000D03*
X163000Y358000D03*
X169000Y357000D03*
X173500D03*
X158500Y349000D03*
X154500Y344500D03*
X166370Y392500D03*
X165000Y410000D03*
X175500Y441500D03*
X154150Y458500D03*
X160500D03*
X173000Y458958D03*
X166318Y458361D03*
X155500Y482500D03*
X156000Y475000D03*
X168500Y483000D03*
X174661Y510839D03*
X166500Y504000D03*
X173810Y499191D03*
X160750Y518250D03*
X157250Y533750D03*
X172500Y559000D03*
X167910Y550590D03*
X164500Y554339D03*
X172000Y582000D03*
X164450Y563170D03*
X172447Y577000D03*
X159403Y589935D03*
X163500Y587500D03*
X174000Y602000D03*
X182000Y134000D03*
X177500D03*
X196500Y117000D03*
X187500Y148500D03*
X183500Y222500D03*
X192500Y213500D03*
X183500Y228500D03*
X195000Y243000D03*
X177000Y251000D03*
X195000Y248000D03*
X185500Y257000D03*
X177000Y286500D03*
Y270500D03*
X183500Y290500D03*
X198500Y300500D03*
X182500Y357000D03*
X177500D03*
X192000Y393000D03*
X188500Y383000D03*
X179249Y392751D03*
X182500Y441500D03*
X191500Y435500D03*
X184500Y437500D03*
X197500Y459000D03*
X193612Y461130D03*
X197934Y452500D03*
X177000Y458952D03*
X191000Y458100D03*
X179750Y471000D03*
X188090Y489590D03*
X181720Y520000D03*
X180900Y532400D03*
X191500Y551500D03*
X197500Y550000D03*
X189500Y539000D03*
X191500Y572650D03*
X180500Y579700D03*
Y571500D03*
X180648Y600148D03*
X187500Y584000D03*
X219500Y134500D03*
X208500Y117000D03*
X220500Y151000D03*
X200000Y137000D03*
X203500Y164500D03*
X218500Y187000D03*
X215000Y181000D03*
X218000Y211500D03*
X217000Y233500D03*
X216000Y242850D03*
X214500Y238000D03*
X207500Y264500D03*
Y257000D03*
X214300Y247600D03*
X203500Y258500D03*
X219000Y248000D03*
X203000Y252500D03*
X210500Y272500D03*
X205030D03*
X209500Y286500D03*
X210500Y297500D03*
X202500Y300500D03*
X218000Y324500D03*
Y337000D03*
X216500Y357500D03*
X203500Y383000D03*
X208500D03*
X221000Y422000D03*
X208000Y422500D03*
X214500D03*
X204500Y448000D03*
X200486Y455581D03*
X217500Y450000D03*
X211000Y466500D03*
X216553Y459031D03*
X210900Y472500D03*
X210247Y480500D03*
X201000Y487000D03*
X216650Y498252D03*
X201332Y501016D03*
X201000Y495000D03*
X208500Y527016D03*
X202220Y550000D03*
X205500Y539000D03*
X215020Y574500D03*
Y563000D03*
X209900Y574500D03*
X235000Y134500D03*
Y129500D03*
X221500Y171500D03*
X232500Y164000D03*
X227500Y158500D03*
X237000Y201000D03*
X229500Y220500D03*
X239500Y219500D03*
X233000Y245500D03*
X229500Y242500D03*
X227000Y246000D03*
X237500Y238500D03*
X234500Y230500D03*
X226500Y252000D03*
X238500Y253500D03*
Y267500D03*
X242500D03*
X222500D03*
X226500D03*
X238000Y280000D03*
X236500Y286500D03*
X232500Y288500D03*
X225996Y305805D03*
X222000Y306000D03*
X240000Y296500D03*
X236500Y294500D03*
X234500Y328000D03*
Y323000D03*
X230000Y348500D03*
X237173D03*
X233000Y366000D03*
X233500Y371500D03*
X239241Y377076D03*
X228500Y393000D03*
X237650Y418000D03*
X228000Y422500D03*
X243000Y429150D03*
X231000Y442500D03*
X230000Y449000D03*
X228500Y459500D03*
X229500Y463500D03*
Y455000D03*
X230000Y474000D03*
X229585Y486360D03*
X240000Y489000D03*
X230500Y513500D03*
Y497000D03*
Y503000D03*
X224525Y498205D03*
X225000Y537500D03*
X235500Y534760D03*
X226500Y549500D03*
X231000D03*
X234500Y551870D03*
X225950Y574500D03*
X232526Y564474D03*
X238000Y565500D03*
X221850Y584604D03*
X265000Y84000D03*
Y73500D03*
X265500Y98000D03*
X250000Y103000D03*
X260000Y231500D03*
X265000Y259500D03*
X250500Y265500D03*
X262500D03*
X258500D03*
X247000Y267500D03*
X254500Y265500D03*
X258000Y289500D03*
X248000Y291500D03*
X245074Y305571D03*
X260000Y301500D03*
X255000D03*
X262500Y293500D03*
X244500D03*
X246500Y331500D03*
X249500Y327000D03*
X250500Y323000D03*
X254000Y326500D03*
X257000Y321500D03*
X261000D03*
X265000D03*
X255000Y377500D03*
X257810Y387390D03*
X256201Y419055D03*
X259445Y415055D03*
X247000Y443200D03*
X258500Y430000D03*
X259400Y446100D03*
X263275Y440298D03*
X264750Y460000D03*
X245000Y456500D03*
X264386Y452000D03*
X245500Y463354D03*
X245000Y452500D03*
X265000Y486500D03*
X264550Y478050D03*
X251000Y492250D03*
X247842Y473842D03*
X252850Y480250D03*
X264500Y498500D03*
X249500Y500250D03*
X250500Y508250D03*
X258000Y534500D03*
X246000Y535000D03*
X247500Y529000D03*
X252500D03*
X265500Y516500D03*
X265000Y551500D03*
X260000Y556000D03*
X246000Y543000D03*
X253050Y573650D03*
X259500Y565500D03*
X252000Y563500D03*
X244000Y565000D03*
X270500Y60500D03*
X271000Y85000D03*
X282500Y93500D03*
Y97500D03*
Y109500D03*
Y105500D03*
Y101500D03*
X270500Y134500D03*
X268500Y145000D03*
X274000Y150000D03*
X285398Y177263D03*
X280000Y162500D03*
X281000Y196500D03*
Y216000D03*
X278000Y239000D03*
X286000Y228500D03*
X267500Y239500D03*
X267000Y254500D03*
X273000Y251000D03*
X280500Y267500D03*
X266000Y248500D03*
X271000Y257500D03*
X278000Y251500D03*
X279000Y261000D03*
X275500Y291500D03*
X286500Y295000D03*
X280500Y303500D03*
X274842Y297842D03*
X266000Y330500D03*
X280500Y325000D03*
X281000Y341450D03*
X266000Y347500D03*
X279500Y380500D03*
X274003Y421950D03*
X286500Y415002D03*
X282201Y419500D03*
X273799Y425945D03*
X273555Y416500D03*
X282500Y448000D03*
X286930D03*
X284000Y434500D03*
X273300Y430300D03*
X279991Y436010D03*
X283500Y430115D03*
X278000Y448000D03*
X272699Y447712D03*
X269000Y478000D03*
X285000Y494065D03*
X279500Y533500D03*
X274540Y535340D03*
X287500Y534246D03*
X269000Y532500D03*
X270000Y516500D03*
X286000Y552500D03*
X276000Y556000D03*
X282506Y547506D03*
X266150Y576000D03*
X276772Y571305D03*
X278000Y582500D03*
X302000Y93500D03*
Y109500D03*
X301500Y101500D03*
X297000D03*
X298500Y142500D03*
X291500Y168000D03*
X303500Y166500D03*
X307000Y225000D03*
X304000Y233500D03*
X291000Y286000D03*
X307500Y282100D03*
X290692Y281692D03*
X290753Y290000D03*
X308220Y299018D03*
X303500Y295000D03*
X296000Y318000D03*
X303689Y345959D03*
X299000Y348500D03*
X297300Y365200D03*
X293500Y367878D03*
X303999Y389000D03*
X304000Y393500D03*
X305500Y400500D03*
X308500Y419000D03*
X299535Y408466D03*
X302316Y416815D03*
X294500Y414500D03*
X290500Y415000D03*
X298404Y412500D03*
X301980Y447500D03*
X288085Y434587D03*
X300982Y433166D03*
X304133Y435631D03*
X301500Y428350D03*
X297694Y435445D03*
X288750Y458250D03*
X295000Y454500D03*
X306000Y449500D03*
X304746Y465777D03*
X306000Y494000D03*
X302500Y500500D03*
X301500Y495500D03*
X290500Y519000D03*
X298500Y532000D03*
X309000Y551500D03*
X305000D03*
X296500Y558500D03*
X292000D03*
X300500Y559500D03*
X291000Y551500D03*
X300500D03*
X290650Y576050D03*
X294995Y565055D03*
X289500Y585000D03*
X327500Y63000D03*
X315500D03*
X330000Y88000D03*
Y106000D03*
Y97000D03*
X315500Y129000D03*
X330000Y115000D03*
X326500Y245500D03*
X317000Y245000D03*
X327094Y262259D03*
X317000Y283000D03*
X324500Y277000D03*
X318500Y305500D03*
X325453Y304547D03*
X324000Y320500D03*
X318000Y368500D03*
X311000D03*
X324500D03*
X329079Y368393D03*
X331500Y374500D03*
X324500D03*
X322000Y387850D03*
X322500Y401500D03*
X316000Y392500D03*
Y388500D03*
X322000Y397500D03*
X317500Y397000D03*
X313000Y419000D03*
X317000D03*
X331050Y423650D03*
X324500Y436000D03*
X329250Y435750D03*
X319450Y435950D03*
X317749Y465770D03*
X330500Y463000D03*
Y467500D03*
Y472500D03*
X327500Y477500D03*
X318000Y485000D03*
X314000Y489000D03*
X310500Y492500D03*
X325000Y473000D03*
X317500Y475500D03*
X329000Y514000D03*
X324500D03*
X321500Y517000D03*
X317747Y519669D03*
X325500Y532500D03*
X310500Y520000D03*
Y533000D03*
X330000Y532500D03*
X315459Y533042D03*
X313000Y551500D03*
X320000Y556500D03*
X319000Y551500D03*
X327500D03*
X323000D03*
X320500Y563500D03*
X352500Y33000D03*
X349500Y275500D03*
X350500Y289850D03*
X338000Y307000D03*
X350500Y303000D03*
X347450Y327300D03*
X348000Y316500D03*
Y331500D03*
Y356500D03*
X352500D03*
X343921Y355007D03*
X348000Y363000D03*
X352500D03*
X343921Y369000D03*
X343450Y400000D03*
X340500Y392500D03*
X347500Y389500D03*
X343450Y395500D03*
X336550Y411000D03*
X342141Y404859D03*
X350000Y417000D03*
X340100Y427500D03*
X337500Y467270D03*
X350000Y451000D03*
Y455500D03*
Y469000D03*
X335056Y453701D03*
X336733Y457793D03*
X350000Y486000D03*
X349500Y491500D03*
X350165Y481158D03*
X337000Y507693D03*
X350434Y503631D03*
X350663Y508013D03*
X349000Y514000D03*
X350601Y499122D03*
X337797Y501693D03*
X335000Y513659D03*
X333265Y499795D03*
X351000Y533000D03*
X338860Y526679D03*
X333000Y551500D03*
X348000Y550500D03*
X339201Y543945D03*
X334000Y568000D03*
X341000D03*
X350500Y563350D03*
X338500Y614000D03*
X361500Y170500D03*
X360000Y202000D03*
X359850Y223000D03*
X360000Y238000D03*
X356750Y308586D03*
X362500Y308000D03*
X367000Y334500D03*
X363500Y343000D03*
X359000D03*
X359074Y347429D03*
X363500Y347500D03*
X365000Y377000D03*
X357050Y401500D03*
X362500Y398500D03*
X358500Y393000D03*
X357500Y397500D03*
X365000Y385500D03*
X357500Y388800D03*
X357050Y408500D03*
X359500Y444500D03*
X367000Y465500D03*
Y458500D03*
Y451500D03*
Y486500D03*
Y472500D03*
Y479500D03*
Y507500D03*
Y500500D03*
Y493500D03*
Y514500D03*
Y521500D03*
Y528500D03*
X358500Y537060D03*
X359499Y542500D03*
X366521Y563384D03*
G54D20*
X70500Y280500D03*
G54D11*
X16000Y195000D03*
X76000D03*
G54D30*
X353000Y48500D03*
Y153500D03*
G54D21*
X52500Y314500D03*
Y344500D03*
X170000Y52300D03*
X203000D03*
G54D12*
X10000Y254500D03*
X32000Y263000D03*
X29000Y509500D03*
X33000Y551000D03*
X31500Y540500D03*
X40500Y541000D03*
X55000Y156500D03*
X77000Y350500D03*
X86000Y371650D03*
X81000Y509000D03*
X87500Y524000D03*
X78500Y582500D03*
X83650Y595500D03*
X105500Y157000D03*
X94000Y163500D03*
X98500Y182500D03*
X102000Y234700D03*
X97000Y376500D03*
X95854Y442146D03*
X108500Y533000D03*
X108750Y558650D03*
X96750Y582000D03*
X106920Y599000D03*
X102000D03*
X95420Y595159D03*
X104633Y589367D03*
X126500Y9500D03*
X127500Y170000D03*
X132500Y241000D03*
X132250Y249250D03*
X119500Y278500D03*
X132000Y289700D03*
X122500Y303500D03*
X122000Y319000D03*
X112500Y406500D03*
X126500Y482500D03*
X127000Y514318D03*
X126750Y494750D03*
X120500Y523000D03*
X126000Y532500D03*
X132500Y526000D03*
X110500Y518500D03*
X132000Y553000D03*
X118656Y551344D03*
X114530Y575149D03*
X131530Y599000D03*
X126600D03*
X121680D03*
X116760D03*
X111840D03*
X122000Y588500D03*
X139500Y84000D03*
X147500Y165320D03*
X146500Y183500D03*
X148250Y243250D03*
X144000Y259500D03*
X149000Y305500D03*
X145500Y380500D03*
X146000Y393000D03*
X155000Y385500D03*
X148000Y412400D03*
X149500Y478409D03*
X140000Y500000D03*
X151356Y523721D03*
X141000Y577000D03*
X145500Y570500D03*
X141370Y599000D03*
X136450D03*
X137500Y591000D03*
X176500Y140500D03*
X169000Y163500D03*
X177000Y183500D03*
X166500Y237000D03*
X169000Y366500D03*
X165622Y385500D03*
X172689Y392926D03*
X159500Y415000D03*
X172250Y417000D03*
X159966Y428723D03*
X170855Y436354D03*
X158677Y490823D03*
X166500Y472000D03*
X160500Y480000D03*
X169500Y495250D03*
X162500Y534050D03*
X171500Y541000D03*
X169850Y564000D03*
X170500Y589500D03*
X169000Y606500D03*
X187889Y137889D03*
X185000Y201050D03*
X199300Y188700D03*
X195000Y237500D03*
X180000Y255500D03*
X191000Y261700D03*
X191500Y299000D03*
X177500Y375000D03*
X187100Y399100D03*
X191500Y387500D03*
X183500Y387650D03*
X191000Y418500D03*
X193500Y448023D03*
X181500Y486000D03*
X197500Y534500D03*
X184593Y536825D03*
X182550Y557500D03*
X193500Y563500D03*
X186250Y566750D03*
X199000Y574000D03*
X179000Y566000D03*
X210000Y161000D03*
X218000Y199000D03*
X201500Y212850D03*
X216000Y227000D03*
X219750Y253250D03*
X217500Y311500D03*
X211000Y316000D03*
X218000Y331000D03*
X220500Y319000D03*
X215000Y343000D03*
X216498Y351250D03*
X210500Y357000D03*
X208500Y369000D03*
X201000Y419000D03*
X222000Y459200D03*
Y525250D03*
X212500Y530500D03*
X219500Y537750D03*
X208000Y551000D03*
X203105Y563095D03*
X204500Y574500D03*
X238500Y102000D03*
Y120000D03*
X238000Y158500D03*
X226000Y287500D03*
X230048Y330783D03*
X237020Y342250D03*
X234500Y358500D03*
X224000Y339500D03*
X226500Y358500D03*
X236500Y401500D03*
X244350Y417800D03*
X238000Y574400D03*
X232526Y585000D03*
X235000Y607000D03*
X256500Y107000D03*
X249800Y92500D03*
X248500Y130500D03*
X261174Y158324D03*
X244500Y171500D03*
X251500Y238000D03*
X256500Y252500D03*
X261000Y328500D03*
X254000Y341000D03*
X266500Y355000D03*
X250500Y360500D03*
X253600Y446100D03*
X248500Y571000D03*
X264500Y568500D03*
X253531Y585783D03*
X265500Y586000D03*
X283000Y129000D03*
X282500Y137500D03*
X289000Y239500D03*
X279988Y294988D03*
X285750Y301250D03*
X282500Y332000D03*
X275500Y341000D03*
X288750Y348250D03*
X279105Y427242D03*
X283500Y463408D03*
X277000Y455000D03*
X288500Y471000D03*
X279931Y490293D03*
X275372Y515371D03*
X272500Y504000D03*
X285000Y519500D03*
X268757Y540243D03*
X284283Y558716D03*
X273000Y575500D03*
X271350Y570600D03*
X276500Y565055D03*
X307000Y101500D03*
X304000Y172000D03*
X291500Y162500D03*
Y228500D03*
X299250Y282500D03*
X307613Y327050D03*
X311000Y374500D03*
X293500Y445500D03*
X310000Y435500D03*
X310566Y465040D03*
X306250Y474250D03*
X289500Y502000D03*
X302000Y519500D03*
X302500Y566000D03*
X294705Y571464D03*
X330500Y124500D03*
X328000Y137000D03*
X317000Y159500D03*
X320000Y197350D03*
X314500Y215200D03*
X316500Y258350D03*
X319500Y298000D03*
X331000Y319708D03*
X328779Y355000D03*
X318000Y374500D03*
X311581Y447920D03*
X324000Y467000D03*
X323000Y481500D03*
X315000Y514500D03*
X320000Y505500D03*
X331500Y507500D03*
X328000Y498000D03*
X323216Y597706D03*
X346999Y14499D03*
X348700Y269000D03*
X337000Y276500D03*
X341500Y294000D03*
X348500Y337000D03*
X337500Y338000D03*
X354769Y372097D03*
X343501Y423500D03*
X354000Y446500D03*
X341000Y433000D03*
X338500Y482500D03*
X350000Y475000D03*
X345500Y521790D03*
X338725Y532000D03*
X350750Y527375D03*
X353500Y550500D03*
X348000Y540500D03*
X342097Y550098D03*
X335500Y574000D03*
X364850Y45000D03*
X357000Y243000D03*
X363250Y424250D03*
X356000Y504000D03*
G54D31*
G01X55000Y156500D02*
X35500D01*
X7500Y184500D01*
G01X147500Y563450D02*
X145378Y565572D01*
X134428D01*
X121601Y578399D01*
X94602D01*
X91801Y581200D01*
X86701D01*
X75001Y569500D01*
X69999D01*
X54749Y554250D01*
X28250D01*
X20000Y546000D01*
Y533001D01*
X23000Y530001D01*
Y514401D01*
X18000Y509401D01*
Y497500D01*
X23000Y492500D01*
X75000D01*
X83000Y484500D01*
Y455000D01*
X95854Y442146D01*
G01X119500Y278500D02*
X113000Y285000D01*
Y291000D01*
X91500Y312500D01*
X76500D01*
X62000Y327000D01*
X33000D01*
X20500Y314500D01*
Y265500D01*
X30000Y256000D01*
G01X19500Y327500D02*
X35000Y343000D01*
G01X285000Y519500D02*
X280501D01*
X278844Y521157D01*
X275784D01*
X273441Y523500D01*
X264954D01*
X259204Y529250D01*
X258218D01*
X249468Y538000D01*
X243528D01*
X236288Y530760D01*
X233802D01*
X232062Y532500D01*
X215097D01*
X213847Y533750D01*
X211153D01*
X209250Y531847D01*
Y531593D01*
X207673Y530016D01*
X204257D01*
X204241Y530000D01*
X203257D01*
X201273Y528016D01*
X190141D01*
X187525Y525400D01*
X172905D01*
X172505Y525000D01*
X162501Y515000D01*
X160946D01*
X155073Y509127D01*
X148870D01*
X143743Y504000D01*
X135499D01*
X131499Y508000D01*
X125757D01*
X124257Y506500D01*
X108257D01*
X105257Y503500D01*
X52999D01*
X46749Y497250D01*
X24153D01*
X22500Y498903D01*
Y508243D01*
X27000Y512743D01*
Y537500D01*
X26000Y538500D01*
Y542050D01*
G01X173000Y458958D02*
X169265Y455223D01*
X144007D01*
X143980Y455250D01*
X135750D01*
X130500Y460500D01*
X93499D01*
X86500Y467499D01*
Y483829D01*
X75329Y495000D01*
X23574D01*
X20500Y498074D01*
Y509072D01*
X25000Y513572D01*
Y532000D01*
X23000Y534000D01*
Y545500D01*
X28500Y551000D01*
X33000D01*
G01X81000Y509000D02*
X78500Y511500D01*
X45000D01*
X43500Y513000D01*
X35999D01*
X33000Y510001D01*
Y508000D01*
X25500Y500500D01*
G01X29000Y509500D02*
X36500Y517000D01*
Y542500D01*
X46250Y552250D01*
X57251D01*
X69273Y564272D01*
X80028D01*
X82150Y562150D01*
G01X78500Y582500D02*
X83500D01*
X86500Y585500D01*
X102999D01*
X107499Y581000D01*
X126001D01*
X128501Y578500D01*
X130500D01*
X134000Y582000D01*
G01X105500Y157000D02*
X99000Y163500D01*
Y169500D01*
X93000Y175500D01*
Y184500D01*
X103000Y194500D01*
X117500D01*
X118500Y195500D01*
X122500D01*
G01X103000Y175000D02*
X106500Y178500D01*
X108500D01*
X120000Y190000D01*
X134500D01*
X148500Y204000D01*
X178500D01*
X212500Y238000D01*
X214500D01*
G01X94000Y163500D02*
X86500Y171000D01*
Y186000D01*
X112500Y212000D01*
X174500D01*
X178500Y216000D01*
Y231500D01*
X195000Y248000D01*
G01Y243000D02*
X191500Y239500D01*
Y226000D01*
X175500Y210000D01*
X114000D01*
X89500Y185500D01*
Y174000D01*
X94500Y169000D01*
G01X98500Y182500D02*
X108000Y192000D01*
X133500D01*
X147500Y206000D01*
X177500D01*
X205000Y233500D01*
Y244000D01*
X226500Y265500D01*
Y267500D01*
G01X96000Y361500D02*
X103500Y369000D01*
G01X296000Y318000D02*
X292000D01*
X291000Y319000D01*
X285815D01*
X283815Y317000D01*
X274644D01*
X272000Y314356D01*
Y314355D01*
X268109Y310464D01*
Y310463D01*
X266646Y309000D01*
X266644D01*
X266643Y308999D01*
X262501D01*
X262500Y309000D01*
X237677D01*
X228482Y299805D01*
X216196D01*
X213001Y303000D01*
X207671D01*
X205500Y300829D01*
Y299257D01*
X203743Y297500D01*
X197257D01*
X195500Y299257D01*
Y301500D01*
X194000Y303000D01*
X174171D01*
X138250Y338921D01*
Y399750D01*
X95854Y442146D01*
G01X126000Y477000D02*
X109500D01*
X106500Y474000D01*
G01X100000Y508500D02*
X120000D01*
X125818Y514318D01*
X127000D01*
G01X87500Y524000D02*
Y533750D01*
X88500Y534750D01*
Y567999D01*
X94001Y573500D01*
X105501D01*
X112001Y567000D01*
X120157D01*
X125657Y561500D01*
X130001D01*
X145911Y545590D01*
X175091D01*
X180001Y550500D01*
X182976D01*
X187447Y554971D01*
X195529D01*
X197500Y553000D01*
Y550000D01*
G01X86731Y573892D02*
X90651D01*
X92759Y576000D01*
X109429D01*
X110280Y575149D01*
X114530D01*
G01X100000Y568500D02*
X106500D01*
X122000Y553000D01*
X132000D01*
G01X153488Y583500D02*
X150488D01*
X148988Y585000D01*
X109000D01*
X104633Y589367D01*
G01D02*
X102000Y592000D01*
Y599000D01*
G01X122000Y588500D02*
X118643D01*
X114143Y593000D01*
X112920D01*
X106920Y599000D01*
G01X109750Y175250D02*
X121500Y187000D01*
X134500D01*
X149500Y202000D01*
X181353D01*
X183653Y204300D01*
X183800D01*
X185500Y206000D01*
X206000D01*
X226500Y226500D01*
X244500D01*
X252750Y234750D01*
X252847D01*
X254750Y236653D01*
Y236750D01*
X260000Y242000D01*
Y254000D01*
X255500Y258500D01*
X251000D01*
X246500Y263000D01*
Y267000D01*
X247000Y267500D01*
G01X122500Y195500D02*
X134000D01*
X146500Y208000D01*
X176500D01*
X203000Y234500D01*
Y245000D01*
X222500Y264500D01*
Y267500D01*
G01X122000Y319000D02*
Y310000D01*
X126000Y306000D01*
Y285500D01*
X127000Y284500D01*
X136000D01*
G01X129000Y275500D02*
X132500Y272000D01*
X138000D01*
X140000Y274000D01*
Y283500D01*
X145000Y288500D01*
X158000D01*
X167243Y279257D01*
X203861D01*
X205618Y277500D01*
X230000D01*
X235000Y272500D01*
X246243D01*
X250243Y268500D01*
X251743D01*
X253500Y266743D01*
Y266540D01*
X254500Y265540D01*
Y265500D01*
G01X122500Y303500D02*
X124000Y302000D01*
Y284500D01*
X129000Y279500D01*
Y275500D01*
G01X127500Y465500D02*
X134000Y472000D01*
Y485559D01*
X153567Y505126D01*
X156730D01*
X162603Y510999D01*
X164660D01*
X171500Y517839D01*
X177562D01*
X178651Y516750D01*
X184533D01*
X191799Y524016D01*
X210687D01*
X217171Y530500D01*
X231233D01*
X232973Y528760D01*
X237117D01*
X240357Y532000D01*
X249500D01*
X252500Y529000D01*
G01X148318Y514318D02*
X127000D01*
G01X120500Y523000D02*
X128000D01*
G01X202220Y550000D02*
Y553000D01*
X198249Y556971D01*
X186618D01*
X182647Y553000D01*
X178999D01*
X173589Y547590D01*
X148118D01*
X120559Y575149D01*
X114530D01*
G01X111840Y599000D02*
X119090Y591750D01*
X128347D01*
X129097Y591000D01*
X137500D01*
G01X122000Y588500D02*
X130999D01*
X131749Y587750D01*
X152079D01*
X153329Y586500D01*
X162500D01*
X163500Y587500D01*
G01X116760Y599000D02*
X121260Y594500D01*
X165500D01*
X170500Y589500D01*
G01X151000Y257000D02*
X154000Y254000D01*
X165500D01*
G01X205030Y272500D02*
X202030D01*
X199908Y274622D01*
X165878D01*
X158000Y282500D01*
X144500D01*
X143000Y281000D01*
G01X147000Y277500D02*
X150000Y280500D01*
X157000D01*
X170000Y267500D01*
X193000D01*
X199000Y261500D01*
X205500D01*
X207500Y259500D01*
Y257000D01*
G01X258500Y265500D02*
Y268500D01*
X256502Y270498D01*
X252574D01*
X252572Y270500D01*
X251072D01*
X247072Y274500D01*
X236000D01*
X231000Y279500D01*
X206524D01*
X204767Y281257D01*
X168243D01*
X159000Y290500D01*
X142000D01*
X136000Y284500D01*
G01D02*
Y275500D01*
G01X180000Y255500D02*
Y259750D01*
X179481Y260269D01*
Y260519D01*
X176500Y263500D01*
X163500D01*
X151500Y275500D01*
Y277500D01*
G01X132000Y289700D02*
X138800Y296500D01*
X161000D01*
X163500Y294000D01*
X167513D01*
X168513Y293000D01*
X171161D01*
X171162Y292999D01*
X181001D01*
X183500Y290500D01*
G01X150000Y293500D02*
X160500D01*
X162000Y292000D01*
X166684D01*
X167684Y291000D01*
X170332D01*
X170333Y290999D01*
X178001D01*
X183743Y285257D01*
X206500D01*
X208257Y283500D01*
X233007D01*
X233507Y283000D01*
X239243D01*
X241743Y280500D01*
X249559D01*
X251559Y278500D01*
X253559Y276501D01*
X253560Y276500D01*
X261000D01*
X267500Y270000D01*
Y262000D01*
X265000Y259500D01*
G01X260000Y301500D02*
X257000Y298500D01*
X242243D01*
X241243Y299500D01*
X236664D01*
X233170Y296006D01*
Y296004D01*
X230666Y293500D01*
X222000D01*
X218000Y289500D01*
X190000D01*
X184500Y295000D01*
X169342D01*
X168342Y296000D01*
X164500D01*
X161000Y299500D01*
X149500D01*
G01X149000Y305500D02*
X152000Y302500D01*
X161000D01*
X165500Y298000D01*
X169171D01*
X170171Y297000D01*
X185500D01*
X191000Y291500D01*
X216000D01*
X220305Y295805D01*
X230140D01*
X235835Y301500D01*
X242072D01*
X243072Y300500D01*
X250328D01*
X251328Y301500D01*
X255000D01*
G01X159966Y428723D02*
X156960Y425717D01*
X156720D01*
X140250Y409247D01*
Y340885D01*
X176135Y305000D01*
X194829D01*
X198500Y301329D01*
Y300500D01*
G01X170855Y436354D02*
Y432104D01*
X151250Y412499D01*
Y410249D01*
X142250Y401249D01*
Y341714D01*
X176964Y307000D01*
X196243D01*
X202500Y300743D01*
Y300500D01*
G01X136814Y459907D02*
Y471791D01*
X138659Y473636D01*
X140006D01*
X140007Y473635D01*
X142493D01*
X144250Y475392D01*
Y490151D01*
X155099Y501000D01*
X158262D01*
X164259Y506997D01*
X166317D01*
X173159Y513839D01*
X175904D01*
X176994Y512749D01*
X186190D01*
X193457Y520016D01*
X212516D01*
X217750Y525250D01*
X222000D01*
G01X145250Y458223D02*
Y458493D01*
X150757Y464000D01*
X186581D01*
X190711Y468130D01*
X203496D01*
X211487Y460139D01*
Y457025D01*
X214512Y454000D01*
X219428D01*
X227428Y446000D01*
X231243D01*
X239000Y453757D01*
Y454743D01*
X243757Y459500D01*
X250341D01*
X255341Y464500D01*
X262178D01*
X262678Y465000D01*
X271087D01*
X272745Y466658D01*
X284847D01*
X286005Y465500D01*
X291341D01*
X301051Y455790D01*
X330362D01*
X340500Y465928D01*
Y471000D01*
X338500Y473000D01*
Y482500D01*
G01X328000Y498000D02*
X333500Y492500D01*
Y461757D01*
X329533Y457790D01*
X301880D01*
X292170Y467500D01*
X286900D01*
X285742Y468658D01*
X271916D01*
X270258Y467000D01*
X255012D01*
X254366Y466354D01*
X244257D01*
X242500Y464597D01*
Y463757D01*
X230743Y452000D01*
X224603D01*
X220572Y456031D01*
X215310D01*
X213553Y457788D01*
Y463054D01*
X214000Y463501D01*
Y467743D01*
X212243Y469500D01*
X205501D01*
X204871Y470130D01*
X189882D01*
X185752Y466000D01*
X148784D01*
X141250Y458466D01*
Y458250D01*
G01X289500Y502000D02*
X280501D01*
X279251Y500750D01*
X271153D01*
X268403Y503500D01*
X259493D01*
X257743Y505250D01*
X244599D01*
X241349Y502000D01*
X235743D01*
X233743Y500000D01*
X229257D01*
X227757Y501500D01*
X215655D01*
X212155Y498000D01*
X199757D01*
X194347Y492590D01*
X179939D01*
X175349Y488000D01*
X166428D01*
X163928Y485500D01*
X152000D01*
X151500Y485000D01*
G01X247500Y529000D02*
X241340D01*
X239100Y526760D01*
X232144D01*
X230404Y528500D01*
X218000D01*
X211516Y522016D01*
X192628D01*
X185362Y514750D01*
X177822D01*
X176733Y515839D01*
X172330D01*
X165490Y508999D01*
X163432D01*
X157433Y503000D01*
X154270D01*
X141250Y489980D01*
Y476635D01*
G01X306250Y474250D02*
X298000Y482500D01*
X276999D01*
X269999Y489500D01*
X263757D01*
X261507Y487250D01*
X242493D01*
X236603Y481360D01*
X213630D01*
X211490Y483500D01*
X208104D01*
X201854Y477250D01*
X163750D01*
X163250Y476750D01*
X159153D01*
X157903Y478000D01*
X154000D01*
X149000Y473000D01*
G01X265500Y516500D02*
X263467D01*
X257967Y522000D01*
X242834D01*
X241337Y520500D01*
X227599D01*
X224099Y517000D01*
X219026D01*
X216042Y514016D01*
X195944D01*
X187767Y505839D01*
X173386D01*
X168593Y501046D01*
X167779Y501036D01*
X167743Y501000D01*
X165257D01*
X165252Y501005D01*
X162504D01*
X159499Y498000D01*
X154928D01*
X146250Y489322D01*
Y474563D01*
X142323Y470636D01*
X139902D01*
G01X149500Y478409D02*
Y482659D01*
X148500Y483659D01*
Y488743D01*
X154775Y495018D01*
X160019D01*
X164001Y499000D01*
X168572D01*
X168618Y499046D01*
X169432Y499056D01*
X174214Y503838D01*
X188595D01*
X196773Y512016D01*
X216871D01*
X218855Y514000D01*
X223928D01*
X228428Y518500D01*
X237388D01*
X237389Y518499D01*
X242167D01*
X243203Y519535D01*
X243440Y519773D01*
X243666Y520000D01*
X257138D01*
X263638Y513500D01*
X267000D01*
X270000Y516500D01*
G01X302000Y519500D02*
X294500D01*
X290843Y523157D01*
X276613D01*
X274270Y525500D01*
X266099D01*
X261000Y530599D01*
Y535743D01*
X259243Y537500D01*
X259013D01*
X256513Y540000D01*
X241999D01*
X240499Y538500D01*
X239518D01*
X239516Y538498D01*
X236202D01*
X236201Y538499D01*
X232887D01*
X232886Y538500D01*
X230423D01*
X228090Y536167D01*
X227910D01*
X226243Y534500D01*
X215926D01*
X214676Y535750D01*
X210324D01*
X207074Y532500D01*
X201172D01*
X198688Y530016D01*
X189312D01*
X186696Y527400D01*
X171763D01*
X166273Y521910D01*
X165918D01*
X165916Y521908D01*
X160165D01*
X157000Y518743D01*
Y513883D01*
X154244Y511127D01*
X146627D01*
X144500Y509000D01*
G01X208500Y527016D02*
X205000D01*
X204000Y526016D01*
X190970D01*
X188354Y523400D01*
X173738D01*
X173354Y523016D01*
X163332Y513001D01*
X163330Y512999D01*
X161774D01*
X155902Y507127D01*
X150377D01*
X143250Y500000D01*
X140000D01*
G01X171500Y541000D02*
X165750Y535250D01*
Y532703D01*
X163847Y530800D01*
X163846D01*
X162956Y529910D01*
X140419D01*
X140329Y530000D01*
X136500D01*
G01X140500Y517500D02*
X150910Y527910D01*
X163786D01*
X180626Y544750D01*
X209835D01*
X210585Y545500D01*
X223428D01*
X224428Y544500D01*
X237031D01*
X242530Y549999D01*
X243098D01*
X243099Y550000D01*
X253270D01*
X256270Y547000D01*
X258743D01*
X263871Y541872D01*
X267128D01*
X268757Y540243D01*
G01X145318Y517683D02*
X151356Y523721D01*
G01D02*
X153544Y525909D01*
X164259D01*
X164260Y525910D01*
X164615D01*
X181455Y542750D01*
X210664D01*
X211414Y543500D01*
X222599D01*
X223599Y542500D01*
X234544D01*
X234545Y542499D01*
X237859D01*
X243359Y547999D01*
X243927D01*
X243928Y548000D01*
X252441D01*
X255441Y545000D01*
X257401D01*
X265001Y537400D01*
Y532256D01*
X267757Y529500D01*
X275928D01*
X278271Y527157D01*
X292501D01*
X292658Y527000D01*
X292670D01*
X294670Y525000D01*
X316659D01*
X321500Y520159D01*
Y517000D01*
G01X197500Y534500D02*
X190967D01*
X185867Y529400D01*
X170934D01*
X165444Y523910D01*
X165089D01*
X165087Y523908D01*
X161773D01*
X161772Y523909D01*
X159337D01*
X155000Y519572D01*
Y516126D01*
X153001Y514127D01*
G01X157250Y533750D02*
X155000Y536000D01*
X148499D01*
X141550Y542949D01*
Y546093D01*
X141000Y546643D01*
Y546743D01*
X139243Y548500D01*
X139143D01*
X134643Y553000D01*
X132000D01*
G01X132500Y526000D02*
Y538993D01*
X134497Y540990D01*
X137497D01*
G01X137500Y591000D02*
X155338D01*
X156403Y589935D01*
X159403D01*
G01X323216Y597706D02*
X307172Y613750D01*
X147950D01*
X136450Y602250D01*
Y599000D01*
G01X335000Y513659D02*
Y518757D01*
X322500Y531257D01*
Y533575D01*
X315569Y540506D01*
X279605D01*
X270610Y549501D01*
X270567D01*
X267999Y552069D01*
Y553483D01*
X266725Y554757D01*
X263000D01*
X261243Y553000D01*
X258757D01*
X255757Y556000D01*
X240044D01*
X239044Y555000D01*
X228514D01*
X228041Y555473D01*
X227027D01*
X216500Y566000D01*
X205170D01*
X201170Y570000D01*
X193093D01*
X192743Y569650D01*
X190257D01*
X184000Y575907D01*
Y601039D01*
X175289Y609750D01*
X155250D01*
X149500Y604000D01*
G01X304000Y233500D02*
Y215500D01*
X297500Y209000D01*
Y179000D01*
X288000Y169500D01*
Y152500D01*
X273500Y138000D01*
X263000D01*
X250500Y125500D01*
X235500D01*
X224000Y114000D01*
X167500D01*
X154500Y101000D01*
Y93000D01*
G01X175000Y217000D02*
Y246500D01*
X167500Y254000D01*
X165500D01*
G01X155500Y277500D02*
X167500Y265500D01*
X187000D01*
G01X154500Y265240D02*
X158740Y261000D01*
X170500D01*
X172500Y259000D01*
G01X165500Y288500D02*
X170743Y283257D01*
X205671D01*
X207428Y281500D01*
X232000D01*
X237000Y276500D01*
X247901D01*
X251901Y272500D01*
X253401D01*
X253403Y272498D01*
X255217D01*
X255218Y272499D01*
X258501D01*
X262500Y268500D01*
Y265500D01*
G01X153500Y285500D02*
X158000D01*
X166243Y277257D01*
X202957D01*
X204714Y275500D01*
X211743D01*
X211744Y275499D01*
X229001D01*
X234000Y270500D01*
X241500D01*
X242500Y269500D01*
Y267500D01*
G01X210500Y297500D02*
X206500Y293500D01*
X192000D01*
X186500Y299000D01*
X171000D01*
X169000Y301000D01*
G01X165622Y385500D02*
Y381250D01*
X165750Y381122D01*
Y365153D01*
X166000Y364903D01*
Y352000D01*
G01X155000Y385500D02*
X160000D01*
X163000Y382500D01*
Y358000D01*
G01X169000Y366500D02*
Y357000D01*
G01X172689Y392926D02*
Y389926D01*
X173500Y389115D01*
Y357000D01*
G01X166370Y392500D02*
Y389500D01*
X169000Y386870D01*
Y366500D01*
G01X193500Y448023D02*
X184780D01*
X179500Y442743D01*
Y438500D01*
X175500Y434500D01*
Y406000D01*
X185500Y396000D01*
X185603D01*
X185753Y395850D01*
X188447D01*
X188597Y396000D01*
X214243D01*
X233500Y376743D01*
Y375743D01*
X244500Y364743D01*
Y361500D01*
X270500Y335500D01*
Y328500D01*
G01X159966Y428723D02*
X167500Y436257D01*
Y442090D01*
X191540Y466130D01*
X202667D01*
X209487Y459310D01*
Y455746D01*
X210144Y455089D01*
X213503Y451728D01*
Y449691D01*
X216194Y447000D01*
X222364D01*
X228000Y441364D01*
Y441257D01*
X229757Y439500D01*
X232300D01*
X241000Y448200D01*
X247600D01*
X252772Y453372D01*
X261515D01*
X263143Y455000D01*
X269574D01*
X274824Y460250D01*
X279179D01*
X281929Y457500D01*
X285000D01*
X285750Y458250D01*
X288750D01*
G01X295000Y454500D02*
X282100D01*
X278350Y458250D01*
X275653D01*
X265903Y448500D01*
X261243D01*
X260393Y449350D01*
X252253D01*
X249103Y446200D01*
X245700D01*
X235500Y436000D01*
X220000D01*
X216500Y439500D01*
Y443865D01*
X211501Y448864D01*
Y450900D01*
X208729Y453674D01*
X207487Y454916D01*
Y458481D01*
X201838Y464130D01*
X192369D01*
X170855Y442616D01*
Y436354D01*
G01X166500Y472000D02*
X170500Y468000D01*
X184923D01*
X189423Y472500D01*
X204226D01*
X207226Y475500D01*
X226757D01*
X228257Y477000D01*
X237901D01*
X244151Y483250D01*
X254593D01*
X255612Y482231D01*
X256504Y481342D01*
X272157D01*
X274999Y478500D01*
X292023D01*
X304746Y465777D01*
G01X314000Y489000D02*
Y495001D01*
X310500Y498501D01*
Y504013D01*
X307013Y507500D01*
X261151D01*
X254651Y514000D01*
X246346D01*
X245797Y513448D01*
X240349Y508000D01*
X221342D01*
X219358Y506016D01*
X199260D01*
X196332Y503088D01*
Y500606D01*
X192316Y496590D01*
X178281D01*
X173691Y492000D01*
X164104D01*
X162927Y490823D01*
X158677D01*
G01X272500Y504000D02*
X271000Y505500D01*
X260322D01*
X253822Y512000D01*
X248520D01*
X242519Y505999D01*
X231744D01*
X231743Y506000D01*
X229257D01*
X229256Y505999D01*
X226427D01*
X224444Y504016D01*
X200089D01*
X198332Y502259D01*
Y499777D01*
X193145Y494590D01*
X179110D01*
X174520Y490000D01*
X165599D01*
X163172Y487573D01*
X155427D01*
X153500Y489500D01*
G01X155500Y482500D02*
X156250Y483250D01*
X164507D01*
X167257Y486000D01*
X176178D01*
X179428Y489250D01*
X184187D01*
X186847Y486590D01*
X191761D01*
X197171Y492000D01*
X202671D01*
X204671Y494000D01*
X231743D01*
X237743Y500000D01*
X244178D01*
X247428Y503250D01*
X252750D01*
X254500Y501500D01*
X265743D01*
X268493Y498750D01*
X295669D01*
X297419Y500500D01*
X302500D01*
G01X160500Y480000D02*
X201072D01*
X206572Y485500D01*
X222500D01*
X224640Y483360D01*
X232860D01*
X235000Y485500D01*
Y488243D01*
X238757Y492000D01*
X242499D01*
X245249Y489250D01*
X259251D01*
X261501Y491500D01*
X270828D01*
X277828Y484500D01*
X300597D01*
X315627Y469470D01*
Y467892D01*
X317749Y465770D01*
G01X310566Y465040D02*
X295106Y480500D01*
X276170D01*
X273328Y483342D01*
X257812D01*
X256094Y485055D01*
X255899Y485250D01*
X243322D01*
X237072Y479000D01*
X227428D01*
X225928Y477500D01*
X206397D01*
X204147Y475250D01*
X164750D01*
X164250Y474750D01*
X156250D01*
X156000Y475000D01*
G01X168500Y483000D02*
X171500D01*
X171910Y482590D01*
X200833D01*
X208243Y490000D01*
X233401D01*
X238651Y495250D01*
X255072D01*
X256822Y493500D01*
X271657D01*
X278657Y486500D01*
X301426D01*
X316926Y471000D01*
X320000D01*
X324000Y467000D01*
G01X315000Y514500D02*
X313500Y516000D01*
X280500D01*
X277343Y519157D01*
X274955D01*
X272612Y521500D01*
X264125D01*
X259625Y526000D01*
X241172D01*
X240818Y525645D01*
X239677Y524500D01*
X225941D01*
X222941Y521500D01*
X217868D01*
X214384Y518016D01*
X194286D01*
X187019Y510749D01*
X176165D01*
X176164Y510750D01*
X176020D01*
X175931Y510839D01*
X174661D01*
G01X166500Y504000D02*
X170339Y507839D01*
X186938D01*
X195115Y516016D01*
X215213D01*
X218197Y519000D01*
X223270D01*
X226770Y522500D01*
X240507D01*
X242003Y524000D01*
X258796D01*
X263296Y519500D01*
X271243D01*
X275372Y515371D01*
G01X173810Y499191D02*
X176457Y501838D01*
X189424D01*
X197602Y510016D01*
X217700D01*
X219684Y512000D01*
X224757D01*
X229257Y516500D01*
X236559D01*
X236560Y516499D01*
X243003D01*
X244504Y518000D01*
X256309D01*
X262809Y511500D01*
X308671D01*
X314500Y505671D01*
Y500159D01*
X323000Y491659D01*
Y481500D01*
G01X169500Y495250D02*
X174112D01*
X178212Y499350D01*
X189765D01*
X198431Y508016D01*
X218529D01*
X220513Y510000D01*
X239518D01*
X244606Y515088D01*
X245514Y516000D01*
X255480D01*
X261980Y509500D01*
X307842D01*
X312500Y504842D01*
Y499330D01*
X318000Y493830D01*
Y485000D01*
G01X171500Y541000D02*
X174045D01*
X177738Y544693D01*
X177740D01*
X179797Y546750D01*
X203711D01*
X203712Y546751D01*
X209007D01*
X209756Y547500D01*
X224257D01*
X225257Y546500D01*
X236202D01*
X241701Y551999D01*
X242269D01*
X242270Y552000D01*
X254099D01*
X257099Y549000D01*
X259572D01*
X263072Y545500D01*
X268910D01*
X277904Y536506D01*
X280737D01*
X285997Y531246D01*
X295011D01*
X297257Y529000D01*
X318317D01*
X329000Y518317D01*
Y514000D01*
G01X179000Y566000D02*
Y561000D01*
X172395Y554395D01*
X171715D01*
X167910Y550590D01*
G01X169850Y564000D02*
X175447Y569597D01*
Y593553D01*
X174000Y595000D01*
Y602000D01*
G01X169000Y606500D02*
X173742D01*
X174242Y606000D01*
X174243D01*
X177000Y603243D01*
Y594829D01*
X177447Y594382D01*
Y574553D01*
X180500Y571500D01*
G01X187889Y137889D02*
X184000Y134000D01*
X182000D01*
G01X285750Y301250D02*
X290178D01*
X300250Y291178D01*
Y286347D01*
X302500Y284097D01*
Y280903D01*
X300250Y278653D01*
Y278601D01*
X298850Y277201D01*
Y234150D01*
X299000Y234000D01*
Y216500D01*
X293500Y211000D01*
Y181122D01*
X284000Y171622D01*
Y155757D01*
X270243Y142000D01*
X185500D01*
X177500Y134000D01*
G01X187889Y137889D02*
X190000Y140000D01*
X272329D01*
X286000Y153671D01*
Y170501D01*
X295500Y180001D01*
Y210000D01*
X301000Y215500D01*
Y235000D01*
X300850Y235150D01*
Y276372D01*
X302250Y277772D01*
Y277824D01*
X304500Y280074D01*
Y284926D01*
X302250Y287176D01*
Y292007D01*
X289757Y304500D01*
X281500D01*
X280500Y303500D01*
G01X234500Y230500D02*
X209500D01*
X192500Y213500D01*
G01X195000Y237500D02*
X199500Y242000D01*
Y244500D01*
X210500Y255500D01*
Y261500D01*
X207500Y264500D01*
G01X195000Y248000D02*
X189000Y254000D01*
Y257999D01*
X187000Y259999D01*
Y265500D01*
G01D02*
X192000D01*
X199000Y258500D01*
X203500D01*
G01X191000Y261700D02*
X198078Y254622D01*
X200878D01*
X203000Y252500D01*
G01X238500Y253500D02*
X231500Y260500D01*
Y267000D01*
X228000Y270500D01*
X219999D01*
X218999Y269500D01*
X181000D01*
X180000Y270500D01*
X177000D01*
G01X361500Y170500D02*
X320000Y212000D01*
Y220000D01*
X313000Y227000D01*
Y247000D01*
X320000Y254000D01*
Y264999D01*
X316500Y268499D01*
Y278501D01*
X314000Y281001D01*
Y283072D01*
X312000Y285072D01*
Y299481D01*
X307981Y303500D01*
X300500D01*
X295500Y308500D01*
X275000D01*
X273501Y307001D01*
X271172D01*
X271171Y307000D01*
X267473D01*
X267472Y306999D01*
X261672D01*
X261671Y307000D01*
X253999D01*
X249499Y302500D01*
X243901D01*
X242901Y303500D01*
X235006D01*
X229311Y297805D01*
X215367D01*
X212172Y301000D01*
X208500D01*
X207500Y300000D01*
Y298428D01*
X204572Y295500D01*
X196428D01*
X192928Y299000D01*
X191500D01*
G01X183500Y387650D02*
Y384650D01*
X182500Y383650D01*
Y357000D01*
G01X177500D02*
Y375000D01*
G01D02*
Y386658D01*
X179249Y388407D01*
Y392751D01*
G01X250500Y360500D02*
X247494Y363506D01*
Y367006D01*
X241336Y373164D01*
X238908D01*
X235664Y376408D01*
Y377408D01*
X214572Y398500D01*
X194136D01*
X186500Y406136D01*
Y416000D01*
X184500Y418000D01*
Y437500D01*
G01X341500Y294000D02*
Y298995D01*
X324995Y315500D01*
X321000D01*
X319000Y317500D01*
Y323999D01*
X310699Y332300D01*
X300001D01*
X297000Y335301D01*
Y341329D01*
X294000Y344329D01*
Y351001D01*
X288000Y357001D01*
Y366001D01*
X281001Y373000D01*
X264500D01*
X241500Y396000D01*
X226636D01*
X216500Y406136D01*
Y415000D01*
X211500Y420000D01*
Y429000D01*
X205500Y435000D01*
Y444757D01*
X207500Y446757D01*
Y449243D01*
X204925Y451818D01*
X204071Y452673D01*
X203486Y453258D01*
Y456824D01*
X201729Y458581D01*
X197919D01*
X197500Y459000D01*
G01X200486Y455581D02*
X196582D01*
X193500Y452499D01*
Y448023D01*
G01X193612Y461130D02*
X194482Y462000D01*
X201139D01*
X205487Y457652D01*
Y454086D01*
X207955Y451618D01*
X209500Y450072D01*
Y445928D01*
X207500Y443928D01*
Y436499D01*
X218000Y425999D01*
Y420757D01*
X220257Y418500D01*
X220864D01*
X226500Y412864D01*
Y406136D01*
X234636Y398000D01*
X243000D01*
X254810Y386190D01*
Y386147D01*
X256567Y384390D01*
X256610D01*
X263500Y377500D01*
X283000D01*
X290500Y370000D01*
Y361000D01*
X296000Y355500D01*
Y346257D01*
X299000Y343257D01*
Y337669D01*
X302369Y334300D01*
X312000D01*
X321000Y325300D01*
Y319257D01*
X322757Y317500D01*
X327999D01*
X330207Y319708D01*
X331000D01*
G01X325000Y473000D02*
X307499Y490501D01*
X284321D01*
X279322Y495500D01*
X260428D01*
X258678Y497250D01*
X237822D01*
X232572Y492000D01*
X205500D01*
X203500Y490000D01*
X198500D01*
X193090Y484590D01*
X182910D01*
X181500Y486000D01*
G01X197500Y534500D02*
X206245D01*
X209495Y537750D01*
X209749D01*
X213499Y541500D01*
X221770D01*
X222770Y540500D01*
X233715D01*
X233716Y540499D01*
X238688D01*
X244188Y545999D01*
X244756D01*
X244757Y546000D01*
X251612D01*
X255112Y542500D01*
X257072D01*
X263000Y536572D01*
Y531428D01*
X266928Y527500D01*
X275099D01*
X277442Y525157D01*
X291672D01*
X291829Y525000D01*
X291841D01*
X293841Y523000D01*
X314416D01*
X317747Y519669D01*
G01X182550Y557500D02*
X184021Y558971D01*
X220028D01*
X225999Y553000D01*
X233370D01*
X234500Y551870D01*
G01X215000Y181000D02*
Y171000D01*
X227500Y158500D01*
G01X218000Y199000D02*
Y211500D01*
G01X256500Y252500D02*
Y249000D01*
X241000Y233500D01*
X217000D01*
G01X238500Y267500D02*
Y264000D01*
X245000Y257500D01*
Y240500D01*
X240000Y235500D01*
X221000D01*
X218500Y238000D01*
X214500D01*
G01X219750Y253250D02*
X227000Y246000D01*
G01X237500Y238500D02*
X228500D01*
X219000Y248000D01*
G01X210500Y272500D02*
X229000D01*
X233500Y268000D01*
Y266000D01*
X242500Y257000D01*
Y248000D01*
X237000Y242500D01*
X229500D01*
G01X218000Y331000D02*
X221500Y334500D01*
X237500D01*
X241500Y330500D01*
Y325671D01*
X247171Y320000D01*
X251743D01*
X253243Y321500D01*
X257000D01*
G01X218000Y324500D02*
X224283Y330783D01*
X230048D01*
G01X222000Y306000D02*
Y312500D01*
X211000Y323500D01*
Y348500D01*
X207250Y352250D01*
Y359000D01*
X208500Y360250D01*
Y369000D01*
G01X215000Y343000D02*
X226000D01*
X230000Y339000D01*
X239000D01*
X246500Y331500D01*
G01X224000Y339500D02*
X221500Y337000D01*
X218000D01*
G01X216498Y351250D02*
X216500Y351252D01*
Y357500D01*
G01X237020Y342250D02*
X229750D01*
X220500Y351500D01*
Y358500D01*
X212000Y367000D01*
Y384000D01*
X210000Y386000D01*
X206500D01*
X203500Y383000D01*
G01X208500Y369000D02*
Y383000D01*
G01X239241Y377076D02*
X237119Y379198D01*
Y379882D01*
X216001Y401000D01*
X209000D01*
X206500Y403500D01*
Y419300D01*
X200400Y425400D01*
Y436900D01*
X202378Y438878D01*
Y445878D01*
X204500Y448000D01*
G01X252850Y480250D02*
X252257Y480842D01*
X244572D01*
X234430Y470700D01*
X228222D01*
X216553Y459031D01*
G01X244000Y565000D02*
X241000Y562000D01*
X237557D01*
X236557Y561000D01*
X231001D01*
X218120Y573881D01*
Y592500D01*
G01X350000Y451000D02*
X353000Y454000D01*
Y457499D01*
X345000Y465499D01*
Y516257D01*
X338757Y522500D01*
X337757D01*
X335500Y524757D01*
Y524811D01*
X335100Y525211D01*
Y527697D01*
X335475Y528072D01*
Y534547D01*
X325521Y544501D01*
X317232D01*
X317227Y544506D01*
X281263D01*
X272500Y553269D01*
Y556743D01*
X266743Y562500D01*
X255243D01*
X252743Y560000D01*
X238386D01*
X237386Y559000D01*
X230172D01*
X229672Y559500D01*
X229500D01*
X219000Y570000D01*
X209000D01*
X204500Y574500D01*
G01X350000Y455500D02*
X343000Y462500D01*
Y514580D01*
X337080Y520500D01*
X336928D01*
X333499Y523929D01*
Y523983D01*
X333100Y524382D01*
Y528527D01*
X333225Y528652D01*
Y530982D01*
X333475Y531232D01*
Y533718D01*
X324693Y542500D01*
X316404D01*
X316398Y542506D01*
X280434D01*
X271439Y551501D01*
X271396D01*
X270000Y552897D01*
Y554499D01*
X263999Y560500D01*
X256072D01*
X253572Y558000D01*
X239215D01*
X238215Y557000D01*
X229343D01*
X228869Y557474D01*
X228025D01*
X217499Y568000D01*
X205999D01*
X201999Y572000D01*
X201000D01*
X199000Y574000D01*
G01X337500Y2000D02*
Y9500D01*
X338620Y8000D01*
G01Y2000D02*
X336380D01*
G01X330900D02*
X330247Y2125D01*
X329500Y2500D01*
X329033Y3125D01*
X328847Y4000D01*
X329033Y4875D01*
X329593Y5625D01*
X330433Y6000D01*
X331367D01*
X331927Y6250D01*
X332393Y6875D01*
X332580Y7750D01*
X332300Y8625D01*
X331647Y9250D01*
X330900Y9500D01*
X330153Y9250D01*
X329500Y8625D01*
X329220Y7750D01*
X329407Y6875D01*
X329873Y6250D01*
X330433Y6000D01*
X331367D01*
X332207Y5625D01*
X332767Y4875D01*
X332953Y4000D01*
X332767Y3125D01*
X332300Y2500D01*
X331553Y2125D01*
X330900Y2000D01*
G01X323180D02*
Y9500D01*
X326633Y4125D01*
X321967D01*
G01X318913Y4500D02*
X316487D01*
G01X311100Y9500D02*
X311847Y9250D01*
X312407Y8625D01*
X312780Y7875D01*
X313060Y6875D01*
X313153Y5750D01*
X313060Y4625D01*
X312780Y3625D01*
X312407Y2875D01*
X311847Y2250D01*
X311100Y2000D01*
X310353Y2250D01*
X309793Y2875D01*
X309420Y3625D01*
X309140Y4625D01*
X309047Y5750D01*
X309140Y6875D01*
X309420Y7875D01*
X309793Y8625D01*
X310353Y9250D01*
X311100Y9500D01*
G01X304500D02*
X305247Y9250D01*
X305807Y8625D01*
X306180Y7875D01*
X306460Y6875D01*
X306553Y5750D01*
X306460Y4625D01*
X306180Y3625D01*
X305807Y2875D01*
X305247Y2250D01*
X304500Y2000D01*
X303753Y2250D01*
X303193Y2875D01*
X302820Y3625D01*
X302540Y4625D01*
X302447Y5750D01*
X302540Y6875D01*
X302820Y7875D01*
X303193Y8625D01*
X303753Y9250D01*
X304500Y9500D01*
G01X297900D02*
X298647Y9250D01*
X299207Y8625D01*
X299580Y7875D01*
X299860Y6875D01*
X299953Y5750D01*
X299860Y4625D01*
X299580Y3625D01*
X299207Y2875D01*
X298647Y2250D01*
X297900Y2000D01*
X297153Y2250D01*
X296593Y2875D01*
X296220Y3625D01*
X295940Y4625D01*
X295847Y5750D01*
X295940Y6875D01*
X296220Y7875D01*
X296593Y8625D01*
X297153Y9250D01*
X297900Y9500D01*
G01X293353Y3500D02*
X292793Y2625D01*
X292047Y2125D01*
X291207Y2000D01*
X290460Y2125D01*
X289713Y2750D01*
X289247Y3500D01*
X289153Y4250D01*
X289340Y5125D01*
X289993Y5750D01*
X290647Y6000D01*
X291487D01*
G01X290647D02*
X290087Y6375D01*
X289620Y7000D01*
X289433Y7750D01*
X289620Y8500D01*
X290087Y9125D01*
X290927Y9500D01*
X291767Y9375D01*
X292607Y8875D01*
G01X284700Y9500D02*
X285447Y9250D01*
X286007Y8625D01*
X286380Y7875D01*
X286660Y6875D01*
X286753Y5750D01*
X286660Y4625D01*
X286380Y3625D01*
X286007Y2875D01*
X285447Y2250D01*
X284700Y2000D01*
X283953Y2250D01*
X283393Y2875D01*
X283020Y3625D01*
X282740Y4625D01*
X282647Y5750D01*
X282740Y6875D01*
X283020Y7875D01*
X283393Y8625D01*
X283953Y9250D01*
X284700Y9500D01*
G01X279687Y2875D02*
X279033Y2250D01*
X278287Y2000D01*
X277540Y2250D01*
X276887Y3000D01*
X276420Y4125D01*
X276233Y5250D01*
Y6625D01*
X276420Y7750D01*
X276887Y8750D01*
X277447Y9250D01*
X278100Y9500D01*
X278847Y9250D01*
X279407Y8750D01*
X279780Y8000D01*
X279967Y7000D01*
X279780Y6125D01*
X279313Y5250D01*
X278753Y4750D01*
X278100Y4625D01*
X277353Y4875D01*
X276793Y5500D01*
X276233Y6625D01*
G01X266767Y2000D02*
Y9500D01*
X264433D01*
X263687Y9125D01*
X263220Y8625D01*
X263033Y7625D01*
X263220Y6625D01*
X263780Y6000D01*
X264433Y5625D01*
X266767D01*
G01X264433D02*
X263033Y2000D01*
G01X256433D02*
X260167D01*
Y9500D01*
X256433D01*
G01X257927Y5875D02*
X260167D01*
G01X254033Y9500D02*
X251700Y2000D01*
X249367Y9500D01*
G01X240833Y2000D02*
X238500Y9500D01*
X236167Y2000D01*
G01X237007Y4625D02*
X239993D01*
G01X244500Y171500D02*
Y154000D01*
X241500Y151000D01*
X220500D01*
G01X221500Y171500D02*
X244500D01*
G01X227500Y158500D02*
X238000D01*
G01X233000Y245500D02*
X226500Y252000D01*
G01X289000Y239500D02*
X283000Y245500D01*
X274000D01*
X268000Y251500D01*
X265000D01*
X264000Y252500D01*
Y256000D01*
X262000Y258000D01*
Y261500D01*
X263000Y262500D01*
X264000D01*
X265500Y264000D01*
Y269000D01*
X260000Y274500D01*
X257704D01*
X257703Y274499D01*
X254389D01*
X254388Y274498D01*
X254232D01*
X254230Y274500D01*
X252730D01*
X248730Y278500D01*
X239842D01*
X238342Y280000D01*
X238000D01*
G01X267000Y254500D02*
X268000Y255500D01*
Y259500D01*
X269500Y261000D01*
Y271000D01*
X262000Y278500D01*
X254389D01*
X252388Y280500D01*
X250388Y282500D01*
X242572D01*
X238572Y286500D01*
X236500D01*
G01X226000Y287500D02*
X230000Y291500D01*
X239230D01*
X244230Y286500D01*
X252046D01*
X254046Y284500D01*
X256047Y282500D01*
X264000D01*
X273500Y273000D01*
Y260000D01*
X274000Y259500D01*
Y255000D01*
X273000Y254000D01*
Y251000D01*
G01X232500Y288500D02*
X233500Y289500D01*
X238401D01*
X243401Y284500D01*
X251217D01*
X253217Y282500D01*
X255218Y280500D01*
X263000D01*
X271500Y272000D01*
Y260000D01*
X271000Y259500D01*
Y257500D01*
G01X220500Y319000D02*
X226000Y313500D01*
Y308809D01*
X225996Y308805D01*
Y305805D01*
G01X240000Y296500D02*
X258428D01*
X260428Y298500D01*
X265500D01*
X272001Y305001D01*
X275100D01*
X276599Y306500D01*
X294671D01*
X299671Y301500D01*
X303220D01*
X305220Y299500D01*
Y297775D01*
X310000Y292995D01*
Y284243D01*
X312000Y282243D01*
Y279370D01*
X313500Y277870D01*
Y265600D01*
X316500Y262600D01*
Y258350D01*
G01X236500Y294500D02*
X237757D01*
X238757Y293500D01*
X240257D01*
X243257Y290500D01*
Y290498D01*
X245255Y288500D01*
X252875D01*
X254875Y286500D01*
X256876Y284500D01*
X265000D01*
X275500Y274000D01*
Y261000D01*
X276000Y260500D01*
Y253500D01*
X278000Y251500D01*
G01X270500Y328500D02*
X268000Y326000D01*
Y320257D01*
X266243Y318500D01*
X266242D01*
X263742Y316000D01*
X245513D01*
X237498Y324015D01*
Y325002D01*
X234500Y328000D01*
G01X250500Y323000D02*
X247000D01*
X243500Y326500D01*
Y331500D01*
X238000Y337000D01*
X226500D01*
X224000Y339500D01*
G01X230048Y330783D02*
X230783D01*
X231000Y331000D01*
X237500D01*
X239499Y329001D01*
Y324843D01*
X246342Y318000D01*
X261928D01*
X265000Y321072D01*
Y321500D01*
G01X234500Y323000D02*
X243500Y314000D01*
X264572D01*
X269644Y319072D01*
Y319073D01*
X271107Y320536D01*
Y320537D01*
X272570Y322000D01*
X281743D01*
X285443Y325700D01*
X294141D01*
X295542Y324299D01*
X298701D01*
X303500Y319500D01*
X304670D01*
X304671Y319499D01*
X308001D01*
X311000Y316500D01*
Y311000D01*
X315500Y306500D01*
Y304257D01*
X319500Y300257D01*
Y298000D01*
G01X234500Y358500D02*
X238000D01*
X249500Y347000D01*
Y327000D01*
G01X233000Y366000D02*
X235122Y363878D01*
X235622D01*
X254000Y345500D01*
Y341000D01*
G01X226500Y358500D02*
Y352000D01*
X230000Y348500D01*
G01X233500Y371500D02*
X236000Y369000D01*
X237000D01*
X241500Y364500D01*
Y361500D01*
X261000Y342000D01*
Y328500D01*
G01X335500Y574000D02*
X339243D01*
X344000Y569243D01*
Y565607D01*
X351607Y558000D01*
X353999D01*
X363500Y548499D01*
Y534988D01*
X360750Y532238D01*
Y532151D01*
X360000Y531401D01*
Y448243D01*
X362500Y445743D01*
Y428500D01*
X359500Y425500D01*
Y421500D01*
X352000Y414000D01*
X348757D01*
X346757Y416000D01*
X318999D01*
X314500Y411501D01*
Y396243D01*
X313000Y394743D01*
Y394036D01*
X306999Y388035D01*
Y387001D01*
X304998Y385000D01*
X275999D01*
X260999Y400000D01*
X258306D01*
X257306Y401000D01*
X241636D01*
X237000Y405636D01*
Y412364D01*
X231364Y418000D01*
X228000D01*
X224000Y422000D01*
X221000D01*
G01X256201Y419055D02*
X248845D01*
X240000Y427900D01*
Y433400D01*
X245600Y439000D01*
X249200D01*
X253600Y443400D01*
Y446100D01*
G01X269000Y478000D02*
X266050Y475050D01*
X253708D01*
X249916Y478842D01*
X245401D01*
X235258Y468699D01*
X230456D01*
X225006Y463249D01*
Y462206D01*
X222000Y459200D01*
G01X330500Y463000D02*
X327290Y459790D01*
X302709D01*
X293000Y469499D01*
Y471097D01*
X289847Y474250D01*
X272322D01*
X271072Y473000D01*
X270000D01*
X268000Y471000D01*
X253354D01*
X252708Y470354D01*
X242595D01*
X231741Y459500D01*
X228500D01*
G01X330500Y467500D02*
X324790Y461790D01*
X303746D01*
X301746Y463790D01*
Y465180D01*
X290676Y476250D01*
X271493D01*
X270243Y475000D01*
X269171D01*
X267221Y473050D01*
X252877D01*
X249085Y476842D01*
X246230D01*
X232888Y463500D01*
X229500D01*
G01X288500Y471000D02*
X271429D01*
X269429Y469000D01*
X254183D01*
X253537Y468354D01*
X243424D01*
X232192Y457122D01*
X231622D01*
X229500Y455000D01*
G01X331500Y507500D02*
Y511750D01*
X332000Y512250D01*
Y518928D01*
X320500Y530428D01*
Y532746D01*
X314740Y538506D01*
X278776D01*
X269781Y547501D01*
X268082D01*
X268081Y547500D01*
X263901D01*
X260401Y551000D01*
X257928D01*
X254928Y554000D01*
X241441D01*
X241440Y553999D01*
X240872D01*
X235743Y548870D01*
X231630D01*
X231000Y549500D01*
G01X232526Y585000D02*
Y564474D01*
G01X264500Y568500D02*
X256501D01*
X255001Y567000D01*
X246243D01*
X245243Y568000D01*
X240500D01*
X238000Y565500D01*
G01X233870Y592500D02*
Y588600D01*
X232526Y587256D01*
Y585000D01*
G01X229930Y600370D02*
X233800Y596500D01*
X236300D01*
X237800Y595000D01*
Y587200D01*
X248500Y576500D01*
Y571000D01*
G01X250500Y265500D02*
Y263500D01*
X252500Y261500D01*
X255500D01*
X262000Y255000D01*
Y239000D01*
X277500Y223500D01*
Y180500D01*
X272000Y175000D01*
G01X248000Y291500D02*
X249000Y292500D01*
X259243D01*
X259245Y292498D01*
X259259D01*
X265257Y286500D01*
X270599D01*
X272500Y284599D01*
Y280000D01*
X277500Y275000D01*
Y266257D01*
X279000Y264757D01*
Y261000D01*
G01X262500Y293500D02*
X267500Y288500D01*
X271428D01*
X274500Y285428D01*
Y281500D01*
X280500Y275500D01*
Y267500D01*
G01X262500Y293500D02*
X266158D01*
X273658Y301000D01*
X275928D01*
X278533Y298395D01*
X278543D01*
X278688Y298250D01*
X281324D01*
X283574Y296000D01*
X285500D01*
X286500Y295000D01*
G01X299250Y282500D02*
Y282750D01*
X297000Y285000D01*
Y291599D01*
X290599Y298000D01*
X284403D01*
X281903Y300500D01*
X279257D01*
X276757Y303000D01*
X272829D01*
X266329Y296500D01*
X261257D01*
X259257Y294500D01*
X245500D01*
X244500Y293500D01*
G01X254000Y326500D02*
Y341000D01*
G01X261000Y328500D02*
Y321500D01*
G01X250500Y360500D02*
X271903D01*
X288103Y344300D01*
X291200D01*
X293500Y342000D01*
Y335500D01*
X298700Y330300D01*
X308960D01*
X317000Y322260D01*
Y315501D01*
X319001Y313500D01*
X324166D01*
X338000Y299666D01*
Y281000D01*
X343000Y276000D01*
Y258500D01*
G01X263275Y440298D02*
Y414000D01*
X261275Y412000D01*
X258501D01*
X256500Y409999D01*
Y404635D01*
X259135Y402000D01*
X264000D01*
X269500Y407500D01*
G01X259445Y415055D02*
Y418055D01*
X259900Y418510D01*
Y420800D01*
X256500Y424200D01*
Y427700D01*
X252800Y431400D01*
Y437700D01*
X256700Y441600D01*
X259143D01*
X262543Y445000D01*
X265744D01*
X272738Y451994D01*
X273994D01*
X277000Y455000D01*
G01X272699Y447712D02*
X270577Y445590D01*
Y445394D01*
X268300Y443117D01*
Y435657D01*
X268100Y435457D01*
Y434857D01*
X266500Y433257D01*
Y412000D01*
X261000Y406500D01*
G01X283500Y463408D02*
X282658Y464250D01*
X273166D01*
X271916Y463000D01*
X263507D01*
X261556Y461049D01*
X254720D01*
X251129Y457458D01*
X250170Y456500D01*
X245000D01*
G01X341000Y433000D02*
X321500Y452500D01*
X301512D01*
X292762Y461250D01*
X285950D01*
X284858Y460158D01*
X282153D01*
X280061Y462250D01*
X273995D01*
X268745Y457000D01*
X253501D01*
X251000Y454500D01*
X249000Y452500D01*
X245000D01*
G01X323000Y551500D02*
Y551257D01*
X320243Y548500D01*
X285757D01*
X282500Y551757D01*
Y553001D01*
X279000Y556501D01*
Y557958D01*
X276458Y560500D01*
X272500D01*
X264500Y568500D01*
G01X253531Y585783D02*
X258653D01*
X265370Y592500D01*
G01X282500Y101500D02*
Y105500D01*
G01Y101500D02*
Y97500D01*
G01X290692Y281692D02*
X293500Y278884D01*
Y233500D01*
X295000Y232000D01*
Y224000D01*
X283000Y212000D01*
Y200500D01*
X284500Y199000D01*
Y194500D01*
X282945Y192945D01*
Y179537D01*
X284982Y177500D01*
X285161D01*
X285398Y177263D01*
G01X291500Y228500D02*
Y231500D01*
X279500Y243500D01*
X271000D01*
X266000Y248500D01*
G01X288150Y274300D02*
X276500Y285950D01*
Y286500D01*
X274500Y288500D01*
X274257D01*
X272500Y290257D01*
Y290500D01*
X272378Y290622D01*
Y295378D01*
X274842Y297842D01*
G01X290753Y290000D02*
X287753D01*
X284912Y287159D01*
X279841D01*
X275500Y291500D01*
G01X279988Y294988D02*
X282994Y291982D01*
X285239D01*
X285257Y292000D01*
X287743D01*
X288743Y293000D01*
X291996D01*
X294500Y290496D01*
Y282999D01*
X296000Y281499D01*
Y281153D01*
X296850Y280303D01*
Y268521D01*
X296165Y267836D01*
X295500Y267170D01*
Y234500D01*
X297000Y233000D01*
Y218150D01*
X288150Y209300D01*
G01X327094Y262259D02*
Y275351D01*
X328750Y277007D01*
Y306087D01*
X323337Y311500D01*
X317500D01*
X315000Y314000D01*
Y321000D01*
X312500Y323500D01*
X305500D01*
X300701Y328299D01*
X297200D01*
X293499Y332000D01*
X282500D01*
G01X333000Y248500D02*
X324000Y257500D01*
Y268501D01*
X321000Y271501D01*
Y277743D01*
X323000Y279743D01*
Y302757D01*
X322453Y303304D01*
Y306047D01*
X319500Y309000D01*
X316499D01*
X313000Y312499D01*
Y319499D01*
X310999Y321500D01*
X304499D01*
X299700Y326299D01*
X296371D01*
X294170Y328500D01*
X270500D01*
G01X304000Y393500D02*
X301878Y395622D01*
Y398122D01*
X290214Y409786D01*
X284644D01*
X277201Y417229D01*
Y425338D01*
X279105Y427242D01*
G01X305500Y400500D02*
X302500D01*
X291000Y412000D01*
X285259D01*
X279201Y418058D01*
Y421573D01*
X288085Y430457D01*
Y434587D01*
G01X300982Y433166D02*
X286500Y418684D01*
Y415002D01*
G01X282201Y419500D02*
X284323Y421622D01*
X285824D01*
X294694Y430492D01*
Y436688D01*
X296451Y438445D01*
X301319D01*
X304133Y435631D01*
G01X278000Y448000D02*
X270300Y440300D01*
Y434828D01*
X270100Y434628D01*
Y434028D01*
X269000Y432928D01*
Y416812D01*
X275312Y410500D01*
X277500D01*
G01X284000Y434500D02*
X283642D01*
X279500Y430358D01*
Y427637D01*
X279105Y427242D01*
G01X273300Y430300D02*
Y436391D01*
X280909Y444000D01*
X287750D01*
X289250Y445500D01*
X293500D01*
G01X311581Y447920D02*
X305661Y442000D01*
X281738D01*
X276600Y436862D01*
Y429357D01*
X275921Y428678D01*
Y428067D01*
X273799Y425945D01*
G01X279931Y490293D02*
X280207D01*
X282000Y488500D01*
X298585D01*
X298586Y488501D01*
X301900D01*
X301901Y488500D01*
X304500D01*
X317500Y475500D01*
G01X275372Y515371D02*
X277243Y513500D01*
X301256D01*
X301257Y513501D01*
X307887D01*
X307888Y513500D01*
X309500D01*
X316500Y506500D01*
Y500988D01*
X327500Y489988D01*
Y477500D01*
G01X310500Y492500D02*
Y495570D01*
X308500Y497570D01*
Y503184D01*
X306184Y505500D01*
X278250D01*
X276750Y504000D01*
X272500D01*
G01X285000Y494065D02*
X295227D01*
X296662Y495500D01*
X301500D01*
G01X268757Y540243D02*
X270000Y539000D01*
Y535743D01*
X271540Y534203D01*
Y534097D01*
X273297Y532340D01*
X275917D01*
X279100Y529157D01*
X293330D01*
X293487Y529000D01*
X293499D01*
X295499Y527000D01*
X317488D01*
X324500Y519988D01*
Y514000D01*
G01X286000Y552500D02*
X283878Y554622D01*
X283780D01*
X281033Y557369D01*
Y557467D01*
X281000Y557500D01*
Y560555D01*
X276500Y565055D01*
G01X276000Y556000D02*
X280384Y551616D01*
Y549628D01*
X282506Y547506D01*
G01X284283Y558716D02*
X287289Y555710D01*
X287290D01*
X287500Y555500D01*
X297743D01*
X300500Y558257D01*
Y559500D01*
G01X273000Y575500D02*
X278000Y580500D01*
Y582500D01*
G01X296500Y558500D02*
X279500Y575500D01*
X273000D01*
G01X271350Y570600D02*
X273645Y568305D01*
X282098D01*
X285816Y564587D01*
X285913D01*
X292000Y558500D01*
G01X335500Y574000D02*
X332494Y577006D01*
Y580749D01*
X320743Y592500D01*
X300136D01*
X288366Y604270D01*
X273200D01*
X269300Y600370D01*
G01X312067Y13500D02*
Y21000D01*
X309733D01*
X308987Y20625D01*
X308520Y20125D01*
X308333Y19125D01*
X308520Y18125D01*
X309080Y17500D01*
X309733Y17125D01*
X312067D01*
G01X309733D02*
X308333Y13500D01*
G01X303600D02*
X304160Y13625D01*
X304720Y14125D01*
X305093Y15000D01*
X305280Y16000D01*
X305093Y17000D01*
X304720Y17875D01*
X304160Y18375D01*
X303600Y18500D01*
X303040Y18375D01*
X302480Y17875D01*
X302107Y17000D01*
X302013Y16000D01*
X302107Y15000D01*
X302480Y14125D01*
X303040Y13625D01*
X303600Y13500D01*
G01X298960D02*
Y21000D01*
G01X295040D02*
Y13500D01*
G01Y17250D02*
X298960D01*
G01X292360Y14500D02*
X291613Y13875D01*
X290773Y13500D01*
X290027D01*
X289280Y13875D01*
X288720Y14500D01*
X288440Y15375D01*
X288627Y16250D01*
X289093Y17000D01*
X289933Y17500D01*
X291053Y17750D01*
X291707Y18250D01*
X291987Y19125D01*
X291800Y20000D01*
X291333Y20625D01*
X290680Y21000D01*
X290027D01*
X289373Y20750D01*
X288813Y20125D01*
G01X302000Y109500D02*
Y105000D01*
X301500Y104500D01*
Y101500D01*
G01X307500Y282100D02*
X309622Y279978D01*
Y278378D01*
X311000Y277000D01*
Y229000D01*
X307000Y225000D01*
G01X348000Y331500D02*
X326000D01*
X311541Y345959D01*
X303689D01*
G01X293500Y367878D02*
Y363500D01*
X299000Y358000D01*
Y348500D01*
G01X318743Y394000D02*
X319000Y393743D01*
Y387000D01*
X312500Y380500D01*
X312403D01*
X304903Y373000D01*
X298622D01*
X293500Y367878D01*
G01X303999Y389000D02*
X308499Y393500D01*
X308500D01*
Y410631D01*
X302316Y416815D01*
G01X294500Y414500D02*
Y417500D01*
X299500Y422500D01*
X324499D01*
X328999Y418000D01*
X346426D01*
X350250Y421824D01*
Y444653D01*
X350750Y445153D01*
Y446494D01*
X350000Y447244D01*
Y451000D01*
G01X290500Y415000D02*
Y418000D01*
X297000Y424500D01*
X325957D01*
X330457Y420000D01*
X345597D01*
X348250Y422653D01*
Y446165D01*
X347943Y446472D01*
Y448814D01*
X347000Y449757D01*
Y452500D01*
X350000Y455500D01*
G01X293500Y445500D02*
X298500Y450500D01*
X305000D01*
X306000Y449500D01*
G01X289500Y502000D02*
X291000Y503500D01*
X303743D01*
X306000Y501243D01*
Y494000D01*
G01X302500Y566000D02*
X307625Y560875D01*
X309000Y560000D01*
Y551500D01*
G01X294705Y571464D02*
X298000Y568169D01*
Y564501D01*
X300001Y562500D01*
X302749D01*
X305000Y560249D01*
Y551500D01*
G01X294705Y571464D02*
Y571995D01*
X290650Y576050D01*
G01X319500Y298000D02*
Y293750D01*
X320500Y292750D01*
Y281500D01*
X319000Y280000D01*
Y269500D01*
X322000Y266500D01*
Y250000D01*
X326500Y245500D01*
G01X343000Y238500D02*
X338000Y233500D01*
X328500D01*
X317000Y245000D01*
G01X324500Y277000D02*
X326622Y279122D01*
Y300378D01*
X325453Y301547D01*
Y304547D01*
G01X333000Y238500D02*
X338000Y243500D01*
X345072D01*
X351500Y249928D01*
Y262000D01*
X361500Y272000D01*
Y297743D01*
X351093Y308150D01*
X342558D01*
X331000Y319708D01*
G01X322000Y397500D02*
X319500Y400000D01*
Y411000D01*
X322500Y414000D01*
X345500D01*
X347500Y412000D01*
X359501D01*
X365500Y406001D01*
Y391999D01*
X361000Y387499D01*
Y375757D01*
X362757Y374000D01*
X362864D01*
X365500Y371364D01*
Y358099D01*
X356000Y348599D01*
Y320001D01*
X349499Y313500D01*
X343257D01*
X333799Y322958D01*
X326458D01*
X324000Y320500D01*
G01X343450Y400000D02*
X340450D01*
X336828Y403622D01*
X324622D01*
X322500Y401500D01*
G01X317500Y397000D02*
Y395243D01*
X318743Y394000D01*
G01X343450Y395500D02*
X333500D01*
X332000Y394000D01*
X318743D01*
G01X315000Y514500D02*
X319250D01*
X323250Y510500D01*
Y497251D01*
X330500Y490001D01*
Y472500D01*
G01X331500Y507500D02*
X331990D01*
X337797Y501693D01*
G01X323216Y597706D02*
X367500Y553422D01*
Y533243D01*
X364000Y529743D01*
Y447072D01*
X364500Y446572D01*
Y446501D01*
X366256Y444745D01*
Y427256D01*
X363250Y424250D01*
G01X357000Y243000D02*
Y232500D01*
X343000Y218500D01*
G01Y248500D02*
X349500Y255000D01*
Y264000D01*
X352215Y266715D01*
Y270250D01*
X350215Y272250D01*
X347501D01*
X345500Y274251D01*
Y281500D01*
X341500Y285500D01*
Y294000D01*
G01X338000Y307000D02*
X345000Y300000D01*
Y286500D01*
X349500Y282000D01*
Y275500D01*
G01X357050Y401500D02*
X352500Y396950D01*
Y383501D01*
X351519Y382520D01*
Y370750D01*
X353422Y368847D01*
X355288D01*
X359000Y365135D01*
Y354428D01*
X354000Y349428D01*
Y322500D01*
X348000Y316500D01*
G01X343450Y400000D02*
X346500D01*
X350500Y396000D01*
Y385500D01*
X349000Y384000D01*
Y370440D01*
X352593Y366847D01*
X354396D01*
X357000Y364243D01*
Y355257D01*
X352000Y350257D01*
Y332500D01*
X351000Y331500D01*
X348000D01*
G01X343501Y423500D02*
Y428001D01*
X346250Y430750D01*
Y445336D01*
X345943Y445643D01*
Y446557D01*
X341000Y451500D01*
Y453526D01*
X336733Y457793D01*
G01X335056Y453701D02*
X344250Y444507D01*
Y431653D01*
X342222Y429625D01*
Y429622D01*
X340100Y427500D01*
G01X333265Y499795D02*
X338500Y494560D01*
Y482500D01*
G01X350000Y475000D02*
X357378Y467622D01*
Y446622D01*
X359500Y444500D01*
G01X350434Y503631D02*
X355631D01*
X356000Y504000D01*
G01X350663Y508013D02*
X352785Y510135D01*
Y510282D01*
X356000Y513497D01*
Y535317D01*
X353500Y537817D01*
Y550500D01*
G01X348000Y540500D02*
Y540328D01*
X354000Y534328D01*
Y519000D01*
X349000Y514000D01*
G01X338725Y532000D02*
X343464D01*
X344464Y533000D01*
X351000D01*
G01X350750Y527375D02*
X343145D01*
X342449Y526679D01*
X338860D01*
G01X348000Y550500D02*
Y540500D01*
G01X362500Y308000D02*
X364622Y305878D01*
Y269622D01*
X357000Y262000D01*
Y243000D01*
G01X367000Y334500D02*
Y337500D01*
X368000Y338500D01*
Y419500D01*
X363250Y424250D01*
G01X356000Y504000D02*
X358000Y506000D01*
Y532317D01*
X361500Y535817D01*
Y540500D01*
X361000Y541000D01*
X360999D01*
X359499Y542500D01*
G54D22*
G01X250240Y28500D02*
X237240Y41500D01*
X148500D01*
X134500Y55500D01*
Y64500D01*
X59000Y578000D03*
X86750Y398000D03*
X110500Y85130D03*
Y163870D03*
X164500Y578000D03*
X159000Y572500D03*
X286750Y398000D03*
X314000Y578000D03*
X336500Y361700D03*
G54D13*
G01X98000Y151500D02*
X92000D01*
X61500Y182000D01*
Y188000D01*
G01X157500Y49500D02*
Y58500D01*
X164500Y65500D01*
X229500D01*
X243000Y79000D01*
X275000D01*
X282500Y86500D01*
X314000D01*
G01X288150Y53700D02*
Y79300D01*
X16000Y273000D03*
X15500Y294000D03*
X52500Y117000D03*
X85250Y26250D03*
X78250D03*
X71750D03*
X106000Y38000D03*
X91750Y26250D03*
X106000Y45500D03*
Y58500D03*
Y52000D03*
X98000Y151500D03*
X117500Y45500D03*
X134500Y64500D03*
X150550Y125000D03*
X153500Y446000D03*
Y431500D03*
X157500Y49500D03*
X171500Y125000D03*
X162000Y439000D03*
X314000Y86500D03*
X333000Y288000D03*
X361500Y258000D03*
G54D32*
G01X17000Y227000D02*
Y255500D01*
X10500Y262000D01*
Y355000D01*
G01X10000Y254500D02*
X6000Y258500D01*
Y597500D01*
X31500Y623000D01*
X311500D01*
X315000Y619500D01*
X344000D01*
X356000Y607500D01*
Y591500D01*
G01X338500Y614000D02*
X315000D01*
X309000Y620000D01*
X33000D01*
X10500Y597500D01*
Y491000D01*
X27500Y474000D01*
Y455000D01*
X10500Y438000D01*
Y355000D01*
G01D02*
X118500D01*
X132000Y368500D01*
G01X146500Y183500D02*
X133000D01*
X116500Y167000D01*
Y158500D01*
X109500Y151500D01*
X98000D01*
G01X104500Y182500D02*
X99000Y177000D01*
Y173500D01*
X102000Y170500D01*
X112500D01*
X113000Y171000D01*
G01X93500Y200000D02*
X109000Y215500D01*
X119000D01*
G01X102000Y234700D02*
X107200Y229500D01*
X113500D01*
G01X130000Y154000D02*
X137500Y146500D01*
X183000D01*
X185000Y144500D01*
X268000D01*
X268500Y145000D01*
G01X166500Y237000D02*
X161500D01*
X142000Y217500D01*
X131000D01*
G01X148000Y232500D02*
X136000D01*
X119000Y215500D01*
G01X148000Y232500D02*
X158000Y242500D01*
X170000D01*
X172000Y240500D01*
Y236500D01*
G01X144000Y259500D02*
Y253700D01*
X148200Y249500D01*
G01X192000Y393000D02*
X183964D01*
X179964Y397000D01*
X159779D01*
X150500Y387721D01*
Y368500D01*
G01X238500Y120000D02*
X233501Y115001D01*
Y115000D01*
X229501Y111000D01*
X181500D01*
X178000Y107500D01*
Y89000D01*
X170000Y81000D01*
G01X317000Y283000D02*
Y286500D01*
X315500Y288000D01*
Y300721D01*
X309221Y307000D01*
X303500D01*
X300000Y310500D01*
Y319000D01*
X297201Y321799D01*
X294666D01*
X294665Y321800D01*
X285079D01*
X282779Y319500D01*
X273607D01*
X272144Y318037D01*
Y318036D01*
X267072Y312964D01*
Y312963D01*
X265609Y311500D01*
X265608D01*
X265607Y311499D01*
X263537D01*
X263536Y311500D01*
X236641D01*
X227446Y302305D01*
X218195D01*
X211000Y309500D01*
X178000D01*
X168000Y319500D01*
Y337000D01*
X160500Y344500D01*
X154500D01*
G01X187500Y148500D02*
X195000D01*
X196000Y147500D01*
X263500D01*
X266000Y150000D01*
X274000D01*
G01X235000Y134500D02*
X219500D01*
G01X248500Y130500D02*
X244500Y134500D01*
X235000D01*
G01X255000Y377500D02*
X251500Y381000D01*
X240500D01*
X228500Y393000D01*
G01X256500Y107000D02*
Y92500D01*
X265000Y84000D01*
G01Y73500D02*
X270500Y68000D01*
Y60500D01*
G01X283000Y129000D02*
X265500Y111500D01*
Y98000D01*
G01X279500Y380500D02*
X264700D01*
X257810Y387390D01*
G01X271000Y85000D02*
Y110500D01*
X285000Y124500D01*
X321250D01*
X328000Y131250D01*
Y137000D01*
G01X315500Y129000D02*
X283000D01*
G01X328000Y137000D02*
X303500D01*
X299500Y133000D01*
X272000D01*
X270500Y134500D01*
G01X282500Y137500D02*
X293500D01*
X298500Y142500D01*
G01X281000Y196500D02*
X280000Y195500D01*
Y162500D01*
G01X316000Y392500D02*
X315000D01*
X309499Y386999D01*
Y381132D01*
X303867Y375500D01*
X294428D01*
X291500Y378428D01*
Y378450D01*
X289450Y380500D01*
X279500D01*
G01X304000Y172000D02*
X295500D01*
X291500Y168000D01*
G01Y162500D02*
X296250D01*
X296750Y163000D01*
X300000D01*
X303500Y166500D01*
G01X288150Y248700D02*
Y274300D01*
G01X336550Y411000D02*
X340050D01*
X342000Y409050D01*
Y409000D01*
G01D02*
X351600D01*
X355600Y405000D01*
X359500D01*
X362500Y402000D01*
Y398500D01*
G01X342141Y404859D02*
X342000Y405000D01*
Y409000D01*
G54D14*
X15600Y470100D03*
X96600D03*
G54D23*
X77500Y337000D03*
X87500Y332000D03*
X77500Y327000D03*
X87500Y322000D03*
X130000Y154000D03*
X140000D03*
X250240Y28500D03*
X279760D03*
G54D33*
G01X-23033Y100330D02*
Y95330D01*
X-25567D01*
G01X-27017D02*
X-28600Y100330D01*
X-30183Y95330D01*
G01X-29613Y97080D02*
X-27587D01*
G01X-32900Y95330D02*
Y97580D01*
X-31633Y100330D01*
G01X-34167D02*
X-32900Y97580D01*
G01X-38467Y95330D02*
X-35933D01*
Y100330D01*
X-38467D01*
G01X-37453Y97913D02*
X-35933D01*
G01X-40233Y95330D02*
Y100330D01*
X-41817D01*
X-42323Y100080D01*
X-42640Y99747D01*
X-42767Y99080D01*
X-42640Y98413D01*
X-42260Y97997D01*
X-41817Y97747D01*
X-40233D01*
G01X-41817D02*
X-42767Y95330D01*
G01X-50860D02*
Y100330D01*
X-48517Y96747D01*
X-51683D01*
G01X-59207Y97997D02*
X-59460Y98247D01*
X-59650Y98663D01*
X-59777Y99247D01*
X-59650Y99747D01*
X-59397Y100080D01*
X-58953Y100330D01*
X-57243D01*
Y95330D01*
X-59333D01*
X-59777Y95663D01*
X-60030Y96163D01*
X-60157Y96747D01*
X-60030Y97330D01*
X-59650Y97830D01*
X-59207Y97997D01*
X-57243D01*
G01X-63000Y95330D02*
X-62493Y95413D01*
X-62050Y95747D01*
X-61670Y96247D01*
X-61417Y96830D01*
X-61290Y97497D01*
Y98163D01*
X-61417Y98830D01*
X-61670Y99413D01*
X-62050Y99913D01*
X-62493Y100247D01*
X-63000Y100330D01*
X-63507Y100247D01*
X-63950Y99913D01*
X-64330Y99413D01*
X-64583Y98830D01*
X-64710Y98163D01*
Y97497D01*
X-64583Y96830D01*
X-64330Y96247D01*
X-63950Y95747D01*
X-63507Y95413D01*
X-63000Y95330D01*
G01X-67300Y100330D02*
Y95330D01*
G01X-65843Y100330D02*
X-68757D01*
G01X-71600D02*
Y95330D01*
G01X-70143Y100330D02*
X-73057D01*
G01X-75900Y95330D02*
X-75393Y95413D01*
X-74950Y95747D01*
X-74570Y96247D01*
X-74317Y96830D01*
X-74190Y97497D01*
Y98163D01*
X-74317Y98830D01*
X-74570Y99413D01*
X-74950Y99913D01*
X-75393Y100247D01*
X-75900Y100330D01*
X-76407Y100247D01*
X-76850Y99913D01*
X-77230Y99413D01*
X-77483Y98830D01*
X-77610Y98163D01*
Y97497D01*
X-77483Y96830D01*
X-77230Y96247D01*
X-76850Y95747D01*
X-76407Y95413D01*
X-75900Y95330D01*
G01X-78553D02*
Y100330D01*
X-80200Y96163D01*
X-81847Y100330D01*
Y95330D01*
G01X-87470Y95997D02*
X-87977Y95580D01*
X-88547Y95330D01*
X-89053D01*
X-89560Y95580D01*
X-89940Y95997D01*
X-90130Y96580D01*
X-90003Y97163D01*
X-89687Y97663D01*
X-89117Y97997D01*
X-88357Y98163D01*
X-87913Y98497D01*
X-87723Y99080D01*
X-87850Y99663D01*
X-88167Y100080D01*
X-88610Y100330D01*
X-89053D01*
X-89497Y100163D01*
X-89877Y99747D01*
G01X-92340Y100330D02*
X-93860D01*
G01X-93100D02*
Y95330D01*
G01X-92340D02*
X-93860D01*
G01X-96007D02*
Y100330D01*
X-97273D01*
X-97780Y100080D01*
X-98160Y99747D01*
X-98477Y99247D01*
X-98730Y98663D01*
X-98793Y97830D01*
X-98730Y96997D01*
X-98477Y96413D01*
X-98160Y95913D01*
X-97780Y95580D01*
X-97273Y95330D01*
X-96007D01*
G01X-102967D02*
X-100433D01*
Y100330D01*
X-102967D01*
G01X-101953Y97913D02*
X-100433D01*
G54D15*
X18000Y517000D03*
X20000Y595000D03*
X23500Y420000D03*
X31500Y412000D03*
X76000Y183000D03*
X87500Y607500D03*
X103500Y369000D03*
X106500Y465500D03*
X96500Y489000D03*
X106000Y488000D03*
X99500Y481000D03*
X115500Y199500D03*
X131500Y451500D03*
X172500Y259000D03*
X221000Y442000D03*
X212000D03*
X239000Y210500D03*
X231500Y214000D03*
X252000Y424500D03*
X261000Y406500D03*
X247500Y434500D03*
X258000Y436500D03*
X272000Y175000D03*
X271000Y219000D03*
X269500Y407500D03*
X277500Y410500D03*
X296500Y380500D03*
X322500Y189500D03*
X361000Y369500D03*
G54D24*
X100000Y498500D03*
Y508500D03*
Y518500D03*
Y528500D03*
Y538500D03*
Y548500D03*
Y558500D03*
Y568500D03*
G54D16*
X47000Y26500D03*
X187000Y326500D03*
X326500Y26500D03*
G54D25*
X111500Y304000D03*
X343000Y208500D03*
G54D17*
X24500Y241000D03*
Y231000D03*
X105500Y258500D03*
Y268500D03*
Y278500D03*
X111500Y314000D03*
Y334000D03*
Y324000D03*
Y344000D03*
X288150Y53700D03*
Y79300D03*
Y118700D03*
Y144300D03*
Y183700D03*
Y209300D03*
Y248700D03*
Y274300D03*
Y313700D03*
Y339300D03*
X305850Y53700D03*
Y79300D03*
Y118700D03*
Y144300D03*
Y183700D03*
Y209300D03*
Y248700D03*
Y274300D03*
Y313700D03*
Y339300D03*
X333000Y218500D03*
Y208500D03*
Y248500D03*
Y238500D03*
Y228500D03*
Y258500D03*
X343000Y218500D03*
Y248500D03*
Y238500D03*
Y228500D03*
Y258500D03*
X356000Y591500D03*
X346000D03*
G54D26*
G01X9500Y60000D02*
Y89000D01*
X47500Y127000D01*
G01X33500Y59000D02*
X46000Y71500D01*
X52500D01*
G01Y46500D02*
X65000Y59000D01*
Y86000D01*
X74000Y95000D01*
X98000D01*
G01X127500Y170000D02*
X121500Y164000D01*
Y137000D01*
X111500Y127000D01*
X47500D01*
G01X98000Y95000D02*
X116500D01*
X128000Y83500D01*
G01X139500Y84000D02*
X126500Y71000D01*
Y9500D01*
G01X361500Y258000D02*
Y248000D01*
X366000Y243500D01*
Y144500D01*
X357000Y135500D01*
X341500D01*
X330500Y124500D01*
X128000Y435500D03*
Y441500D03*
G54D27*
X170000Y81000D03*
Y102700D03*
X186500Y81000D03*
Y102700D03*
X203000Y81000D03*
Y102700D03*
G54D18*
G01D02*
X211800D01*
X222000Y92500D01*
G01X276000Y52500D02*
Y50280D01*
X282640Y43640D01*
X313140D01*
X318000Y48500D01*
X353000D01*
X39000Y289500D03*
Y300500D03*
X39500Y505500D03*
X57000Y224500D03*
X85000D03*
X70500D03*
X222000Y52500D03*
Y92500D03*
X237500Y52500D03*
Y92500D03*
X250000Y64500D03*
X276000Y52500D03*
G54D19*
X60500Y213000D03*
X80500D03*
X70500D03*
G54D28*
X191500Y409500D03*
X181500D03*
X221500D03*
X211500D03*
X201500D03*
X241500D03*
X231500D03*
X251500D03*
G54D29*
X194500Y592500D03*
X198440Y600370D03*
X202370Y592500D03*
X206310Y600370D03*
X210250Y592500D03*
X214190Y600370D03*
X218120Y592500D03*
X222060Y600370D03*
X225990Y592500D03*
X229930Y600370D03*
X233870Y592500D03*
X237810Y600370D03*
X241740Y592500D03*
X245680Y600370D03*
X249620Y592500D03*
X253550Y600370D03*
X257490Y592500D03*
X261430Y600370D03*
X265370Y592500D03*
X269300Y600370D03*
X273240Y592500D03*
X277180Y600370D03*
X281110Y592500D03*
X285050Y600370D03*
M02*
