G04 ================== begin FILE IDENTIFICATION RECORD ==================*
G04 Layout Name:  P:/Midtronics/184-000309-RevA/pcb/allegro/184-000309RevA.brd*
G04 Film Name:    PMB*
G04 File Format:  Gerber RS274X*
G04 File Origin:  Cadence Allegro 16.6-S033*
G04 Origin Date:  Mon Aug 25 10:18:22 2014*
G04 *
G04 Layer:  BOARD GEOMETRY/PASTEMASK_BOTTOM*
G04 Layer:  PACKAGE GEOMETRY/PASTEMASK_BOTTOM*
G04 Layer:  PIN/PASTEMASK_BOTTOM*
G04 Layer:  VIA CLASS/PASTEMASK_BOTTOM*
G04 *
G04 Offset:    (0.00 0.00)*
G04 Mirror:    No*
G04 Mode:      Positive*
G04 Rotation:  0*
G04 FullContactRelief:  No*
G04 UndefLineWidth:     5.00*
G04 ================== end FILE IDENTIFICATION RECORD ====================*
%FSLAX25Y25*MOIN*%
%IR0*IPPOS*OFA0.00000B0.00000*MIA0B0*SFA1.00000B1.00000*%
%ADD10C,.035*%
%ADD11C,.005*%
G75*
%LPD*%
G75*
G54D10*
X95854Y442146D03*
X104633Y589367D03*
X127000Y514318D03*
X132000Y553000D03*
X114530Y575149D03*
X122000Y588500D03*
X151356Y523721D03*
X137500Y591000D03*
X169000Y366500D03*
X159966Y428723D03*
X170855Y436354D03*
X171500Y541000D03*
X187889Y137889D03*
X177500Y375000D03*
X193500Y448023D03*
X197500Y534500D03*
X208500Y369000D03*
X230048Y330783D03*
X224000Y339500D03*
X232526Y585000D03*
X261000Y328500D03*
X254000Y341000D03*
X264500Y568500D03*
X279105Y427242D03*
X275372Y515371D03*
X272500Y504000D03*
X268757Y540243D03*
X273000Y575500D03*
X293500Y445500D03*
X289500Y502000D03*
X294705Y571464D03*
X319500Y298000D03*
X331000Y319708D03*
X315000Y514500D03*
X331500Y507500D03*
X323216Y597706D03*
X341500Y294000D03*
X338500Y482500D03*
X348000Y540500D03*
X335500Y574000D03*
X357000Y243000D03*
X356000Y504000D03*
G54D11*
G01X-1720Y76497D02*
X-2227Y76080D01*
X-2797Y75830D01*
X-3303D01*
X-3810Y76080D01*
X-4190Y76497D01*
X-4380Y77080D01*
X-4253Y77663D01*
X-3937Y78163D01*
X-3367Y78497D01*
X-2607Y78663D01*
X-2163Y78997D01*
X-1973Y79580D01*
X-2100Y80163D01*
X-2417Y80580D01*
X-2860Y80830D01*
X-3303D01*
X-3747Y80663D01*
X-4127Y80247D01*
G01X-7350Y75830D02*
X-6843Y75913D01*
X-6400Y76247D01*
X-6020Y76747D01*
X-5767Y77330D01*
X-5640Y77997D01*
Y78663D01*
X-5767Y79330D01*
X-6020Y79913D01*
X-6400Y80413D01*
X-6843Y80747D01*
X-7350Y80830D01*
X-7857Y80747D01*
X-8300Y80413D01*
X-8680Y79913D01*
X-8933Y79330D01*
X-9060Y78663D01*
Y77997D01*
X-8933Y77330D01*
X-8680Y76747D01*
X-8300Y76247D01*
X-7857Y75913D01*
X-7350Y75830D01*
G01X-10383Y80830D02*
Y75830D01*
X-12917D01*
G01X-14557D02*
Y80830D01*
X-15823D01*
X-16330Y80580D01*
X-16710Y80247D01*
X-17027Y79747D01*
X-17280Y79163D01*
X-17343Y78330D01*
X-17280Y77497D01*
X-17027Y76913D01*
X-16710Y76413D01*
X-16330Y76080D01*
X-15823Y75830D01*
X-14557D01*
G01X-21517D02*
X-18983D01*
Y80830D01*
X-21517D01*
G01X-20503Y78413D02*
X-18983D01*
G01X-23283Y75830D02*
Y80830D01*
X-24867D01*
X-25373Y80580D01*
X-25690Y80247D01*
X-25817Y79580D01*
X-25690Y78913D01*
X-25310Y78497D01*
X-24867Y78247D01*
X-23283D01*
G01X-24867D02*
X-25817Y75830D01*
G01X-31883D02*
Y80830D01*
X-33403D01*
X-33910Y80580D01*
X-34290Y79997D01*
X-34417Y79330D01*
X-34290Y78663D01*
X-33973Y78163D01*
X-33403Y77913D01*
X-31883D01*
G01X-35867Y75830D02*
X-37450Y80830D01*
X-39033Y75830D01*
G01X-38463Y77580D02*
X-36437D01*
G01X-40420Y76497D02*
X-40927Y76080D01*
X-41497Y75830D01*
X-42003D01*
X-42510Y76080D01*
X-42890Y76497D01*
X-43080Y77080D01*
X-42953Y77663D01*
X-42637Y78163D01*
X-42067Y78497D01*
X-41307Y78663D01*
X-40863Y78997D01*
X-40673Y79580D01*
X-40800Y80163D01*
X-41117Y80580D01*
X-41560Y80830D01*
X-42003D01*
X-42447Y80663D01*
X-42827Y80247D01*
G01X-46050Y80830D02*
Y75830D01*
G01X-44593Y80830D02*
X-47507D01*
G01X-51617Y75830D02*
X-49083D01*
Y80830D01*
X-51617D01*
G01X-50603Y78413D02*
X-49083D01*
G01X-59457Y78497D02*
X-59710Y78747D01*
X-59900Y79163D01*
X-60027Y79747D01*
X-59900Y80247D01*
X-59647Y80580D01*
X-59203Y80830D01*
X-57493D01*
Y75830D01*
X-59583D01*
X-60027Y76163D01*
X-60280Y76663D01*
X-60407Y77247D01*
X-60280Y77830D01*
X-59900Y78330D01*
X-59457Y78497D01*
X-57493D01*
G01X-63250Y75830D02*
X-62743Y75913D01*
X-62300Y76247D01*
X-61920Y76747D01*
X-61667Y77330D01*
X-61540Y77997D01*
Y78663D01*
X-61667Y79330D01*
X-61920Y79913D01*
X-62300Y80413D01*
X-62743Y80747D01*
X-63250Y80830D01*
X-63757Y80747D01*
X-64200Y80413D01*
X-64580Y79913D01*
X-64833Y79330D01*
X-64960Y78663D01*
Y77997D01*
X-64833Y77330D01*
X-64580Y76747D01*
X-64200Y76247D01*
X-63757Y75913D01*
X-63250Y75830D01*
G01X-67550Y80830D02*
Y75830D01*
G01X-66093Y80830D02*
X-69007D01*
G01X-71850D02*
Y75830D01*
G01X-70393Y80830D02*
X-73307D01*
G01X-76150Y75830D02*
X-75643Y75913D01*
X-75200Y76247D01*
X-74820Y76747D01*
X-74567Y77330D01*
X-74440Y77997D01*
Y78663D01*
X-74567Y79330D01*
X-74820Y79913D01*
X-75200Y80413D01*
X-75643Y80747D01*
X-76150Y80830D01*
X-76657Y80747D01*
X-77100Y80413D01*
X-77480Y79913D01*
X-77733Y79330D01*
X-77860Y78663D01*
Y77997D01*
X-77733Y77330D01*
X-77480Y76747D01*
X-77100Y76247D01*
X-76657Y75913D01*
X-76150Y75830D01*
G01X-78803D02*
Y80830D01*
X-80450Y76663D01*
X-82097Y80830D01*
Y75830D01*
G01X-87720Y76497D02*
X-88227Y76080D01*
X-88797Y75830D01*
X-89303D01*
X-89810Y76080D01*
X-90190Y76497D01*
X-90380Y77080D01*
X-90253Y77663D01*
X-89937Y78163D01*
X-89367Y78497D01*
X-88607Y78663D01*
X-88163Y78997D01*
X-87973Y79580D01*
X-88100Y80163D01*
X-88417Y80580D01*
X-88860Y80830D01*
X-89303D01*
X-89747Y80663D01*
X-90127Y80247D01*
G01X-92590Y80830D02*
X-94110D01*
G01X-93350D02*
Y75830D01*
G01X-92590D02*
X-94110D01*
G01X-96257D02*
Y80830D01*
X-97523D01*
X-98030Y80580D01*
X-98410Y80247D01*
X-98727Y79747D01*
X-98980Y79163D01*
X-99043Y78330D01*
X-98980Y77497D01*
X-98727Y76913D01*
X-98410Y76413D01*
X-98030Y76080D01*
X-97523Y75830D01*
X-96257D01*
G01X-103217D02*
X-100683D01*
Y80830D01*
X-103217D01*
G01X-102203Y78413D02*
X-100683D01*
M02*
