G04 ================== begin FILE IDENTIFICATION RECORD ==================*
G04 Layout Name:  P:/Midtronics/184-000309-RevA/pcb/allegro/184-000309RevA.brd*
G04 Film Name:    PMT*
G04 File Format:  Gerber RS274X*
G04 File Origin:  Cadence Allegro 16.6-S033*
G04 Origin Date:  Mon Aug 25 10:18:22 2014*
G04 *
G04 Layer:  BOARD GEOMETRY/PASTEMASK_TOP*
G04 Layer:  PACKAGE GEOMETRY/PASTEMASK_TOP*
G04 Layer:  PIN/PASTEMASK_TOP*
G04 Layer:  VIA CLASS/PASTEMASK_TOP*
G04 *
G04 Offset:    (0.00 0.00)*
G04 Mirror:    No*
G04 Mode:      Positive*
G04 Rotation:  0*
G04 FullContactRelief:  No*
G04 UndefLineWidth:     5.00*
G04 ================== end FILE IDENTIFICATION RECORD ====================*
%FSLAX25Y25*MOIN*%
%IR0*IPPOS*OFA0.00000B0.00000*MIA0B0*SFA1.00000B1.00000*%
%AMMACRO58*
4,1,22,0.0,-.01333,
.00094,-.01333,
.001873,-.013167,
.002764,-.012844,
.003586,-.012371,
.004312,-.011763,
.004923,-.011038,
.005398,-.010218,
.005723,-.009328,
.005889,-.008395,
.00591,-.00791,
.00591,.01333,
-.00591,.01333,
-.00591,-.00791,
-.005731,-.008928,
-.005378,-.0099,
-.004862,-.010796,
-.004198,-.011589,
-.003407,-.012254,
-.002511,-.012772,
-.00154,-.013127,
-.000522,-.013307,
0.0,-.01333,
0.0*
%
%ADD58MACRO58*%
%ADD23O,.025X.1*%
%ADD24R,.025X.1*%
%AMMACRO56*
4,1,22,-.00791,-.00591,
.01333,-.00591,
.01333,.00591,
-.00791,.00591,
-.008928,.005731,
-.0099,.005378,
-.010796,.004862,
-.011589,.004198,
-.012254,.003407,
-.012772,.002511,
-.013127,.00154,
-.013307,.000522,
-.01333,0.0,
-.01333,-.00094,
-.013167,-.001873,
-.012844,-.002764,
-.012371,-.003586,
-.011763,-.004312,
-.011038,-.004923,
-.010218,-.005398,
-.009328,-.005723,
-.008395,-.005889,
-.00791,-.00591,
0.0*
%
%ADD56MACRO56*%
%ADD84R,.063X.1023*%
%ADD32R,.035X.115*%
%ADD69R,.115X.035*%
%ADD94R,.063X.106*%
%ADD46R,.063X.126*%
%ADD16R,.126X.063*%
%ADD65R,.063X.1181*%
%ADD82R,.1181X.063*%
%ADD89R,.06102X.11811*%
%ADD79R,.087X.142*%
%ADD36R,.145X.076*%
%ADD40R,.0669X.1102*%
%ADD18R,.031X.031*%
%ADD21R,.1023X.0984*%
%ADD73R,.0826X.1181*%
%ADD44R,.037X.037*%
%ADD60R,.086X.086*%
%AMMACRO57*
4,1,22,-.00591,-.01358,
.00591,-.01358,
.00591,.00807,
.005748,.00909,
.005412,.010066,
.004911,.010969,
.004261,.011772,
.003481,.012449,
.002596,.012981,
.001632,.013351,
.000618,.013548,
0.0,.01358,
-.00079,.01358,
-.001736,.013431,
-.002643,.013121,
-.003481,.012657,
-.004227,.012055,
-.004856,.011333,
-.005351,.010512,
-.005695,.009618,
-.005879,.008678,
-.00591,.00807,
-.00591,-.01358,
0.0*
%
%ADD57MACRO57*%
%AMMACRO55*
4,1,22,-.01333,-.00591,
.00791,-.00591,
.008928,-.005731,
.0099,-.005378,
.010796,-.004862,
.011589,-.004198,
.012254,-.003407,
.012772,-.002511,
.013127,-.00154,
.013307,-.000522,
.01333,0.0,
.01333,.00094,
.013167,.001873,
.012844,.002764,
.012371,.003586,
.011763,.004312,
.011038,.004923,
.010218,.005398,
.009328,.005723,
.008395,.005889,
.00791,.00591,
-.01333,.00591,
-.01333,-.00591,
0.0*
%
%ADD55MACRO55*%
%ADD38R,.0669X.1299*%
%ADD93R,.00984X.03937*%
%AMMACRO54*
4,1,5,-.0332,-.0443,
.0443,-.0443,
.0443,.0443,
-.0443,.0443,
-.0443,-.0332,
-.0332,-.0443,
0.0*
%
%ADD54MACRO54*%
%ADD91R,.23X.22*%
%ADD31R,.244X.203*%
%ADD77R,.04X.034*%
%ADD37R,.203X.244*%
%ADD87R,.034X.04*%
%ADD78R,.05X.034*%
%ADD66R,.012X.063*%
%ADD62R,.063X.012*%
%ADD92R,.031X.035*%
%ADD88R,.034X.05*%
%ADD45R,.021X.037*%
%ADD25R,.07X.062*%
%ADD33R,.342X.435*%
%ADD10R,.062X.07*%
%ADD81R,.0118X.061*%
%ADD76R,.061X.0118*%
%ADD63R,.0512X.0413*%
%ADD59R,.038X.032*%
%ADD34O,.025X.094*%
%AMMACRO95*
4,1,7,-.04921,.03346,
-.04921,-.03346,
.04921,-.03346,
.04921,.01673,
.04921,.02116,
.03691,.03346,
.02461,.03346,
-.04921,.03346,
0.0*
%
%ADD95MACRO95*%
%ADD71R,.0315X.0512*%
%ADD41O,.094X.025*%
%ADD27R,.035X.028*%
%ADD14R,.039X.043*%
%ADD90R,.086X.024*%
%ADD86R,.072X.056*%
%ADD80R,.094X.016*%
%ADD42R,.025X.094*%
%ADD30R,.059X.051*%
%ADD13R,.043X.039*%
%ADD47R,.094X.025*%
%ADD26R,.063X.039*%
%ADD22R,.051X.059*%
%ADD19R,.0236X.0315*%
%ADD51R,.0153X.048*%
%ADD39R,.039X.063*%
%ADD35R,.0433X.0236*%
%ADD20R,.027X.039*%
%ADD11R,.055X.039*%
%ADD70R,.059X.0512*%
%ADD50R,.059X.063*%
%ADD15R,.039X.055*%
%ADD64R,.063X.059*%
%ADD85R,.087X.047*%
%ADD83R,.0256X.0807*%
%ADD67R,.02953X.0126*%
%ADD17R,.079X.047*%
%ADD74R,.0126X.02953*%
%ADD52R,.0315X.0748*%
%ADD72R,.063X.0984*%
%ADD61R,.0177X.0591*%
%ADD53R,.0236X.0748*%
%ADD48R,.0984X.063*%
%ADD28R,.0984X.0433*%
%ADD49R,.0118X.0669*%
%ADD43R,.0669X.0118*%
%ADD12R,.0827X.0708*%
%ADD29R,.0905X.0767*%
%ADD68R,.02953X.0189*%
%ADD75R,.0189X.02953*%
%ADD96C,.005*%
G75*
%LPD*%
G75*
G54D10*
X21000Y14500D03*
X10000D03*
X63500Y53000D03*
X52500D03*
X63500Y62000D03*
X52500D03*
X100500Y222500D03*
Y250000D03*
X111500Y222500D03*
X131000Y211500D03*
X111500Y250000D03*
X128500Y380500D03*
Y389500D03*
Y398500D03*
Y407500D03*
Y416500D03*
X126500Y560500D03*
Y570500D03*
X142000Y211500D03*
X139500Y380500D03*
Y389500D03*
Y398500D03*
Y407500D03*
Y416500D03*
X137500Y560500D03*
Y570500D03*
G54D11*
X11200Y35750D03*
X19800Y32000D03*
X11200Y28250D03*
X130200Y296000D03*
X153200Y134500D03*
X148800Y192250D03*
X140200Y196000D03*
X148800Y199750D03*
X138800Y292250D03*
Y299750D03*
X161800Y130750D03*
Y138250D03*
X169200Y228500D03*
X199300Y199750D03*
X190700Y203500D03*
X199300Y207250D03*
X177800Y224750D03*
Y232250D03*
X217300Y117750D03*
X208700Y121500D03*
X217300Y125250D03*
X260800Y134250D03*
X252200Y138000D03*
X260800Y141750D03*
X279800Y72750D03*
X271200Y76500D03*
X279800Y80250D03*
X277800Y226750D03*
X269200Y230500D03*
X277800Y234250D03*
X288700Y357000D03*
X297300Y353250D03*
Y360750D03*
X315200Y151750D03*
X323800Y148000D03*
X315200Y144250D03*
X352700Y320200D03*
Y327700D03*
X361300Y323950D03*
G54D20*
X38250Y52900D03*
Y63100D03*
X42000Y52900D03*
X45750D03*
Y63100D03*
G54D12*
X9480Y51000D03*
X31520D03*
G54D30*
X49000Y213000D03*
Y220500D03*
X90000Y213000D03*
Y205500D03*
X178500Y586750D03*
Y594250D03*
X324000Y172500D03*
Y165000D03*
X323000Y355000D03*
X314000D03*
X323000Y362500D03*
X314000D03*
X343000Y269000D03*
Y276500D03*
X361500Y353750D03*
Y361250D03*
G54D21*
X29400Y69380D03*
Y177250D03*
G54D22*
X39500Y213000D03*
X32000D03*
X354000Y267000D03*
X361500D03*
G54D13*
X17150Y219500D03*
X14150Y551500D03*
Y541500D03*
X23850Y219500D03*
X20850Y551500D03*
X36350Y546000D03*
X29650D03*
X20850Y541500D03*
X83650Y582500D03*
Y589500D03*
X109150Y182500D03*
X108350Y189500D03*
X101650D03*
X105150Y213500D03*
X102150Y230000D03*
X108850D03*
X106850Y241500D03*
X100150D03*
X108350Y582000D03*
X101650D03*
X90350Y582500D03*
X101650Y589000D03*
X108350D03*
X90350Y589500D03*
X126150Y137500D03*
X122350Y189500D03*
X115650D03*
X115850Y182500D03*
X112150Y206500D03*
X118850D03*
X111850Y213500D03*
X132150Y285000D03*
X120850Y468500D03*
X114150D03*
Y482500D03*
X120850D03*
Y489500D03*
X114150D03*
Y475500D03*
X120850D03*
X114150Y496500D03*
X120850D03*
Y510500D03*
X114150D03*
Y503500D03*
X120850D03*
X124850Y582000D03*
X118150D03*
X124850Y589000D03*
X118150D03*
X132850Y137500D03*
X145850D03*
X139150D03*
X152650Y224500D03*
Y236500D03*
Y230500D03*
X138850Y285000D03*
X137150Y306000D03*
X143850D03*
X137150Y313000D03*
X143850D03*
X151650Y354000D03*
X153150Y401500D03*
Y410000D03*
X140150Y453500D03*
X146850D03*
X154150D03*
X153850Y559000D03*
X147150D03*
X153150Y552000D03*
X159350Y224500D03*
Y236500D03*
Y230500D03*
X170650Y352000D03*
X158350Y354000D03*
X159850Y401500D03*
Y410000D03*
X160850Y453500D03*
X155150Y539500D03*
X161850D03*
X167850Y559000D03*
X161150D03*
X159850Y552000D03*
X187650Y155500D03*
X194350D03*
X197350Y257000D03*
X190650D03*
X177350Y352000D03*
X194150Y539000D03*
X207650Y134500D03*
X214350D03*
X218650Y142000D03*
X215650Y464000D03*
Y471000D03*
Y454500D03*
X217150Y479000D03*
X216650Y503000D03*
X217150Y512000D03*
Y520500D03*
X200850Y539000D03*
X225350Y142000D03*
X237850Y353000D03*
X231150D03*
X237650Y422500D03*
X235650Y444000D03*
X242350D03*
X222350Y464000D03*
Y471000D03*
Y454500D03*
X235150Y474500D03*
X241850D03*
X223850Y479000D03*
X235650Y503000D03*
X242350D03*
X235650Y496000D03*
X242350D03*
X235650Y512500D03*
X242350D03*
X223350Y503000D03*
X223850Y512000D03*
X235650Y527500D03*
X242350D03*
X235650Y519500D03*
X242350D03*
X223850Y520500D03*
X257850Y153000D03*
X251150D03*
X260650Y244000D03*
X244350Y422500D03*
X264650Y556000D03*
X266150Y580500D03*
X264650Y565500D03*
X288350Y156500D03*
X281650D03*
X271150Y167500D03*
X277850D03*
X267350Y244000D03*
X280350D03*
X273650D03*
X287850Y367000D03*
X281150D03*
X271350Y556000D03*
X283150Y580500D03*
X272850D03*
X271350Y565500D03*
X308150Y166500D03*
X301150Y303500D03*
X307850D03*
X308650Y556500D03*
Y563500D03*
X289850Y580500D03*
X329850Y110500D03*
X323150D03*
X329850Y92500D03*
X323150D03*
X314850Y166500D03*
X331350Y417000D03*
X324650D03*
X315350Y556500D03*
Y563500D03*
X353150Y206500D03*
Y218500D03*
Y212500D03*
Y233500D03*
X353650Y313500D03*
X354650Y334500D03*
X349850Y348500D03*
X343150D03*
X349850Y342000D03*
X343150D03*
X338650Y417000D03*
X345350D03*
X354650D03*
X355650Y465500D03*
Y458500D03*
Y479500D03*
Y472500D03*
Y486500D03*
Y493500D03*
Y507500D03*
Y514500D03*
Y500500D03*
Y521500D03*
Y528500D03*
X364850Y40000D03*
X358150D03*
X359850Y206500D03*
Y218500D03*
Y212500D03*
Y233500D03*
X360350Y313500D03*
X361350Y334500D03*
Y417000D03*
X362350Y465500D03*
Y458500D03*
Y479500D03*
Y472500D03*
Y486500D03*
Y493500D03*
Y507500D03*
Y514500D03*
Y500500D03*
Y521500D03*
Y528500D03*
G54D31*
X68300Y526000D03*
G54D40*
X120340Y166030D03*
G54D50*
X165000Y122650D03*
Y116350D03*
X157000Y122650D03*
Y116350D03*
G54D14*
X10000Y217350D03*
Y210650D03*
X13500Y531350D03*
Y524650D03*
X20500Y531350D03*
Y524650D03*
X36500Y262850D03*
Y256150D03*
X23000Y373850D03*
Y367150D03*
X86500Y182650D03*
Y189350D03*
X75500Y378350D03*
Y371650D03*
Y385650D03*
Y392350D03*
X87500Y511650D03*
Y518350D03*
X87000Y568850D03*
Y562150D03*
X93500Y182650D03*
Y189350D03*
X129000Y264150D03*
X122000D03*
X129000Y270850D03*
X111500Y288150D03*
X122000Y270850D03*
X111500Y294850D03*
X130500Y312850D03*
Y306150D03*
X110500Y394150D03*
Y400850D03*
X120500Y398650D03*
Y405350D03*
X113500Y537350D03*
Y530650D03*
Y558650D03*
Y551350D03*
Y544650D03*
Y565350D03*
X151500Y56350D03*
Y49650D03*
X154500Y104350D03*
Y97650D03*
X152500Y211650D03*
Y218350D03*
X153000Y242650D03*
X136000Y264150D03*
X153000Y249350D03*
X148500Y270350D03*
Y263650D03*
X136000Y270850D03*
X143000Y538150D03*
Y544850D03*
X159000Y88350D03*
Y81650D03*
X169000Y131150D03*
Y137850D03*
X164500Y211650D03*
Y218350D03*
X170500Y211650D03*
Y218350D03*
X158500Y211650D03*
Y218350D03*
X165000Y242650D03*
X171000D03*
X159000D03*
X165000Y249350D03*
X171000D03*
X159000D03*
X168500Y446650D03*
X175500D03*
X168500Y453350D03*
X175500D03*
X177500Y129350D03*
Y122650D03*
X184000D03*
Y129350D03*
X190500Y121650D03*
Y128350D03*
X196500Y121650D03*
Y128350D03*
X182500Y140650D03*
Y147350D03*
X196000Y220150D03*
X188000D03*
X177000Y239650D03*
Y246350D03*
X196000Y226850D03*
X188000D03*
X182500Y446650D03*
Y453350D03*
X186000Y572650D03*
Y579350D03*
X202000Y220150D03*
X207500Y206150D03*
Y212850D03*
X210000Y220150D03*
X202000Y226850D03*
X210000D03*
X208000Y433850D03*
Y427150D03*
X214500Y433850D03*
Y427150D03*
X199500Y447850D03*
Y441150D03*
X201000Y427150D03*
Y433850D03*
X221000Y427150D03*
Y433850D03*
X205500Y480650D03*
Y487350D03*
X206000Y502350D03*
Y495650D03*
X221500Y573150D03*
Y579850D03*
X231500Y103150D03*
Y109850D03*
X238500Y107650D03*
X231500Y124350D03*
Y117650D03*
X238500Y114350D03*
X224500Y124350D03*
Y117650D03*
X241500Y194150D03*
Y200850D03*
Y187850D03*
Y181150D03*
X228000Y427150D03*
Y433850D03*
X238000Y429150D03*
Y435850D03*
X235000Y481150D03*
Y487850D03*
X245500Y103150D03*
Y109850D03*
Y116650D03*
Y123350D03*
X259000Y171850D03*
Y165150D03*
X260000Y220150D03*
Y226850D03*
X244500Y337150D03*
Y343850D03*
X246000Y481150D03*
Y487850D03*
X250500Y535150D03*
X258000Y540150D03*
Y546850D03*
X265000D03*
Y540150D03*
X250500Y541850D03*
X257500Y573650D03*
Y580350D03*
X281000Y201650D03*
X288000Y216650D03*
Y223350D03*
X281000Y208350D03*
X280500Y313650D03*
X275500Y329150D03*
Y335850D03*
X280500Y320350D03*
X287500Y380850D03*
Y374150D03*
X278500Y424150D03*
Y430850D03*
X274500Y540150D03*
Y546850D03*
X306500Y151150D03*
Y157850D03*
X298500Y155850D03*
Y149150D03*
X306000Y423650D03*
Y430350D03*
X301000Y546850D03*
Y540150D03*
X291000Y546850D03*
Y540150D03*
X311000Y136350D03*
Y129650D03*
X314500Y177650D03*
Y197350D03*
Y190650D03*
Y184350D03*
Y203650D03*
Y210350D03*
X322000Y245350D03*
Y238650D03*
Y251650D03*
Y258350D03*
X313000Y267650D03*
X319000D03*
X313000Y274350D03*
X319000D03*
X318500Y310650D03*
X312500D03*
X318500Y317350D03*
X312500D03*
X333000Y381150D03*
X326500D03*
X333000Y387850D03*
X326500D03*
X313000Y423650D03*
X320000D03*
X326500D03*
X313000Y430350D03*
X320000D03*
X326500D03*
X327000Y546850D03*
Y540150D03*
X319000Y546850D03*
Y540150D03*
X312000Y546850D03*
Y540150D03*
X342500Y313150D03*
Y319850D03*
X343000Y328150D03*
Y334850D03*
X339500Y381150D03*
Y387850D03*
X335500Y423650D03*
Y430350D03*
X334000Y556650D03*
X355000D03*
X341000D03*
X334000Y546850D03*
Y540150D03*
X351000Y571650D03*
Y578350D03*
X334000Y563350D03*
X355000D03*
X341000D03*
X361500Y403150D03*
Y409850D03*
X362000Y556650D03*
Y563350D03*
G54D41*
X121400Y219500D03*
Y224500D03*
Y229500D03*
Y234500D03*
Y239500D03*
Y244500D03*
Y249500D03*
X141000Y224500D03*
Y244500D03*
Y239500D03*
Y234500D03*
Y229500D03*
Y249500D03*
X187400Y233000D03*
Y238000D03*
Y243000D03*
Y248000D03*
X207000Y243000D03*
Y238000D03*
Y248000D03*
X251400Y181500D03*
Y186500D03*
Y191500D03*
Y196500D03*
Y201500D03*
Y206500D03*
Y211500D03*
X271000Y201500D03*
Y196500D03*
Y191500D03*
Y186500D03*
Y211500D03*
Y206500D03*
G54D32*
X86750Y12500D03*
X105250D03*
X114750D03*
X133250D03*
G54D23*
X41500Y364500D03*
X36500D03*
X31500Y400700D03*
X36500D03*
X41500D03*
X61500Y364500D03*
X56500D03*
X51500D03*
X46500D03*
Y400700D03*
X51500D03*
X56500D03*
X61500D03*
X66500Y364500D03*
Y400700D03*
G54D15*
X19750Y262800D03*
X27250D03*
X23500Y254200D03*
X76750Y599300D03*
X73000Y590700D03*
X69250Y599300D03*
X101500Y197200D03*
X97750Y205800D03*
X105250D03*
X251750Y76700D03*
X255500Y85300D03*
X259250Y76700D03*
X275250Y346700D03*
X279000Y355300D03*
X282750Y346700D03*
X328250Y267700D03*
X332000Y276300D03*
X335750Y267700D03*
X360900Y24500D03*
X364650Y33100D03*
X357150D03*
G54D51*
X161840Y260340D03*
X159280D03*
X156720D03*
X154160D03*
Y270660D03*
X156720D03*
X159280D03*
X161840D03*
G54D42*
X120500Y434000D03*
X154000Y174000D03*
X216000Y171500D03*
X240500Y171000D03*
G54D33*
X84950Y45500D03*
G54D60*
X183800Y270500D03*
X197000D03*
X183800Y282500D03*
X197000D03*
G54D24*
X31500Y364500D03*
G54D43*
X133291Y471878D03*
Y473846D03*
Y475815D03*
Y477783D03*
Y479752D03*
Y481720D03*
Y483689D03*
Y485657D03*
Y487626D03*
Y489594D03*
Y491563D03*
Y493531D03*
Y495500D03*
Y497469D03*
Y499437D03*
Y501406D03*
Y503374D03*
Y505343D03*
Y507311D03*
Y509280D03*
Y511248D03*
Y513217D03*
Y515185D03*
Y517154D03*
Y519122D03*
X194709Y491563D03*
Y489594D03*
Y487626D03*
Y485657D03*
Y483689D03*
Y481720D03*
Y479752D03*
Y477783D03*
Y475815D03*
Y473846D03*
Y471878D03*
Y513217D03*
Y511248D03*
Y509280D03*
Y507311D03*
Y505343D03*
Y503374D03*
Y501406D03*
Y499437D03*
Y497469D03*
Y495500D03*
Y493531D03*
Y519122D03*
Y517154D03*
Y515185D03*
G54D61*
X197122Y557386D03*
X194524D03*
X192004D03*
Y580614D03*
X194524D03*
X197122D03*
X214996Y557386D03*
X212476D03*
X209878D03*
X207358D03*
X204760D03*
X202240D03*
X199642D03*
Y580614D03*
X202240D03*
X204760D03*
X207358D03*
X209878D03*
X212476D03*
X214996D03*
X240760Y557386D03*
X238240D03*
X235642D03*
X233122D03*
X230524D03*
X228004D03*
Y580614D03*
X230524D03*
X233122D03*
X235642D03*
X238240D03*
X240760D03*
X250996Y557386D03*
X248476D03*
X245878D03*
X243358D03*
Y580614D03*
X245878D03*
X248476D03*
X250996D03*
G54D52*
X155020Y376600D03*
Y364400D03*
X219980D03*
Y376600D03*
G54D70*
X265500Y92570D03*
X255500D03*
Y128000D03*
X265500D03*
X275500Y92570D03*
Y128000D03*
G54D34*
X85500Y414400D03*
Y434000D03*
X105500Y414400D03*
X100500D03*
X95500D03*
X90500D03*
Y434000D03*
X95500D03*
X100500D03*
X105500D03*
X120500Y414400D03*
X115500D03*
X110500D03*
Y434000D03*
X115500D03*
X169000Y174000D03*
X164000D03*
X159000D03*
X154000Y193600D03*
X159000D03*
X164000D03*
X169000D03*
X216000Y151900D03*
X211000D03*
X206000D03*
X201000D03*
Y171500D03*
X206000D03*
X211000D03*
X240500Y151400D03*
X235500D03*
X230500D03*
X225500D03*
Y171000D03*
X230500D03*
X235500D03*
G54D25*
X29500Y530500D03*
Y519500D03*
X120000Y447000D03*
Y458000D03*
X194000Y137000D03*
Y148000D03*
X191000Y441500D03*
Y452500D03*
X206000Y181000D03*
Y192000D03*
X251500Y172000D03*
Y161000D03*
G54D16*
X15820Y280500D03*
X35500D03*
X56500Y553500D03*
X76180D03*
X131500Y73500D03*
X151180D03*
X154500Y155000D03*
X174180D03*
X333320Y295500D03*
X353000D03*
G54D53*
X174700Y364400D03*
X172740Y376600D03*
X170770Y364400D03*
X168800Y376600D03*
X166830Y364400D03*
X164860Y376600D03*
X162900Y364400D03*
X160930Y376600D03*
X158960Y364400D03*
X198330D03*
X196360Y376600D03*
X194390Y364400D03*
X192420Y376600D03*
X190450Y364400D03*
X188480Y376600D03*
X186520Y364400D03*
X184550Y376600D03*
X182580Y364400D03*
X180610Y376600D03*
X178640Y364400D03*
X176670Y376600D03*
X216040D03*
X214070Y364400D03*
X212100Y376600D03*
X210140Y364400D03*
X208170Y376600D03*
X206200Y364400D03*
X204230Y376600D03*
X202260Y364400D03*
X200300Y376600D03*
G54D17*
X15500Y300500D03*
X26500D03*
G54D35*
X100382Y448760D03*
Y452500D03*
Y456240D03*
X110618D03*
Y448760D03*
X240618Y534760D03*
X230382D03*
X240618Y542240D03*
X230382Y538500D03*
Y542240D03*
G54D26*
X39650Y517000D03*
Y535000D03*
G54D80*
X283500Y285200D03*
Y289900D03*
Y280500D03*
G54D71*
X256540Y359940D03*
X261460D03*
G54D62*
X216520Y268770D03*
Y266800D03*
Y290420D03*
Y288450D03*
Y286480D03*
Y284520D03*
Y282550D03*
Y280580D03*
Y278610D03*
Y276640D03*
Y274670D03*
Y272700D03*
Y270740D03*
Y304200D03*
Y302230D03*
Y300260D03*
Y298300D03*
Y296330D03*
Y294360D03*
Y292390D03*
X268480Y266800D03*
Y268770D03*
Y270740D03*
Y272700D03*
Y274670D03*
Y276640D03*
Y278610D03*
Y280580D03*
Y282550D03*
Y284520D03*
Y286480D03*
Y288450D03*
Y290420D03*
Y292390D03*
Y294360D03*
Y296330D03*
Y298300D03*
Y300260D03*
Y302230D03*
Y304200D03*
G54D44*
X122000Y546150D03*
Y538850D03*
X133050Y546150D03*
Y538850D03*
X169000Y594350D03*
X157950D03*
Y601650D03*
X169000D03*
X350000Y436150D03*
Y428850D03*
X361050Y436150D03*
Y428850D03*
G54D72*
X267000Y384500D03*
Y398280D03*
G54D90*
X329750Y400000D03*
Y395000D03*
Y410000D03*
Y405000D03*
X350250Y395000D03*
Y400000D03*
Y405000D03*
Y410000D03*
G54D27*
X29750Y557000D03*
X37250Y559500D03*
Y554500D03*
G54D63*
X215465Y486360D03*
Y493640D03*
X224525Y486360D03*
Y493640D03*
G54D81*
X286236Y441677D03*
X284268D03*
X282299D03*
X280331D03*
X278362D03*
X276394D03*
X274425D03*
X272457D03*
X270488D03*
X268520D03*
X266551D03*
Y526323D03*
X268520D03*
X270488D03*
X272457D03*
X274425D03*
X276394D03*
X278362D03*
X280331D03*
X282299D03*
X284268D03*
X286236D03*
X307890Y441677D03*
X305921D03*
X303953D03*
X301984D03*
X300016D03*
X298047D03*
X296079D03*
X294110D03*
X292142D03*
X290173D03*
X288205D03*
Y526323D03*
X290173D03*
X292142D03*
X294110D03*
X296079D03*
X298047D03*
X300016D03*
X301984D03*
X303953D03*
X305921D03*
X307890D03*
X331512Y441677D03*
X329543D03*
X327575D03*
X325606D03*
X323638D03*
X321669D03*
X319701D03*
X317732D03*
X315764D03*
X313795D03*
X311827D03*
X309858D03*
Y526323D03*
X311827D03*
X313795D03*
X315764D03*
X317732D03*
X319701D03*
X321669D03*
X323638D03*
X325606D03*
X327575D03*
X329543D03*
X331512D03*
X335449Y441677D03*
X333480D03*
Y526323D03*
X335449D03*
G54D45*
X125950Y546150D03*
X129100D03*
Y538850D03*
X125950D03*
X165050Y594350D03*
X161900D03*
Y601650D03*
X165050D03*
X353950Y436150D03*
Y428850D03*
X357100Y436150D03*
Y428850D03*
G54D54*
X161500Y575000D03*
G54D18*
X15000Y500500D03*
Y509500D03*
X21000Y500500D03*
Y509500D03*
X308500Y219500D03*
X314500D03*
G54D36*
X132750Y45500D03*
Y35500D03*
Y55500D03*
G54D28*
X53420Y87590D03*
X64830Y97440D03*
X62860Y107280D03*
X61680Y117120D03*
Y126960D03*
X62860Y136800D03*
Y146640D03*
Y156480D03*
Y162880D03*
G54D64*
X234650Y40500D03*
X228350D03*
G54D19*
X14654Y559000D03*
X21346D03*
X362346Y451500D03*
X355654D03*
G54D37*
X136500Y101200D03*
G54D91*
X356000Y188250D03*
G54D55*
X154360Y570079D03*
Y572047D03*
Y574016D03*
Y575984D03*
Y577953D03*
Y579921D03*
G54D73*
X246500Y370770D03*
X271500D03*
G54D82*
X302000Y289000D03*
X319320D03*
G54D46*
X137500Y165320D03*
Y185000D03*
X185500Y172320D03*
Y192000D03*
X224500Y186820D03*
Y206500D03*
G54D29*
X53020Y176170D03*
G54D74*
X262480Y425945D03*
Y419055D03*
X267520Y425945D03*
X265000D03*
X267520Y419055D03*
X265000D03*
X286000Y571945D03*
X283480D03*
X286000Y565055D03*
X283480D03*
X293520Y419555D03*
X291000D03*
X288480D03*
X293520Y426445D03*
X291000D03*
X288480D03*
X288520Y571945D03*
Y565055D03*
X350520Y537055D03*
X348000D03*
X345480D03*
X350520Y543945D03*
X348000D03*
X345480D03*
G54D83*
X308480Y381827D03*
X303520D03*
Y410173D03*
X308480D03*
X318480Y381827D03*
X313520D03*
Y410173D03*
X318480D03*
G54D47*
X141000Y219500D03*
X207000Y233000D03*
X271000Y181500D03*
G54D92*
X354000Y274000D03*
X357700Y281900D03*
X361400Y274000D03*
G54D38*
X120340Y91630D03*
G54D65*
X223500Y220180D03*
Y237500D03*
X245500Y220180D03*
Y237500D03*
X260000Y330180D03*
Y347500D03*
G54D56*
X168640Y579921D03*
Y577953D03*
Y575984D03*
Y574016D03*
Y572047D03*
Y570079D03*
G54D75*
X259646Y425945D03*
Y419055D03*
X270354Y425945D03*
Y419055D03*
X285646Y419555D03*
Y426445D03*
X280646Y571945D03*
Y565055D03*
X296354Y419555D03*
Y426445D03*
X291354Y571945D03*
Y565055D03*
X353354Y537055D03*
X342646D03*
X353354Y543945D03*
X342646D03*
G54D48*
X150610Y422500D03*
X176610Y427000D03*
X164390Y422500D03*
X190390Y427000D03*
X236610Y387390D03*
X250390D03*
G54D39*
X127500Y129850D03*
X145500D03*
G54D66*
X223800Y259520D03*
X225770D03*
X227740D03*
X229700D03*
X231670D03*
X233640D03*
X235610D03*
X237580D03*
X239550D03*
X241520D03*
Y311480D03*
X239550D03*
X237580D03*
X235610D03*
X233640D03*
X231670D03*
X229700D03*
X227740D03*
X225770D03*
X223800D03*
X243480Y259520D03*
X245450D03*
X247420D03*
X249390D03*
X251360D03*
X253330D03*
X255300D03*
X257260D03*
X259230D03*
X261200D03*
Y311480D03*
X259230D03*
X257260D03*
X255300D03*
X253330D03*
X251360D03*
X249390D03*
X247420D03*
X245450D03*
X243480D03*
G54D93*
X340909Y355007D03*
X339177D03*
X337366D03*
X335634D03*
X333823D03*
X332091D03*
Y368393D03*
X333823D03*
X335634D03*
X337366D03*
X339177D03*
X340909D03*
G54D57*
X166421Y567854D03*
X164453D03*
X162484D03*
X160516D03*
X158547D03*
X156579D03*
G54D84*
X321500Y62830D03*
Y77000D03*
G54D49*
X152189Y464791D03*
X150220D03*
X148252D03*
X146283D03*
X144315D03*
X142346D03*
X140378D03*
Y526209D03*
X142346D03*
X144315D03*
X146283D03*
X148252D03*
X150220D03*
X152189D03*
X173843Y464791D03*
X171874D03*
X169906D03*
X167937D03*
X165969D03*
X164000D03*
X162031D03*
X160063D03*
X158094D03*
X156126D03*
X154157D03*
Y526209D03*
X156126D03*
X158094D03*
X160063D03*
X162031D03*
X164000D03*
X165969D03*
X167937D03*
X169906D03*
X171874D03*
X173843D03*
X187622Y464791D03*
X185654D03*
X183685D03*
X181717D03*
X179748D03*
X177780D03*
X175811D03*
Y526209D03*
X177780D03*
X179748D03*
X181717D03*
X183685D03*
X185654D03*
X187622D03*
G54D67*
X234055Y460520D03*
Y458000D03*
Y455480D03*
X240945Y460520D03*
Y458000D03*
Y455480D03*
G54D85*
X314200Y110600D03*
Y101500D03*
Y92400D03*
G54D76*
X258677Y449551D03*
Y451520D03*
Y453488D03*
Y455457D03*
Y457425D03*
Y459394D03*
Y461362D03*
Y463331D03*
Y465299D03*
Y467268D03*
Y469236D03*
Y471205D03*
Y473173D03*
Y475142D03*
Y477110D03*
Y479079D03*
Y481047D03*
Y483016D03*
Y484984D03*
Y486953D03*
Y488921D03*
Y490890D03*
Y492858D03*
Y494827D03*
Y496795D03*
Y498764D03*
Y500732D03*
Y502701D03*
Y504669D03*
Y506638D03*
Y508606D03*
Y510575D03*
Y512543D03*
Y514512D03*
Y516480D03*
Y518449D03*
X343323Y469236D03*
Y467268D03*
Y465299D03*
Y463331D03*
Y461362D03*
Y459394D03*
Y457425D03*
Y455457D03*
Y453488D03*
Y451520D03*
Y449551D03*
Y490890D03*
Y488921D03*
Y486953D03*
Y484984D03*
Y483016D03*
Y481047D03*
Y479079D03*
Y477110D03*
Y475142D03*
Y473173D03*
Y471205D03*
Y512543D03*
Y510575D03*
Y508606D03*
Y506638D03*
Y504669D03*
Y502701D03*
Y500732D03*
Y498764D03*
Y496795D03*
Y494827D03*
Y492858D03*
Y518449D03*
Y516480D03*
Y514512D03*
G54D94*
X348000Y381000D03*
X359000D03*
G54D58*
X156579Y582140D03*
X158547D03*
X160516D03*
X162484D03*
X164453D03*
X166421D03*
G54D68*
X234055Y463354D03*
X240945D03*
X234055Y452646D03*
X240945D03*
G54D86*
X327000Y179300D03*
Y197200D03*
G54D95*
X336500Y361700D03*
G54D59*
X184000Y110900D03*
X177500Y111000D03*
X184000Y116500D03*
X177500Y116600D03*
G54D77*
X275100Y67700D03*
Y60300D03*
X320100Y128800D03*
Y136200D03*
G54D96*
G01X-98830Y134497D02*
X-98323Y134080D01*
X-97753Y133830D01*
X-97247D01*
X-96740Y134080D01*
X-96360Y134497D01*
X-96170Y135080D01*
X-96297Y135663D01*
X-96613Y136163D01*
X-97183Y136497D01*
X-97943Y136663D01*
X-98387Y136997D01*
X-98577Y137580D01*
X-98450Y138163D01*
X-98133Y138580D01*
X-97690Y138830D01*
X-97247D01*
X-96803Y138663D01*
X-96423Y138247D01*
G01X-93200Y133830D02*
X-93707Y133913D01*
X-94150Y134247D01*
X-94530Y134747D01*
X-94783Y135330D01*
X-94910Y135997D01*
Y136663D01*
X-94783Y137330D01*
X-94530Y137913D01*
X-94150Y138413D01*
X-93707Y138747D01*
X-93200Y138830D01*
X-92693Y138747D01*
X-92250Y138413D01*
X-91870Y137913D01*
X-91617Y137330D01*
X-91490Y136663D01*
Y135997D01*
X-91617Y135330D01*
X-91870Y134747D01*
X-92250Y134247D01*
X-92693Y133913D01*
X-93200Y133830D01*
G01X-90167Y138830D02*
Y133830D01*
X-87633D01*
G01X-85993D02*
Y138830D01*
X-84727D01*
X-84220Y138580D01*
X-83840Y138247D01*
X-83523Y137747D01*
X-83270Y137163D01*
X-83207Y136330D01*
X-83270Y135497D01*
X-83523Y134913D01*
X-83840Y134413D01*
X-84220Y134080D01*
X-84727Y133830D01*
X-85993D01*
G01X-79033D02*
X-81567D01*
Y138830D01*
X-79033D01*
G01X-80047Y136413D02*
X-81567D01*
G01X-77267Y133830D02*
Y138830D01*
X-75683D01*
X-75177Y138580D01*
X-74860Y138247D01*
X-74733Y137580D01*
X-74860Y136913D01*
X-75240Y136497D01*
X-75683Y136247D01*
X-77267D01*
G01X-75683D02*
X-74733Y133830D01*
G01X-68667D02*
Y138830D01*
X-67147D01*
X-66640Y138580D01*
X-66260Y137997D01*
X-66133Y137330D01*
X-66260Y136663D01*
X-66577Y136163D01*
X-67147Y135913D01*
X-68667D01*
G01X-64683Y133830D02*
X-63100Y138830D01*
X-61517Y133830D01*
G01X-62087Y135580D02*
X-64113D01*
G01X-60130Y134497D02*
X-59623Y134080D01*
X-59053Y133830D01*
X-58547D01*
X-58040Y134080D01*
X-57660Y134497D01*
X-57470Y135080D01*
X-57597Y135663D01*
X-57913Y136163D01*
X-58483Y136497D01*
X-59243Y136663D01*
X-59687Y136997D01*
X-59877Y137580D01*
X-59750Y138163D01*
X-59433Y138580D01*
X-58990Y138830D01*
X-58547D01*
X-58103Y138663D01*
X-57723Y138247D01*
G01X-54500Y138830D02*
Y133830D01*
G01X-55957Y138830D02*
X-53043D01*
G01X-48933Y133830D02*
X-51467D01*
Y138830D01*
X-48933D01*
G01X-49947Y136413D02*
X-51467D01*
G01X-41600Y138830D02*
Y133830D01*
G01X-43057Y138830D02*
X-40143D01*
G01X-37300Y133830D02*
X-37807Y133913D01*
X-38250Y134247D01*
X-38630Y134747D01*
X-38883Y135330D01*
X-39010Y135997D01*
Y136663D01*
X-38883Y137330D01*
X-38630Y137913D01*
X-38250Y138413D01*
X-37807Y138747D01*
X-37300Y138830D01*
X-36793Y138747D01*
X-36350Y138413D01*
X-35970Y137913D01*
X-35717Y137330D01*
X-35590Y136663D01*
Y135997D01*
X-35717Y135330D01*
X-35970Y134747D01*
X-36350Y134247D01*
X-36793Y133913D01*
X-37300Y133830D01*
G01X-34267D02*
Y138830D01*
X-32747D01*
X-32240Y138580D01*
X-31860Y137997D01*
X-31733Y137330D01*
X-31860Y136663D01*
X-32177Y136163D01*
X-32747Y135913D01*
X-34267D01*
G01X-25730Y134497D02*
X-25223Y134080D01*
X-24653Y133830D01*
X-24147D01*
X-23640Y134080D01*
X-23260Y134497D01*
X-23070Y135080D01*
X-23197Y135663D01*
X-23513Y136163D01*
X-24083Y136497D01*
X-24843Y136663D01*
X-25287Y136997D01*
X-25477Y137580D01*
X-25350Y138163D01*
X-25033Y138580D01*
X-24590Y138830D01*
X-24147D01*
X-23703Y138663D01*
X-23323Y138247D01*
G01X-20860Y138830D02*
X-19340D01*
G01X-20100D02*
Y133830D01*
G01X-20860D02*
X-19340D01*
G01X-17193D02*
Y138830D01*
X-15927D01*
X-15420Y138580D01*
X-15040Y138247D01*
X-14723Y137747D01*
X-14470Y137163D01*
X-14407Y136330D01*
X-14470Y135497D01*
X-14723Y134913D01*
X-15040Y134413D01*
X-15420Y134080D01*
X-15927Y133830D01*
X-17193D01*
G01X-10233D02*
X-12767D01*
Y138830D01*
X-10233D01*
G01X-11247Y136413D02*
X-12767D01*
G54D78*
X283000Y64000D03*
X328000Y132500D03*
G54D87*
X326300Y312300D03*
X333700D03*
G54D69*
X262000Y67750D03*
Y49250D03*
G54D88*
X330000Y320200D03*
G54D79*
X289800Y101500D03*
G54D89*
X318890Y338500D03*
X330110D03*
M02*
