G04 ================== begin FILE IDENTIFICATION RECORD ==================*
G04 Layout Name:  P:/Midtronics/184-000309-RevA/pcb/allegro/184-000309RevA.brd*
G04 Film Name:    SSB*
G04 File Format:  Gerber RS274X*
G04 File Origin:  Cadence Allegro 16.6-S033*
G04 Origin Date:  Mon Aug 25 10:18:22 2014*
G04 *
G04 Layer:  BOARD GEOMETRY/SILKSCREEN_BOTTOM*
G04 Layer:  PACKAGE GEOMETRY/SILKSCREEN_BOTTOM*
G04 Layer:  REF DES/SILKSCREEN_BOTTOM*
G04 *
G04 Offset:    (0.00 0.00)*
G04 Mirror:    No*
G04 Mode:      Positive*
G04 Rotation:  0*
G04 FullContactRelief:  No*
G04 UndefLineWidth:     5.00*
G04 ================== end FILE IDENTIFICATION RECORD ====================*
%FSLAX25Y25*MOIN*%
%IR0*IPPOS*OFA0.00000B0.00000*MIA0B0*SFA1.00000B1.00000*%
%ADD10C,.01*%
%ADD11C,.005*%
%ADD12C,.006*%
%ADD13C,.008*%
G75*
%LPD*%
G75*
G54D10*
G01X235973Y30000D02*
X238213D01*
G01X237000Y28375D02*
Y31625D01*
G54D11*
G01X-14670Y82997D02*
X-15177Y82580D01*
X-15747Y82330D01*
X-16253D01*
X-16760Y82580D01*
X-17140Y82997D01*
X-17330Y83580D01*
X-17203Y84163D01*
X-16887Y84663D01*
X-16317Y84997D01*
X-15557Y85163D01*
X-15113Y85497D01*
X-14923Y86080D01*
X-15050Y86663D01*
X-15367Y87080D01*
X-15810Y87330D01*
X-16253D01*
X-16697Y87163D01*
X-17077Y86747D01*
G01X-18970Y82997D02*
X-19477Y82580D01*
X-20047Y82330D01*
X-20553D01*
X-21060Y82580D01*
X-21440Y82997D01*
X-21630Y83580D01*
X-21503Y84163D01*
X-21187Y84663D01*
X-20617Y84997D01*
X-19857Y85163D01*
X-19413Y85497D01*
X-19223Y86080D01*
X-19350Y86663D01*
X-19667Y87080D01*
X-20110Y87330D01*
X-20553D01*
X-20997Y87163D01*
X-21377Y86747D01*
G01X-27633Y87330D02*
Y82330D01*
X-30167D01*
G01X-34467D02*
X-31933D01*
Y87330D01*
X-34467D01*
G01X-33453Y84913D02*
X-31933D01*
G01X-37880Y84830D02*
X-39147D01*
Y83330D01*
X-38767Y82830D01*
X-38323Y82497D01*
X-37690Y82330D01*
X-37057Y82497D01*
X-36613Y82830D01*
X-36233Y83330D01*
X-35980Y83913D01*
X-35853Y84580D01*
Y85163D01*
X-35980Y85663D01*
X-36233Y86247D01*
X-36613Y86747D01*
X-36993Y87080D01*
X-37500Y87330D01*
X-37943D01*
X-38450Y87163D01*
X-38830Y86830D01*
G01X-43067Y82330D02*
X-40533D01*
Y87330D01*
X-43067D01*
G01X-42053Y84913D02*
X-40533D01*
G01X-44643Y82330D02*
Y87330D01*
X-47557Y82330D01*
Y87330D01*
G01X-49007Y82330D02*
Y87330D01*
X-50273D01*
X-50780Y87080D01*
X-51160Y86747D01*
X-51477Y86247D01*
X-51730Y85663D01*
X-51793Y84830D01*
X-51730Y83997D01*
X-51477Y83413D01*
X-51160Y82913D01*
X-50780Y82580D01*
X-50273Y82330D01*
X-49007D01*
G01X-59507Y84997D02*
X-59760Y85247D01*
X-59950Y85663D01*
X-60077Y86247D01*
X-59950Y86747D01*
X-59697Y87080D01*
X-59253Y87330D01*
X-57543D01*
Y82330D01*
X-59633D01*
X-60077Y82663D01*
X-60330Y83163D01*
X-60457Y83747D01*
X-60330Y84330D01*
X-59950Y84830D01*
X-59507Y84997D01*
X-57543D01*
G01X-63300Y82330D02*
X-62793Y82413D01*
X-62350Y82747D01*
X-61970Y83247D01*
X-61717Y83830D01*
X-61590Y84497D01*
Y85163D01*
X-61717Y85830D01*
X-61970Y86413D01*
X-62350Y86913D01*
X-62793Y87247D01*
X-63300Y87330D01*
X-63807Y87247D01*
X-64250Y86913D01*
X-64630Y86413D01*
X-64883Y85830D01*
X-65010Y85163D01*
Y84497D01*
X-64883Y83830D01*
X-64630Y83247D01*
X-64250Y82747D01*
X-63807Y82413D01*
X-63300Y82330D01*
G01X-67600Y87330D02*
Y82330D01*
G01X-66143Y87330D02*
X-69057D01*
G01X-71900D02*
Y82330D01*
G01X-70443Y87330D02*
X-73357D01*
G01X-76200Y82330D02*
X-75693Y82413D01*
X-75250Y82747D01*
X-74870Y83247D01*
X-74617Y83830D01*
X-74490Y84497D01*
Y85163D01*
X-74617Y85830D01*
X-74870Y86413D01*
X-75250Y86913D01*
X-75693Y87247D01*
X-76200Y87330D01*
X-76707Y87247D01*
X-77150Y86913D01*
X-77530Y86413D01*
X-77783Y85830D01*
X-77910Y85163D01*
Y84497D01*
X-77783Y83830D01*
X-77530Y83247D01*
X-77150Y82747D01*
X-76707Y82413D01*
X-76200Y82330D01*
G01X-78853D02*
Y87330D01*
X-80500Y83163D01*
X-82147Y87330D01*
Y82330D01*
G01X-87770Y82997D02*
X-88277Y82580D01*
X-88847Y82330D01*
X-89353D01*
X-89860Y82580D01*
X-90240Y82997D01*
X-90430Y83580D01*
X-90303Y84163D01*
X-89987Y84663D01*
X-89417Y84997D01*
X-88657Y85163D01*
X-88213Y85497D01*
X-88023Y86080D01*
X-88150Y86663D01*
X-88467Y87080D01*
X-88910Y87330D01*
X-89353D01*
X-89797Y87163D01*
X-90177Y86747D01*
G01X-92640Y87330D02*
X-94160D01*
G01X-93400D02*
Y82330D01*
G01X-92640D02*
X-94160D01*
G01X-96307D02*
Y87330D01*
X-97573D01*
X-98080Y87080D01*
X-98460Y86747D01*
X-98777Y86247D01*
X-99030Y85663D01*
X-99093Y84830D01*
X-99030Y83997D01*
X-98777Y83413D01*
X-98460Y82913D01*
X-98080Y82580D01*
X-97573Y82330D01*
X-96307D01*
G01X-103267D02*
X-100733D01*
Y87330D01*
X-103267D01*
G01X-102253Y84913D02*
X-100733D01*
G01X122417Y148830D02*
X122100Y148330D01*
X121720Y147997D01*
X121277Y147830D01*
X120770Y147997D01*
X120390Y148330D01*
X120010Y148830D01*
X119883Y149497D01*
Y152830D01*
G01X116850Y147830D02*
X116407Y147913D01*
X115900Y148163D01*
X115583Y148580D01*
X115457Y149163D01*
X115583Y149747D01*
X115963Y150247D01*
X116533Y150497D01*
X117167D01*
X117547Y150663D01*
X117863Y151080D01*
X117990Y151663D01*
X117800Y152247D01*
X117357Y152663D01*
X116850Y152830D01*
X116343Y152663D01*
X115900Y152247D01*
X115710Y151663D01*
X115837Y151080D01*
X116153Y150663D01*
X116533Y150497D01*
X117167D01*
X117737Y150247D01*
X118117Y149747D01*
X118243Y149163D01*
X118117Y148580D01*
X117800Y148163D01*
X117293Y147913D01*
X116850Y147830D01*
G01X149490Y150940D02*
Y155940D01*
X150250Y154940D01*
G01Y150940D02*
X148730D01*
G01X300893Y29613D02*
X300740Y29768D01*
X300625Y30027D01*
X300548Y30388D01*
X300625Y30698D01*
X300778Y30905D01*
X301047Y31060D01*
X302082D01*
Y27960D01*
X300817D01*
X300548Y28167D01*
X300395Y28477D01*
X300318Y28838D01*
X300395Y29200D01*
X300625Y29510D01*
X300893Y29613D01*
X302082D01*
G01X299128Y31060D02*
X297672D01*
X299128Y27960D01*
X297672D01*
G01X296367D02*
Y31060D01*
X295408D01*
X295102Y30905D01*
X294910Y30698D01*
X294833Y30285D01*
X294910Y29872D01*
X295140Y29613D01*
X295408Y29458D01*
X296367D01*
G01X295408D02*
X294833Y27960D01*
G01X292800D02*
Y31060D01*
X293260Y30440D01*
G01Y27960D02*
X292340D01*
G54D12*
G01X265000Y4880D02*
G03Y52120I0J23620D01*
G03Y4880I0J-23620D01*
G54D13*
G01X145000Y111500D02*
X125000D01*
G01D02*
Y144000D01*
G01X130000Y104000D02*
Y111500D01*
G01Y144000D02*
Y146500D01*
G01X125000Y144000D02*
X145000D01*
G01D02*
Y111500D01*
G01X140000Y104000D02*
Y111500D01*
G01Y144000D02*
Y146500D01*
M02*
